<?xml version="1.0" encoding="UTF-8"?><svg id="b" xmlns="http://www.w3.org/2000/svg" viewBox="0 0 1333.5 448.99"><defs><style>.f{font-family:Avenir-Medium, Avenir;font-weight:500;}.f,.g{letter-spacing:0em;}.h{font-size:100px;}.h,.i{fill:#fff;}.j{font-family:Avenir-Black, Avenir;font-weight:800;}.k{letter-spacing:-.09em;}.l{fill:#f1f2f2;}.l,.i{stroke-width:0px;}</style></defs><g id="c"><g id="d"><text class="h" transform="translate(366.42 137.48)"><tspan class="f"><tspan x="0" y="0">AUSTRALIAN</tspan></tspan><tspan class="j"><tspan class="g" x="0" y="108">C</tspan><tspan class="k" x="68.8" y="108">A</tspan><tspan class="g" x="134" y="108">THOLIC BISHOPS</tspan></tspan><tspan class="f"><tspan x="0" y="216">CONFERENCE</tspan></tspan></text><g id="e"><path class="l" d="M152.74,448.99l-.27-.07c-5.99-1.58-44.31-17.5-81.7-55.08-20.74-20.85-37.23-44.47-49-70.2C7.33,292.04,0,257.17,0,219.98s8.09-71.6,24.05-102.81c12.77-24.97,30.56-47.83,52.9-67.97C114.96,14.94,153.5.28,153.89.13l.36-.13.35.14c.38.15,38.27,14.93,75.64,49.31,21.96,20.2,39.45,43.12,52,68.13,15.69,31.26,23.64,65.87,23.64,102.88s-7.53,72.02-22.38,103.7c-12.03,25.66-28.86,49.28-50.03,70.21-36.62,36.2-74.94,52.97-80.47,54.55l-.26.08ZM154.24,2.14c-3.97,1.56-40.21,16.31-76,48.6-22.14,19.97-39.78,42.64-52.42,67.38C10.01,149.04,2,183.31,2,219.98s7.27,71.49,21.6,102.82c11.67,25.51,28.02,48.94,48.59,69.62,36.56,36.75,73.82,52.56,80.52,54.49,6.31-1.97,43.57-18.59,79.35-53.97,21-20.76,37.69-44.19,49.62-69.64,14.73-31.41,22.19-66.01,22.19-102.85s-7.88-71-23.43-101.98c-12.44-24.79-29.79-47.52-51.57-67.55C193.72,18.56,158.15,3.72,154.24,2.14Z"/><path class="i" d="M152.74,397.66l-.27-.07c-6.11-1.61-33.08-18.56-57.6-47.22-14.58-17.03-26.17-35.56-34.47-55.06-10.17-23.91-15.33-49.25-15.33-75.33s5.68-51.03,16.88-74.56c8.96-18.81,21.44-36.67,37.1-53.09,26.66-27.93,53.7-42.2,53.97-42.34l.47-.24.47.25c.26.14,26.77,14.49,52.91,42.51,15.36,16.46,27.59,34.36,36.37,53.2,10.98,23.56,16.55,48.66,16.55,74.6s-5.25,51.39-15.61,75.35c-8.4,19.44-20.14,37.97-34.88,55.07-26.03,30.19-52.56,45.79-56.28,46.85l-.26.08ZM153.48,52.03c-3.69,2.01-28.51,16.04-53.02,41.74-15.51,16.26-27.86,33.94-36.72,52.55-11.06,23.25-16.67,48.03-16.67,73.66s5.11,50.88,15.17,74.54c8.22,19.31,19.71,37.66,34.15,54.54,25.38,29.66,51.21,44.86,56.32,46.51,4.37-1.6,30.28-17.41,55.06-46.15,14.61-16.95,26.24-35.3,34.56-54.55,10.25-23.71,15.45-48.8,15.45-74.56s-5.5-50.43-16.34-73.72c-8.68-18.64-20.79-36.36-35.99-52.67-24.01-25.76-48.33-39.86-51.97-41.9Z"/><path class="i" d="M167.83,163.37c-7.55-8.3-15.1-13.59-15.1-13.59,0,0-8.3,6.79-16.61,14.34-12.6,11.45-37.54,35.61-40.01,57.37-3.77,33.21,27.93,78.51,27.93,78.51,0,0,21.14-5.28,28.69-5.28s27.18,5.28,27.18,5.28c0,0,27.18-36.23,27.18-71.71s-36-61.34-39.25-64.92ZM177.22,289.58c-.11-.05-11.3-5.19-24.49-5.19-11,0-24.41,5.16-24.55,5.22l-.73-1.86c.55-.21,13.13-5.06,24.27-5.34v-129.61h2v129.6c13.2.24,23.87,5.15,24.33,5.37l-.85,1.81Z"/><path class="i" d="M88.37,365.37l-.28.25c-.4-.36-.82-.53-1.24-.51-.43.02-1.41.29-2.94.81l-10.31,3.51-.29-.32,5.26-11.43c.36-.76.54-1.27.55-1.54,0-.27-.12-.6-.38-.99l.28-.25,3.42,3.83-.28.25c-.43-.41-.74-.65-.91-.72-.17-.08-.37-.02-.59.18-.07.07-.18.21-.33.43-.14.22-.28.46-.41.74l-.93,1.92,3.54,3.96c1.37-.48,2.2-.78,2.48-.9.29-.12.5-.24.63-.35.26-.23.34-.49.26-.79-.06-.18-.23-.47-.52-.85l.28-.25,2.7,3.03ZM78.61,362.33l-2.63,5.47,5.72-2.01-3.09-3.46Z"/><path class="i" d="M61.93,354.96l.31-.23c.51.59.92.92,1.23.98.3.06.75-.13,1.34-.58l5.17-3.93c.85-.64,1.42-1.26,1.72-1.85.53-1.09.34-2.24-.57-3.44-1.01-1.32-2.12-1.88-3.35-1.66-.69.12-1.54.57-2.57,1.36l-4.2,3.19c-.88.67-1.35,1.19-1.41,1.57-.06.38.1.88.49,1.52l-.31.23-2.83-3.73.31-.23c.54.57,1,.87,1.38.88.38.01.99-.3,1.84-.95l4.2-3.19c1.11-.85,2.11-1.34,3-1.47,1.63-.24,3.12.52,4.47,2.29,1.33,1.75,1.67,3.37,1.01,4.87-.35.81-1.03,1.59-2.03,2.35l-5.05,3.84c-.58.44-.89.82-.91,1.13-.03.31.17.78.59,1.43l-.31.23-3.5-4.6Z"/><path class="i" d="M61.13,337.86c.58-.78.97-1.52,1.17-2.2.35-1.19.2-2.29-.45-3.29-.35-.54-.83-.9-1.43-1.07-.6-.17-1.21-.06-1.83.34-.56.36-.91.88-1.06,1.55-.09.43-.13,1.24-.1,2.42l.04,2.06c0,.62-.05,1.15-.16,1.6-.23.83-.67,1.46-1.32,1.88-.86.56-1.77.74-2.71.54-.95-.2-1.72-.77-2.34-1.72-.25-.39-.46-.92-.64-1.59-.17-.67-.28-1.04-.33-1.12-.14-.21-.28-.33-.43-.34-.15-.02-.33,0-.53.08l-.23-.35,3.39-2.73.26.4c-.92.99-1.39,1.94-1.42,2.84-.03.9.15,1.65.54,2.26.3.47.71.79,1.21.96.5.17,1,.1,1.49-.22.44-.29.73-.66.87-1.14.14-.47.21-1.11.19-1.89l-.05-2.11c-.03-1.32.07-2.33.3-3.02.24-.69.7-1.26,1.37-1.69.89-.58,1.86-.73,2.9-.44,1.04.28,1.9.95,2.58,2,.34.53.6,1.14.77,1.85.17.7.29,1.1.34,1.18.13.2.28.29.45.28.17-.01.34-.06.5-.13l.24.38-3.3,2.88-.26-.4Z"/><path class="i" d="M45.13,330.16l-5.55-10.07,2.98-1.73.23.42c-.84.73-1.31,1.34-1.42,1.82-.11.48.12,1.24.69,2.27l.53.97,9.13-5.03c.69-.38,1.06-.72,1.1-1.02.05-.3-.1-.82-.44-1.56l.33-.18,2.84,5.17-.33.18c-.48-.73-.86-1.13-1.15-1.21-.29-.08-.83.09-1.6.51l-8.92,4.91.53.97c.55.99,1.06,1.59,1.54,1.79.48.2,1.25.13,2.31-.22l.23.42-3.06,1.59Z"/><path class="i" d="M48.91,309.61c-.39-.69-.72-1.07-1.01-1.16-.29-.08-.81.05-1.57.39l-8.04,3.62c-.65.29-1.03.58-1.14.87-.11.29-.04.78.21,1.48l-.35.16-2.31-5.15c-.48-1.07-.75-2.02-.8-2.86-.1-1.59.55-2.69,1.92-3.31.93-.42,1.77-.43,2.54-.05.77.38,1.46,1.05,2.08,2.02l2.97-5.93c.18-.36.28-.69.3-.99.02-.29-.03-.63-.16-1.02l.35-.16,1.34,2.99-3.62,7.22.41.78,3.65-1.64c.68-.31,1.07-.6,1.15-.89.09-.29,0-.8-.25-1.53l.35-.16,2.32,5.17-.35.16ZM39.68,306.12c-.85-.8-1.84-.95-2.96-.44-1.08.49-1.62,1.26-1.62,2.32,0,.57.17,1.24.52,2.02.24.52.42.83.55.91.13.08.33.06.61-.06l4.59-2.06c-.65-1.31-1.21-2.21-1.69-2.68Z"/><path class="i" d="M42.23,293.39l-.35.12c-.23-.48-.54-.78-.94-.92-.4-.14-1.41-.26-3.03-.38l-10.81-.75-.13-.39,9.24-8.52c.61-.57.97-.98,1.08-1.23.11-.25.11-.61.02-1.08l.35-.12,1.68,4.88-.35.12c-.24-.54-.43-.88-.56-1.02-.13-.14-.33-.16-.61-.06-.09.03-.25.12-.46.27-.21.14-.43.32-.66.52l-1.58,1.41,1.75,5.06c1.43.07,2.3.1,2.61.1.31,0,.55-.03.71-.08.32-.11.5-.32.54-.63.02-.19-.03-.52-.15-.99l.35-.12,1.31,3.8ZM34.45,286.83l-4.53,4.03,6.05.38-1.52-4.41Z"/><path class="i" d="M36.06,275.98c-.26-.71-.5-1.15-.74-1.32-.24-.17-.72-.17-1.46.02l-8.75,2.17c-.7.17-1.13.39-1.29.66-.16.27-.18.77-.05,1.52l-.38.09-1.38-5.59.38-.09c.22.72.46,1.18.72,1.38.26.2.72.22,1.37.06l9.46-2.34c.22-.05.38-.13.49-.24.11-.1.15-.29.12-.54-.02-.15-.04-.31-.08-.48-.03-.17-.11-.47-.22-.92-.43-1.75-.87-2.9-1.31-3.45-.44-.54-1.33-.96-2.65-1.24l-.12-.5,3.66.12,2.63,10.62-.38.09Z"/><path class="i" d="M32.36,259.93c-.2-.79-.41-1.29-.63-1.49-.23-.2-.72-.24-1.49-.11l-8.92,1.55c-.73.13-1.19.33-1.36.6-.17.27-.2.81-.1,1.62l-.38.07-1.02-5.85.38-.07c.18.79.39,1.29.65,1.49.25.2.75.24,1.48.11l8.92-1.55c.77-.13,1.22-.33,1.37-.6.14-.27.17-.81.09-1.62l.38-.07,1.02,5.85-.38.07Z"/><path class="i" d="M30.94,249.43l-.38.04c-.11-.51-.34-.88-.7-1.11-.36-.23-1.31-.58-2.85-1.07l-10.35-3.24-.04-.41,10.99-6.13c.73-.41,1.17-.72,1.33-.94.16-.22.25-.57.27-1.05l.38-.04.5,5.14-.38.04c-.11-.59-.21-.96-.3-1.12-.09-.16-.29-.23-.58-.2-.1.01-.27.06-.51.15-.24.09-.5.21-.76.35l-1.87,1,.51,5.31c1.38.4,2.22.64,2.52.71.3.07.54.1.71.09.34-.03.56-.19.67-.48.06-.18.09-.51.08-.99l.38-.04.39,3.99ZM24.89,241.26l-5.34,2.85,5.79,1.78-.45-4.63Z"/><path class="i" d="M28.91,231.06c-.08-.84-.26-1.39-.55-1.63-.29-.24-.97-.37-2.05-.38l-8.97-.1-.33.27c-.35.3-.57.55-.66.75-.08.21-.14.52-.15.94h-.38s.04-3.49.04-3.49l9.81-7.73-6.76-.07c-1.11-.01-1.84.14-2.18.47-.22.21-.37.69-.44,1.44h-.38s.05-4.77.05-4.77h.38c.07.78.26,1.3.55,1.56.3.26.98.4,2.04.41l10.71.12v.35s-11.26,8.87-11.26,8.87l7.92.09c1.11.01,1.84-.14,2.18-.46.22-.21.37-.68.46-1.42h.38s-.05,4.79-.05,4.79h-.38Z"/><path class="i" d="M20.2,182.79c.36-.72.55-1.12.57-1.21.04-.19.02-.38-.05-.57-.07-.19-.21-.34-.42-.45l.08-.42,4.52.68-.09.46c-.94.09-1.73.3-2.36.62-1.19.62-1.92,1.62-2.19,3-.27,1.4.06,2.64.99,3.75.93,1.1,2.37,1.84,4.31,2.22,1.78.35,3.3.16,4.55-.57,1.25-.72,2.01-1.8,2.29-3.23.2-1.03.14-2.03-.19-3-.18-.55-.5-1.19-.95-1.89l.44-.3c.47.55.85,1.19,1.15,1.93.5,1.26.62,2.54.36,3.84-.42,2.14-1.43,3.71-3.05,4.7-1.49.92-3.19,1.19-5.09.82-1.94-.38-3.46-1.31-4.54-2.79-1.13-1.56-1.5-3.37-1.1-5.44.14-.72.39-1.44.75-2.15Z"/><path class="i" d="M35.02,177.58l-.35-.11c.09-.52.01-.95-.24-1.3-.25-.35-1-1.04-2.25-2.07l-8.37-6.91.12-.4,12.49-1.55c.84-.1,1.37-.22,1.61-.36.23-.14.45-.43.65-.87l.35.11-1.48,4.95-.35-.11c.12-.59.17-.97.14-1.16-.02-.19-.18-.32-.47-.41-.1-.03-.27-.05-.54-.06-.26,0-.54,0-.85.04l-2.12.22-1.52,5.11c1.13.9,1.83,1.43,2.08,1.62.26.18.47.3.63.35.33.1.6.04.81-.19.13-.14.27-.43.45-.87l.35.11-1.15,3.86ZM32.5,167.7l-6.03.63,4.7,3.83,1.33-4.46Z"/><path class="i" d="M27.29,157.06l4.16-10.71,3.25,1.15-.17.45c-1.1-.17-1.86-.14-2.3.08-.44.23-.87.89-1.3,1.99l-.4,1.04,9.72,3.78c.73.28,1.22.35,1.49.19.26-.16.57-.61.92-1.34l.35.14-2.14,5.52-.35-.14c.25-.83.32-1.39.2-1.67-.12-.28-.59-.57-1.4-.89l-9.51-3.69-.4,1.04c-.41,1.05-.53,1.82-.38,2.32.15.5.7,1.04,1.65,1.62l-.18.47-3.17-1.34Z"/><path class="i" d="M45.54,146.7c.28-.75.36-1.26.27-1.53-.1-.27-.54-.6-1.33-.99l-7.9-3.92c-.66-.33-1.13-.44-1.43-.34-.3.1-.63.48-1.02,1.12l-.33-.16,2.5-5.05.33.16c-.28.69-.38,1.19-.28,1.48.1.3.48.61,1.13.94l3.56,1.77,2.76-5.57-3.56-1.77c-.66-.33-1.13-.44-1.43-.34-.29.1-.63.47-1.02,1.13l-.33-.16,2.5-5.05.33.16c-.28.7-.38,1.19-.28,1.49.1.3.48.61,1.14.93l8.11,4.02c.67.33,1.14.44,1.43.34.29-.11.63-.48,1.02-1.12l.33.16-2.5,5.05-.33-.16c.28-.75.38-1.27.27-1.54-.1-.27-.55-.6-1.34-.99l-3.54-1.75-2.76,5.57,3.75,1.86c.67.33,1.14.44,1.43.34s.63-.48,1.01-1.12l.33.16-2.5,5.05-.33-.16Z"/><path class="i" d="M45.36,122.07c-.36-1.69-.07-3.32.89-4.87.96-1.56,2.28-2.56,3.96-3,1.82-.47,3.65-.14,5.5.99,1.88,1.15,3,2.67,3.38,4.54.33,1.68.03,3.28-.9,4.79-1,1.62-2.37,2.63-4.13,3.03-1.79.4-3.56.06-5.32-1.02-1.85-1.13-2.97-2.62-3.37-4.47ZM54.63,125.98c1.31-.18,2.28-.8,2.93-1.84.63-1.02.74-2.16.34-3.4-.4-1.25-1.53-2.44-3.39-3.58-1.88-1.16-3.47-1.62-4.76-1.4-1.29.22-2.24.83-2.86,1.84-.64,1.04-.74,2.19-.32,3.44.43,1.25,1.55,2.44,3.37,3.56,1.82,1.12,3.38,1.58,4.69,1.4Z"/><path class="i" d="M63.84,114.5c.38-.65.55-1.12.53-1.41-.02-.29-.34-.66-.95-1.1l-7.34-5.36c-.58-.42-1.02-.61-1.33-.56-.31.05-.7.36-1.19.93l-.31-.22,3.39-4.65.31.22c-.41.63-.61,1.11-.59,1.44.02.33.3.69.84,1.09l7.9,5.77c.18.13.35.21.5.22.15.01.31-.07.49-.26.11-.11.21-.23.32-.37.1-.13.29-.39.57-.76,1.06-1.46,1.66-2.53,1.79-3.22.13-.69-.12-1.64-.77-2.84l.3-.42,2.27,2.88-6.44,8.82-.31-.22Z"/><path class="i" d="M73.7,101.39c.48-.67.72-1.16.73-1.47,0-.31-.29-.71-.9-1.21l-7.01-5.77c-.58-.48-1.03-.69-1.35-.64-.32.05-.76.38-1.31.98l-.28-.23,3.81-4.62.28.23c-.49.66-.73,1.15-.72,1.47.01.32.31.73.89,1.2l7.01,5.77c.61.5,1.06.72,1.36.65.3-.07.73-.4,1.3-.99l.28.23-3.81,4.62-.28-.23Z"/><path class="i" d="M77.41,77.44c.69-.42,1.06-.66,1.12-.73.13-.14.22-.31.25-.51.04-.2,0-.4-.12-.6l.28-.31,3.48,2.97-.32.34c-.85-.42-1.63-.66-2.33-.72-1.33-.1-2.48.36-3.43,1.39-.97,1.04-1.34,2.27-1.14,3.7.21,1.42,1.03,2.8,2.48,4.14,1.33,1.23,2.71,1.86,4.14,1.9,1.44.04,2.65-.47,3.64-1.54.71-.77,1.19-1.65,1.42-2.64.14-.57.2-1.27.2-2.1l.53-.02c.11.72.1,1.47-.04,2.25-.24,1.33-.81,2.48-1.71,3.45-1.48,1.6-3.17,2.39-5.06,2.38-1.75,0-3.33-.67-4.74-1.98-1.45-1.34-2.24-2.93-2.37-4.75-.14-1.92.51-3.65,1.94-5.2.5-.54,1.09-1.01,1.78-1.43Z"/><path class="i" d="M222.66,88.17c.56.59,1,.92,1.31.97.31.05.76-.17,1.34-.65l6.94-5.85c.57-.48.86-.88.87-1.2,0-.32-.23-.81-.73-1.46l.28-.24,3.67,4.35c1.05,1.24,1.68,2.4,1.89,3.47.22,1.07-.16,2.01-1.14,2.84-.73.62-1.51.83-2.32.64-.46-.11-1.01-.39-1.63-.84.43.86.65,1.71.68,2.56.02.84-.33,1.57-1.05,2.18-1.22,1.03-2.53,1.17-3.93.43-.74-.39-1.47-1.02-2.2-1.88l-4.27-5.06.28-.24ZM228.76,93.89c.76.28,1.58.04,2.46-.7.87-.74,1.2-1.55.99-2.45-.21-.9-.72-1.83-1.54-2.8-.2-.24-.33-.39-.38-.45-.05-.06-.13-.16-.24-.3l-3.88,3.27c-.27.23-.38.45-.33.67.05.22.31.6.77,1.15.67.79,1.39,1.33,2.15,1.61ZM233.24,89.24c.86.4,1.68.27,2.47-.4.93-.78,1.24-1.69.92-2.72-.18-.57-.62-1.28-1.34-2.13-.27-.32-.47-.5-.59-.53-.12-.03-.3.06-.55.27l-3.52,2.97,1.27,1.46c.45.51.9.87,1.34,1.08Z"/><path class="i" d="M233.71,101.64c.53.62.95.97,1.24,1.05.29.08.76-.11,1.38-.58l7.25-5.39c.6-.45.91-.83.94-1.15.03-.32-.18-.82-.64-1.5l.31-.23,3.55,4.77-.31.23c-.52-.63-.93-.98-1.25-1.04-.32-.06-.77.13-1.37.57l-7.25,5.39c-.63.47-.95.85-.95,1.16,0,.3.21.8.65,1.49l-.31.23-3.55-4.77.31-.23Z"/><path class="i" d="M243.61,109.02c-.57.79-.96,1.52-1.15,2.2-.35,1.19-.19,2.28.46,3.28.35.54.83.89,1.44,1.06.6.17,1.21.05,1.83-.36.56-.37.91-.88,1.06-1.55.09-.43.12-1.24.09-2.42l-.05-2.05c-.01-.62.04-1.15.16-1.59.23-.83.66-1.45,1.31-1.88.86-.57,1.76-.75,2.71-.56.95.19,1.73.76,2.35,1.7.25.39.47.91.65,1.58.18.66.29,1.03.34,1.11.14.21.28.32.43.34.15.02.32,0,.52-.08l.23.35-3.36,2.75-.26-.4c.91-.99,1.37-1.94,1.4-2.84.03-.9-.16-1.65-.55-2.25-.31-.47-.71-.79-1.22-.95-.5-.17-1-.09-1.49.23-.44.29-.73.67-.86,1.14-.14.47-.2,1.11-.18,1.89l.06,2.11c.04,1.32-.06,2.33-.29,3.03-.24.7-.69,1.26-1.36,1.7-.89.59-1.86.74-2.9.46-1.04-.28-1.9-.94-2.59-1.99-.35-.53-.61-1.14-.78-1.84-.17-.7-.29-1.1-.35-1.18-.13-.2-.28-.29-.46-.28-.17.01-.34.06-.5.13l-.25-.38,3.29-2.87.26.4Z"/><path class="i" d="M248.27,122.99c.45.65.82,1.01,1.1,1.09.28.07.8-.1,1.57-.52l7.72-4.23c.64-.35,1-.68,1.09-.97s-.03-.79-.34-1.46l.33-.18,2.7,4.93-.33.18c-.4-.62-.75-.98-1.05-1.07-.3-.09-.77.04-1.41.39l-3.47,1.9,2.95,5.38,3.47-1.9c.64-.35,1-.67,1.09-.97.09-.3-.03-.79-.34-1.47l.33-.18,2.7,4.93-.33.18c-.4-.63-.76-.98-1.05-1.07-.3-.09-.77.04-1.41.39l-7.93,4.35c-.65.35-1.01.68-1.09.97-.08.29.04.78.34,1.47l-.33.18-2.7-4.93.33-.18c.45.66.82,1.02,1.1,1.09.28.07.8-.11,1.58-.53l3.47-1.9-2.95-5.38-3.68,2.02c-.65.35-1.01.68-1.09.98-.08.3.03.78.34,1.46l-.33.18-2.7-4.93.33-.18Z"/><path class="i" d="M268.56,136.95c1.59.67,2.75,1.85,3.48,3.52.73,1.68.79,3.34.18,4.96-.66,1.76-1.98,3.07-3.97,3.93-2.02.87-3.91.92-5.66.15-1.57-.69-2.7-1.86-3.41-3.49-.76-1.75-.79-3.46-.11-5.12.7-1.69,2-2.95,3.89-3.77,1.99-.86,3.86-.92,5.6-.19ZM260.04,142.29c-.6,1.17-.66,2.32-.18,3.44.47,1.1,1.34,1.84,2.58,2.22,1.25.38,2.88.14,4.88-.72,2.03-.88,3.32-1.9,3.89-3.08.56-1.18.61-2.31.14-3.39-.48-1.12-1.36-1.86-2.63-2.23-1.27-.37-2.89-.13-4.85.72-1.96.85-3.24,1.86-3.84,3.03Z"/><path class="i" d="M264.13,156.52c.31.71.61,1.12.89,1.23.28.11.82.03,1.61-.23l8.38-2.77c.68-.22,1.09-.47,1.24-.75.15-.28.14-.77-.04-1.48l.35-.12,1.68,5.09c.54,1.63.63,2.99.28,4.07-.35,1.08-1.05,1.79-2.09,2.14-1.32.44-2.44.27-3.35-.5-.91-.77-1.61-1.87-2.09-3.32-.07-.21-.15-.48-.24-.81-.09-.33-.16-.57-.22-.73l-3.49,1.15c-.73.24-1.15.51-1.27.79-.11.29-.07.83.13,1.63l-.35.12-1.79-5.4.35-.12ZM277.65,159.28c.06-.63-.05-1.36-.33-2.2-.13-.4-.25-.63-.36-.69-.11-.07-.3-.05-.57.04l-5.05,1.67c.07.36.12.6.14.71.03.11.06.22.09.32.29.89.65,1.55,1.07,1.97.77.77,1.79.95,3.05.53,1.19-.39,1.84-1.17,1.94-2.34Z"/><path class="i" d="M272.51,171.11c-.8.55-1.42,1.11-1.83,1.69-.73,1.01-.95,2.09-.67,3.25.15.63.48,1.13,1,1.49.51.36,1.13.46,1.84.28.65-.16,1.15-.52,1.52-1.1.23-.38.53-1.12.9-2.24l.65-1.95c.2-.59.43-1.07.69-1.45.49-.71,1.12-1.15,1.87-1.34,1-.24,1.91-.11,2.74.39.83.5,1.37,1.3,1.64,2.4.11.45.13,1.02.08,1.71-.06.69-.08,1.07-.06,1.17.06.24.16.4.29.47.13.07.31.1.52.1l.1.4-4.1,1.44-.11-.47c1.19-.63,1.94-1.36,2.27-2.19.33-.83.41-1.6.24-2.29-.13-.54-.41-.98-.82-1.3-.42-.33-.91-.42-1.48-.28-.51.12-.91.38-1.2.78-.29.4-.56.97-.8,1.72l-.65,2c-.41,1.25-.84,2.17-1.29,2.75-.46.58-1.08.96-1.85,1.14-1.04.25-1.99.07-2.88-.55-.88-.61-1.47-1.53-1.77-2.75-.15-.61-.19-1.28-.12-2,.07-.72.1-1.13.07-1.23-.06-.23-.17-.37-.34-.41-.17-.04-.34-.06-.51-.04l-.1-.42,4.06-1.61.11.45Z"/><path class="i" d="M288,212.39c-.18.79-.26,1.22-.26,1.32.01.19.07.37.19.54.11.17.29.28.51.33l.02.42-4.54.42-.02-.46c.89-.32,1.6-.71,2.13-1.18,1-.89,1.46-2.04,1.39-3.45-.07-1.42-.69-2.56-1.86-3.41-1.17-.85-2.74-1.22-4.7-1.12-1.81.09-3.23.64-4.26,1.65-1.03,1.01-1.51,2.24-1.43,3.69.05,1.05.35,2.01.9,2.87.31.5.77,1.03,1.37,1.61l-.36.4c-.59-.42-1.12-.95-1.58-1.6-.78-1.1-1.21-2.32-1.28-3.65-.11-2.18.49-3.95,1.82-5.31,1.23-1.25,2.8-1.93,4.73-2.03,1.97-.1,3.66.44,5.07,1.62,1.47,1.24,2.27,2.92,2.37,5.04.04.73-.03,1.49-.21,2.28Z"/><path class="i" d="M286.72,223.9c1.14,1.3,1.68,2.86,1.6,4.69-.08,1.83-.74,3.35-2,4.54-1.36,1.3-3.12,1.9-5.29,1.81-2.2-.09-3.92-.87-5.17-2.32-1.11-1.31-1.63-2.85-1.55-4.62.08-1.9.79-3.46,2.13-4.66,1.37-1.22,3.09-1.79,5.15-1.7,2.17.09,3.88.85,5.13,2.26ZM276.7,225c-1.06.79-1.61,1.8-1.66,3.02-.05,1.19.4,2.24,1.36,3.13.96.89,2.53,1.38,4.72,1.47,2.22.09,3.83-.27,4.86-1.08,1.02-.82,1.56-1.81,1.61-2.99.05-1.21-.42-2.26-1.4-3.15-.99-.88-2.55-1.37-4.69-1.46-2.14-.09-3.73.26-4.79,1.06Z"/><path class="i" d="M274.28,239.48c-.03.84.08,1.41.34,1.68.26.28.92.49,1.98.64l8.87,1.23.36-.23c.39-.25.64-.47.75-.66.11-.2.2-.5.27-.91l.38.05-.48,3.45-10.7,6.42,6.68.93c1.1.15,1.84.09,2.21-.2.24-.19.45-.65.62-1.38l.38.05-.66,4.74-.38-.05c.03-.77-.09-1.31-.35-1.61-.26-.3-.92-.52-1.97-.66l-10.6-1.47.05-.35,12.28-7.36-7.83-1.09c-1.1-.15-1.84-.09-2.22.18-.24.18-.46.63-.64,1.34l-.38-.05.66-4.74.38.05Z"/><path class="i" d="M271.46,257.86c-.1.8-.07,1.32.09,1.56s.66.45,1.51.65l8.58,1.98c.7.16,1.18.16,1.44,0,.26-.16.51-.61.73-1.33l.38.09-2.43,10.54-2.85-.56.13-.54c.93.07,1.57-.06,1.89-.38.33-.32.62-1.04.88-2.16l.62-2.71c.06-.27.05-.44-.02-.54-.07-.09-.24-.17-.51-.23l-4.43-1.02-.66,2.85c-.19.84-.19,1.41,0,1.7.2.29.66.59,1.38.91l-.11.47-4.55-1.05.11-.47c.8.03,1.35-.05,1.65-.22.3-.17.55-.68.74-1.51l.66-2.85-4.34-1c-.72-.17-1.21-.16-1.46.02-.25.18-.49.63-.72,1.37l-.38-.09,1.28-5.54.38.09Z"/><path class="i" d="M267.88,272.64c-.15.73-.17,1.24-.06,1.5.11.27.53.52,1.26.75l8.63,2.74c.69.22,1.17.26,1.45.12.28-.14.56-.56.83-1.26l.35.11-3.28,10.3-2.79-.78.16-.5c.9.11,1.53.04,1.89-.21.35-.25.71-.94,1.07-2.07l.85-2.69c.09-.29.1-.48.03-.58-.07-.1-.23-.19-.48-.27l-4.32-1.37-.95,2.99c-.26.83-.31,1.4-.14,1.71.17.31.61.65,1.32,1.03l-.14.45-4.5-1.43.14-.45c.8.09,1.36.06,1.68-.09.32-.15.61-.64.87-1.47l.95-2.99-4.8-1.53c-.39-.12-.65-.07-.8.15-.15.22-.41.94-.8,2.16-.42,1.32-.59,2.34-.5,3.06.09.72.6,1.51,1.53,2.37l-.17.52-2.98-1.89,3.34-10.51.35.11Z"/><path class="i" d="M262.79,288.15c-.23.74-.28,1.25-.13,1.51.14.26.6.56,1.38.88l8.13,3.37c.66.27,1.13.35,1.41.24.28-.11.59-.5.93-1.15l.35.15-2.15,5.2c-.45,1.08-.96,1.92-1.53,2.53-1.09,1.15-2.33,1.44-3.72.86-.94-.39-1.53-.99-1.78-1.81-.25-.82-.24-1.78.04-2.89l-6.35,1.89c-.39.12-.7.27-.93.45-.23.18-.44.45-.63.81l-.35-.15,1.25-3.02,7.72-2.3.29-.83-3.69-1.53c-.69-.29-1.17-.36-1.44-.23-.27.13-.58.54-.94,1.23l-.35-.15,2.16-5.21.35.15ZM266.6,297.23c0,1.16.57,1.98,1.71,2.46,1.1.46,2.03.32,2.8-.4.41-.39.78-.97,1.11-1.76.22-.53.32-.87.29-1.02-.03-.15-.18-.28-.47-.4l-4.65-1.93c-.51,1.37-.78,2.39-.8,3.06Z"/><path class="i" d="M255.91,304.19c-.27.7-.37,1.19-.31,1.47.07.28.44.6,1.12.95l8.06,4.15c.64.33,1.11.45,1.41.36.3-.09.64-.46,1.03-1.1l.33.17-4.93,9.6-2.63-1.26.23-.45c.88.26,1.52.29,1.91.11.39-.19.87-.81,1.41-1.88l1.26-2.46c.14-.27.18-.45.12-.56-.05-.11-.2-.22-.44-.34l-4.06-2.09-1.43,2.78c-.4.77-.53,1.32-.42,1.64.12.33.49.73,1.12,1.22l-.22.42-4.15-2.13.22-.42c.77.22,1.32.29,1.65.19.33-.1.7-.53,1.09-1.29l1.43-2.78-4.48-2.3c-.36-.18-.63-.18-.81.01-.18.19-.56.86-1.14,1.99-.63,1.23-.96,2.2-1,2.92-.04.72.33,1.57,1.1,2.56l-.26.5-2.6-2.37,5.02-9.77.33.17Z"/><path class="i" d="M248.34,318.64c-.37.76-.49,1.31-.37,1.67.12.36.64.82,1.55,1.38l7.58,4.72.42-.06c.45-.07.77-.17.95-.3.18-.13.39-.37.62-.72l.33.21-1.82,2.92-12.45,1.54,5.75,3.57c.95.59,1.65.83,2.11.73.3-.07.68-.41,1.13-1l.33.21-2.52,4.05-.33-.21c.34-.7.46-1.24.34-1.62s-.63-.85-1.53-1.41l-9.08-5.64.18-.29,14.22-1.77-6.7-4.17c-.94-.59-1.64-.83-2.1-.73-.3.07-.67.39-1.13.98l-.33-.21,2.52-4.05.33.21Z"/><path class="i" d="M243.12,349.69c-.64.49-.98.78-1.04.85-.12.15-.18.33-.2.53-.02.2.05.4.19.58l-.26.35-3.78-2.58.28-.38c.89.32,1.69.48,2.4.46,1.34-.05,2.43-.63,3.26-1.77.84-1.14,1.08-2.41.71-3.81-.37-1.4-1.35-2.68-2.94-3.85-1.46-1.08-2.91-1.56-4.34-1.44-1.43.12-2.58.76-3.45,1.93-.62.85-1,1.77-1.12,2.79-.07.58-.06,1.28.04,2.12l-.53.08c-.19-.7-.26-1.45-.22-2.25.09-1.35.53-2.56,1.32-3.63,1.3-1.76,2.89-2.74,4.78-2.94,1.74-.19,3.39.3,4.95,1.45,1.59,1.18,2.56,2.67,2.9,4.47.35,1.9-.1,3.69-1.35,5.39-.44.59-.97,1.13-1.61,1.63Z"/><path class="i" d="M227.84,348.22c-.43.62-.65,1.08-.65,1.37,0,.29.29.69.87,1.18l6.88,5.9c.55.47.98.7,1.29.67.31-.02.74-.31,1.27-.85l.28.24-7.03,8.2-2.25-1.81.34-.4c.79.46,1.4.64,1.83.55.42-.09,1.02-.58,1.8-1.49l1.8-2.1c.19-.23.28-.4.25-.51-.03-.12-.14-.26-.34-.43l-3.46-2.97-2.02,2.36c-.56.66-.83,1.16-.79,1.51s.31.83.82,1.46l-.3.35-3.58-3.07.3-.35c.7.4,1.23.59,1.57.58.35-.01.8-.35,1.37-1l2.02-2.36-3.83-3.28c-.31-.26-.57-.32-.79-.18-.22.14-.74.7-1.57,1.66-.89,1.04-1.44,1.91-1.64,2.6-.2.69-.04,1.61.48,2.76l-.36.42-2-2.91,7.17-8.36.28.24Z"/><polygon class="i" points="152.73 69.19 157.76 84.73 174.1 84.71 160.87 94.3 165.94 109.83 152.73 100.21 139.52 109.83 144.59 94.3 131.36 84.71 147.7 84.73 152.73 69.19"/><polygon class="i" points="75.36 166.19 80.39 181.73 96.72 181.71 83.5 191.3 88.56 206.83 75.36 197.22 62.15 206.83 67.22 191.3 53.99 181.71 70.32 181.73 75.36 166.19"/><polygon class="i" points="228.6 166.94 233.63 182.49 249.96 182.47 236.73 192.06 241.8 207.59 228.6 197.97 215.39 207.59 220.46 192.06 207.23 182.47 223.56 182.49 228.6 166.94"/><polygon class="i" points="213.7 274.44 217.58 286.43 230.19 286.42 219.98 293.82 223.89 305.8 213.7 298.38 203.51 305.8 207.42 293.82 197.21 286.42 209.82 286.43 213.7 274.44"/><polygon class="i" points="153.86 329.24 158.89 344.78 175.23 344.77 162 354.35 167.07 369.89 153.86 360.27 140.66 369.89 145.72 354.35 132.49 344.77 148.83 344.78 153.86 329.24"/><path class="i" d="M153.36,52.06l-.49-.37c-.1-.07-9.88-7.48-26.82-11.9-14.99-3.91-29.14-5.24-29.28-5.26l.18-1.99c.14.01,14.44,1.36,29.6,5.31,15.39,4.02,24.82,10.3,27.04,11.89,3.12-1.46,18.97-8.78,29.03-11.88,9.78-3.01,27.17-5.3,27.34-5.32l.26,1.98c-.17.02-17.39,2.29-27.01,5.25-11,3.39-29.13,11.94-29.31,12.03l-.55.26Z"/><path class="i" d="M96.15,414.99l-.07-2c.15,0,15.21-.59,29.93-5.24,14.06-4.44,26.84-11.91,26.97-11.99l.46-.27.48.23c.18.09,18.3,8.64,29.31,12.03,9.62,2.96,26.84,5.23,27.01,5.25l-.26,1.98c-.17-.02-17.56-2.31-27.34-5.32-10.13-3.12-26.15-10.53-29.1-11.91-2.43,1.38-14.15,7.87-26.92,11.9-14.99,4.73-30.31,5.32-30.46,5.33Z"/><rect class="i" x="152.28" y="10.13" width="2.4" height="33.21"/><rect class="i" x="143.67" y="19.5" width="19.63" height="2.4"/><rect class="i" x="152.28" y="406.44" width="2.4" height="33.21"/><rect class="i" x="143.67" y="415.81" width="19.63" height="2.4"/></g></g></g></svg>