<?xml version="1.0" encoding="UTF-8"?><svg id="b" xmlns="http://www.w3.org/2000/svg" viewBox="0 0 472.94 167.7"><defs><style>.d{fill:#fff;stroke-width:0px;}</style></defs><g id="c"><path class="d" d="M93.98,113.36c-11.67,0-18.85-5.1-21.55-15.28-7.25,10.77-18.63,16.15-34.12,16.15-11.53,0-20.74-2.86-27.63-8.55C3.78,99.99.34,92.36.34,82.81c0-11.83,5.06-20.53,15.17-26.08,3.84-2.14,7.15-3.52,9.93-4.17,2.78-.64,8.38-1.46,16.79-2.46,11.95-1.28,19.76-3.05,23.39-5.34,3.63-2.28,5.45-6.48,5.45-12.61,0-5.83-2.03-10.43-6.1-13.78-4.07-3.35-9.74-5.03-17-5.03-6.41,0-12.41,1.78-17.97,5.34-2.14,1.43-3.2,2.92-3.2,4.48,0,.57.62,1.29,1.89,2.15,1.97,1.43,2.95,3.85,2.95,7.27,0,2.84-1.02,5.2-3.08,7.05-2.05,1.85-4.63,2.77-7.75,2.77-3.68,0-6.75-1.28-9.23-3.85-2.49-2.56-3.72-5.71-3.73-9.42,0-7.99,3.96-14.85,11.85-20.56C27.62,2.87,37.2,0,48.45,0c25.91,0,38.87,12.45,38.87,37.33v43.08c0,6.83.14,10.88.43,12.16.84,4.97,3.25,7.46,7.21,7.46,4.96,0,7.44-4.52,7.44-13.56v-10.39c0-4.52,2.15-6.78,6.45-6.78,4.59,0,6.88,3.42,6.89,10.27v13.26c-.29,13.69-7.54,20.54-21.75,20.53M70.21,70.78v-15.16c-3.11,2.85-6.41,4.83-9.89,5.97-3.48,1.15-9.68,2.14-18.62,3-16.17,1.56-24.25,7.54-24.25,17.92,0,5.41,1.96,9.68,5.88,12.81,3.91,3.14,9.22,4.69,15.92,4.69,9.54,0,17.05-2.59,22.53-7.79,5.48-5.19,8.3-12.34,8.44-21.45Z"/><path class="d" d="M184.76,39.96c0-5.67,3.47-8.94,10.43-9.79-.71-4.97-3.11-8.87-7.17-11.7-4.07-2.84-9.32-4.26-15.74-4.26-9.85,0-17.77,3.92-23.76,11.74-6,7.83-9,18.22-9,31.17,0,13.39,2.82,23.88,8.45,31.49,5.64,7.61,13.44,11.42,23.42,11.42,6.28,0,11.73-1.77,16.37-5.34,4.63-3.55,7.81-8.47,9.51-14.73,1.43-4.98,2.28-7.82,2.57-8.54,1.56-2.84,3.85-4.27,6.85-4.27,2.42,0,4.42.78,5.99,2.35,1.56,1.57,2.35,3.57,2.35,6,0,3.57-1.15,7.85-3.42,12.84-2.28,5-4.97,9.13-8.1,12.41-8.4,8.99-19.28,13.49-32.65,13.49-14.52,0-26.21-5.14-35.1-15.41-8.89-10.26-13.34-23.74-13.34-40.43,0-17.68,4.6-31.84,13.79-42.46,9.19-10.62,21.39-15.94,36.65-15.94,11.39,0,20.86,3.1,28.41,9.3,7.55,6.19,11.33,14.05,11.33,23.59,0,5.27-1.46,9.6-4.36,13.03-2.9,3.41-6.62,5.11-11.16,5.11-3.53,0-6.48-1.05-8.81-3.18-2.34-2.13-3.51-4.76-3.51-7.88"/><path class="d" d="M264.01,9.96v6.82C271.98,5.6,282.86,0,296.66,0s25.54,4.92,33.93,14.76c8.39,9.84,12.59,23.18,12.59,40.01,0,18.11-4.45,32.55-13.34,43.31-8.88,10.77-20.8,16.16-35.73,16.16-12.38,0-22.41-4.39-30.09-13.16l-.15,36.68c0,5.4.15,8.88.43,10.45.84,4.41,2.9,6.61,6.17,6.61.98,0,2.47-.22,4.46-.67,1.98-.44,3.47-.66,4.47-.66,4.53,0,6.8,2.36,6.8,7.1s-2.97,7.1-8.91,7.1c-2.12,0-5.31-.3-9.55-.9-3.11-.45-7.78-.67-14-.67-3.4,0-6.22.16-8.48.45-5.65.74-9.4,1.12-11.24,1.12-2.41,0-4.45-.74-6.16-2.22-1.69-1.49-2.54-3.21-2.54-5.2,0-4.52,2.39-6.79,7.18-6.79.84,0,2.18.19,4.02.57,2.39.5,4.15.75,5.28.75,2.66,0,4.33-1.39,4.96-4.15.63-2.77,1.16-29.44,1.3-42.08V26.34c-.14-6.53-1.96-9.81-5.48-9.81-.99,0-2.51.22-4.55.66-2.05.45-3.63.67-4.76.67-5.21,0-7.82-2.35-7.82-7.05s3.12-6.82,9.37-6.82c1.56,0,3.26.07,5.11.22,3.55.29,6.17.43,7.88.43,1.28,0,3.12-.1,5.54-.33,2.41-.21,4.19-.33,5.33-.33,3.55,0,5.32,1.99,5.32,5.97M267.21,35.99c-1.29,5.55-2.01,12.31-2.15,20.28,0,.57-.07,1.64-.21,3.2-.12,1.29-.12,2.28,0,2.99,0,9.54.78,16.48,2.35,20.81,1.57,4.35,4.67,8.22,9.31,11.63,4.64,3.42,10.39,5.13,17.23,5.13,10.26,0,18.22-3.73,23.86-11.21,5.63-7.47,8.45-18.11,8.46-31.91,0-28.47-10.14-42.7-30.39-42.7-6.85,0-12.94,2.07-18.3,6.2-5.35,4.12-8.75,9.32-10.16,15.58Z"/><path class="d" d="M451.18,113.37c-11.66,0-18.84-5.1-21.54-15.28-7.25,10.77-18.63,16.15-34.12,16.15-11.53,0-20.74-2.86-27.63-8.55-6.89-5.7-10.34-13.33-10.34-22.87,0-11.83,5.05-20.52,15.17-26.08,3.85-2.14,7.16-3.52,9.94-4.17,2.77-.64,8.37-1.46,16.78-2.46,11.97-1.28,19.77-3.06,23.4-5.34,3.63-2.28,5.45-6.48,5.45-12.61s-2.04-10.43-6.1-13.78c-4.07-3.35-9.74-5.02-17-5.03-6.42,0-12.41,1.78-17.97,5.34-2.13,1.43-3.21,2.92-3.21,4.48,0,.57.63,1.29,1.9,2.15,1.97,1.43,2.95,3.85,2.96,7.27,0,2.85-1.03,5.2-3.08,7.05-2.05,1.85-4.64,2.77-7.75,2.77-3.69,0-6.76-1.28-9.23-3.85-2.49-2.56-3.72-5.7-3.72-9.42,0-7.99,3.95-14.85,11.85-20.56,7.9-5.71,17.48-8.57,28.72-8.57,25.92,0,38.87,12.45,38.87,37.33v43.08c0,6.83.15,10.88.43,12.16.84,4.97,3.25,7.46,7.2,7.46,4.96,0,7.44-4.52,7.44-13.56v-10.39c0-4.52,2.15-6.78,6.47-6.78,4.58,0,6.87,3.42,6.87,10.27v13.26c-.29,13.69-7.54,20.54-21.76,20.54M427.42,70.78v-15.16c-3.12,2.85-6.43,4.84-9.9,5.97-3.48,1.15-9.68,2.14-18.62,3-16.17,1.56-24.25,7.54-24.25,17.92,0,5.41,1.96,9.68,5.88,12.81,3.91,3.13,9.22,4.69,15.91,4.69,9.54,0,17.06-2.59,22.54-7.79,5.48-5.19,8.29-12.34,8.44-21.45Z"/><path class="d" d="M5.64,136.22c-.61,0-1.03-.29-1.25-.88-.58.58-1.27.88-2.07.88-.71,0-1.27-.23-1.69-.7-.43-.46-.64-1.09-.64-1.88,0-.84.19-1.46.57-1.87.38-.42,1.03-.72,1.96-.91.5-.1.84-.22,1.02-.38.19-.15.27-.36.27-.67,0-.57-.21-.86-.63-.86-.25,0-.37.11-.37.33v.38c0,.29-.1.53-.29.72-.19.19-.43.29-.72.29-.37,0-.67-.13-.92-.4-.25-.27-.37-.6-.37-1.01,0-.6.25-1.07.74-1.43.5-.36,1.15-.54,1.97-.54.95,0,1.66.23,2.1.68.44.45.67,1.17.67,2.15v3.4c0,.39.06.58.2.58h.25c.36,0,.54.26.54.8,0,.37-.12.68-.38.94-.26.25-.57.38-.95.38ZM3.82,132.61v-.33l-.13.04-.5.15c-.39.11-.65.24-.79.38-.14.15-.21.36-.21.65,0,.56.23.84.7.84.27,0,.49-.1.67-.31.17-.2.26-.46.26-.79v-.64Z"/><path class="d" d="M11.81,135.69v-.45c-.61.64-1.26.95-1.98.95-1.39,0-2.08-.93-2.08-2.79v-3.29c0-.47-.09-.71-.26-.71h-.32c-.36,0-.54-.28-.54-.84,0-.74.29-1.11.84-1.11.12,0,.31.02.59.05.24.03.43.05.57.03l.69-.06s.06-.02.12-.02c.33,0,.49.16.49.46v4.81c0,.84.26,1.27.75,1.27.57,0,.85-.51.85-1.53v-2.35c0-.48-.09-.71-.26-.71h-.3c-.36,0-.55-.28-.55-.84,0-.32.08-.59.23-.79.15-.21.35-.32.6-.32.11,0,.28.02.5.05.22.03.39.05.5.05l.81-.08s.09-.02.17-.02c.34,0,.5.16.5.46v5.53c0,.48.09.72.26.72h.32c.36,0,.54.27.54.81,0,.32-.08.57-.23.77-.15.2-.35.29-.6.29-.11,0-.29-.02-.52-.04-.24-.03-.42-.05-.54-.05-.11,0-.31.02-.6.06-.03.02-.09.02-.15.02-.26,0-.39-.11-.39-.34Z"/><path class="d" d="M16.95,127.31c.48,0,1.03.21,1.66.63.08-.4.33-.59.74-.59.55,0,.82.22.81.66v1.68c.02.46-.23.68-.74.68-.3,0-.5-.03-.61-.09-.1-.06-.22-.22-.34-.46-.26-.49-.57-.74-.95-.74-.5,0-.76.22-.76.65,0,.26.09.43.28.54.19.11.59.23,1.21.37,1.01.22,1.65.63,1.91,1.23.19.4.27.85.27,1.36,0,.88-.24,1.58-.73,2.12-.49.54-1.12.81-1.88.81-.68,0-1.29-.27-1.83-.81-.06.38-.29.57-.71.57-.56,0-.83-.25-.81-.75l.05-.91v-.75c0-.11-.02-.17-.02-.19,0-.49.28-.74.83-.74.3,0,.51.04.63.12.12.08.23.27.35.58.23.63.6.94,1.11.94.55,0,.83-.26.83-.76,0-.41-.26-.67-.79-.79l-.73-.16c-1.38-.29-2.07-1.14-2.07-2.54,0-.8.22-1.45.64-1.94.43-.5.98-.74,1.66-.74Z"/><path class="d" d="M23.96,129.83v3.81c0,.29.09.43.29.43.22,0,.33-.19.33-.59v-.96c0-.51.22-.77.67-.77.33,0,.57.11.69.33.12.22.19.62.19,1.22,0,.75-.09,1.33-.26,1.74-.33.77-.96,1.16-1.91,1.16-.65,0-1.18-.21-1.59-.63-.4-.42-.6-.98-.6-1.68v-4.05c0-.35-.1-.53-.3-.53h-.42c-.46,0-.69-.29-.69-.84,0-.39.05-.66.17-.81.12-.15.34-.22.65-.22h.3c.19,0,.29-.1.29-.31v-1.29c0-.53.37-.79,1.12-.79.42,0,.7.06.84.17.15.12.22.34.22.67v1.23c0,.21.13.31.4.31h.77c.55,0,.82.32.82.95,0,.36-.05.6-.16.73-.11.13-.29.2-.54.2h-.71c-.26,0-.43.02-.5.09-.05.05-.08.2-.08.44Z"/><path class="d" d="M29.23,127.83v.37c.5-.59,1.05-.88,1.63-.88.43,0,.8.19,1.09.58.29.39.43.88.43,1.46,0,.49-.1.89-.32,1.21-.21.31-.48.47-.81.47-.28,0-.52-.12-.7-.35-.19-.22-.28-.5-.28-.84,0-.17.03-.39.1-.63-.51.4-.76,1.34-.76,2.83v1.26c0,.53.07.8.21.8h.46c.16,0,.3.09.42.27.11.18.17.4.17.66,0,.28-.08.51-.22.7-.15.19-.33.28-.56.28-.12,0-.33-.02-.64-.09h-.81c-.3,0-.57.02-.81.04-.35.03-.59.05-.71.05-.24,0-.44-.1-.6-.3-.15-.19-.22-.46-.22-.77,0-.55.19-.83.56-.83h.33c.18,0,.26-.23.26-.71v-3.34c0-.48-.08-.72-.22-.72-.03,0-.09,0-.16.02-.08,0-.14.02-.19.02-.38,0-.57-.31-.57-.92,0-.68.26-1.02.77-1.02.11,0,.27.02.48.05.21.03.36.04.48.04.18,0,.38-.02.6-.05.12-.02.19-.03.23-.03.22,0,.33.13.33.39Z"/><path class="d" d="M38.18,136.22c-.62,0-1.03-.29-1.25-.88-.58.58-1.27.88-2.07.88-.71,0-1.27-.23-1.7-.7-.42-.46-.63-1.09-.63-1.88,0-.84.19-1.46.57-1.87.37-.42,1.03-.72,1.96-.91.5-.1.83-.22,1.01-.38.19-.15.28-.36.28-.67,0-.57-.21-.86-.64-.86-.25,0-.37.11-.37.33v.38c0,.29-.1.53-.29.72-.19.19-.43.29-.73.29-.36,0-.67-.13-.91-.4-.25-.27-.37-.6-.37-1.01,0-.6.25-1.07.74-1.43.49-.36,1.15-.54,1.97-.54.95,0,1.65.23,2.09.68.45.45.67,1.17.67,2.15v3.4c0,.39.07.58.2.58h.26c.36,0,.54.26.54.8,0,.37-.13.68-.38.94-.26.25-.57.38-.95.38ZM36.36,132.61v-.33l-.13.04-.5.15c-.39.11-.65.24-.79.38-.14.15-.21.36-.21.65,0,.56.24.84.71.84.26,0,.49-.1.66-.31.18-.2.26-.46.26-.79v-.64Z"/><path class="d" d="M42.08,124.48c.32,0,.47.2.47.6v8.33c0,.47.09.71.27.71h.3c.36,0,.53.27.53.81,0,.74-.28,1.1-.84,1.1-.12,0-.36-.02-.71-.05-.23-.02-.49-.04-.77-.04-.13,0-.34.02-.62.05-.28.02-.49.04-.62.04-.54,0-.81-.36-.81-1.08,0-.55.18-.83.53-.83h.32c.18,0,.27-.24.27-.71v-6.31c0-.48-.08-.72-.22-.72-.04,0-.1,0-.18.02-.09.02-.14.02-.17.02-.4,0-.59-.3-.59-.91,0-.68.26-1.02.79-1.02.11,0,.34.02.69.07.28.03.5.04.67.02l.64-.09h.05Z"/><path class="d" d="M49.39,136.22c-.61,0-1.03-.29-1.25-.88-.58.58-1.27.88-2.07.88-.7,0-1.27-.23-1.69-.7-.43-.46-.63-1.09-.63-1.88,0-.84.19-1.46.57-1.87.38-.42,1.03-.72,1.96-.91.5-.1.84-.22,1.02-.38.19-.15.27-.36.27-.67,0-.57-.21-.86-.64-.86-.25,0-.37.11-.37.33v.38c0,.29-.1.53-.29.72-.19.19-.43.29-.72.29-.37,0-.67-.13-.92-.4-.25-.27-.37-.6-.37-1.01,0-.6.25-1.07.74-1.43.5-.36,1.15-.54,1.97-.54.95,0,1.66.23,2.1.68.44.45.67,1.17.67,2.15v3.4c0,.39.06.58.2.58h.25c.36,0,.54.26.54.8,0,.37-.12.68-.38.94-.26.25-.57.38-.95.38ZM47.57,132.61v-.33l-.13.04-.5.15c-.39.11-.65.24-.79.38-.14.15-.21.36-.21.65,0,.56.23.84.71.84.27,0,.49-.1.67-.31.17-.2.26-.46.26-.79v-.64Z"/><path class="d" d="M53.35,127.31c.48,0,1.04.21,1.67.63.08-.4.32-.59.74-.59.55,0,.81.22.81.66v1.68c0,.46-.23.68-.74.68-.3,0-.5-.03-.61-.09-.11-.06-.22-.22-.34-.46-.26-.49-.58-.74-.96-.74-.5,0-.75.22-.75.65,0,.26.09.43.28.54.19.11.58.23,1.2.37,1.01.22,1.65.63,1.92,1.23.18.4.27.85.27,1.36,0,.88-.25,1.58-.74,2.12-.49.54-1.12.81-1.87.81-.68,0-1.29-.27-1.84-.81-.05.38-.29.57-.7.57-.57,0-.84-.25-.81-.75l.05-.91v-.75c0-.11-.02-.17-.02-.19,0-.49.27-.74.82-.74.3,0,.52.04.64.12.12.08.23.27.34.58.24.63.61.94,1.12.94.55,0,.82-.26.82-.76,0-.41-.26-.67-.79-.79l-.72-.16c-1.39-.29-2.08-1.14-2.08-2.54,0-.8.22-1.45.65-1.94.43-.5.98-.74,1.65-.74Z"/><path class="d" d="M59.93,127.44c.31,0,.46.21.46.62v5.32c0,.48.09.72.27.72h.3c.36,0,.54.28.54.83,0,.74-.27,1.11-.81,1.11-.14,0-.34-.02-.6-.05-.26-.04-.46-.05-.6-.05-.26,0-.61.03-1.05.09-.12.02-.28.02-.48.02-.57,0-.87-.36-.87-1.1,0-.56.19-.84.56-.84h.33c.17,0,.26-.24.26-.71v-3.33c0-.47-.07-.71-.22-.71-.03,0-.09,0-.17.02-.08,0-.14.02-.19.02-.38,0-.57-.31-.57-.92,0-.68.26-1.02.76-1.02.12,0,.33.02.63.05.26.03.46.05.62.03l.83-.09ZM59.1,126.95c-.38,0-.69-.14-.93-.42-.25-.28-.36-.64-.36-1.08s.12-.81.36-1.1c.24-.28.54-.43.91-.43s.68.15.94.44c.25.29.37.65.37,1.08s-.12.78-.36,1.07c-.25.29-.56.43-.93.43Z"/><path class="d" d="M67.24,136.22c-.62,0-1.04-.29-1.25-.88-.58.58-1.28.88-2.07.88-.71,0-1.28-.23-1.7-.7s-.63-1.09-.63-1.88c0-.84.19-1.46.56-1.87.38-.42,1.03-.72,1.97-.91.49-.1.83-.22,1.01-.38.19-.15.28-.36.28-.67,0-.57-.22-.86-.64-.86-.25,0-.36.11-.36.33v.38c0,.29-.1.53-.29.72-.19.19-.44.29-.73.29-.36,0-.67-.13-.92-.4-.24-.27-.36-.6-.36-1.01,0-.6.25-1.07.74-1.43.5-.36,1.15-.54,1.97-.54.95,0,1.65.23,2.09.68.44.45.67,1.17.67,2.15v3.4c0,.39.07.58.2.58h.26c.36,0,.53.26.53.8,0,.37-.12.68-.38.94s-.57.38-.94.38ZM65.41,132.61v-.33l-.13.04-.5.15c-.39.11-.65.24-.79.38-.14.15-.21.36-.21.65,0,.56.24.84.7.84.27,0,.5-.1.67-.31.18-.2.26-.46.26-.79v-.64Z"/><path class="d" d="M71.39,127.92v.36c.57-.7,1.23-1.05,1.98-1.05.66,0,1.19.24,1.59.71.4.48.6,1.13.6,1.95v3.5c0,.47.08.71.26.71h.32c.36,0,.54.28.54.83,0,.32-.08.58-.23.77-.15.2-.35.3-.6.3-.09,0-.29-.02-.59-.05-.2-.02-.4-.04-.6-.04-.12,0-.31.02-.56.05-.25.02-.43.04-.56.04-.46,0-.7-.33-.7-.99,0-.43.1-.7.29-.81.2-.12.29-.36.29-.74v-2.66c0-.91-.26-1.36-.77-1.36-.55,0-.82.5-.82,1.51v2.46c0,.41.09.67.28.77.19.11.27.35.27.71,0,.74-.24,1.1-.74,1.1-.13,0-.33-.02-.58-.04-.26-.03-.45-.05-.58-.05-.12,0-.31.02-.56.05-.25.02-.43.04-.55.04-.55,0-.83-.36-.83-1.08,0-.55.19-.83.56-.83h.33c.18,0,.26-.23.26-.71v-3.34c0-.48-.08-.72-.22-.72-.04,0-.09,0-.17.02-.08,0-.14.02-.19.02-.38,0-.57-.31-.57-.92,0-.68.26-1.02.77-1.02.08,0,.22.02.43.04.33.03.57.05.73.05.07,0,.16,0,.28-.02.12,0,.21-.02.28-.02.25,0,.36.14.36.43Z"/><path class="d" d="M84.27,130.29c0-.23.07-.46.22-.69-.17-.26-.36-.38-.57-.38-.37,0-.67.22-.91.69-.24.46-.36,1.05-.36,1.79s.11,1.36.31,1.82c.21.46.49.69.84.69.38,0,.65-.32.81-.96.09-.38.21-.64.36-.79.15-.15.36-.22.64-.22.67,0,1.01.4,1.01,1.18s-.27,1.44-.81,1.98-1.22.82-2,.82c-1.02,0-1.83-.38-2.42-1.12-.59-.75-.88-1.77-.88-3.07,0-1.46.31-2.63.92-3.48.6-.85,1.44-1.28,2.49-1.28.74,0,1.36.25,1.87.74.5.49.75,1.08.75,1.8,0,.45-.12.81-.34,1.08-.23.26-.53.4-.92.4-.3,0-.54-.09-.73-.28-.19-.19-.28-.43-.28-.73Z"/><path class="d" d="M92.75,136.22c-.62,0-1.03-.29-1.25-.88-.58.58-1.27.88-2.07.88-.7,0-1.27-.23-1.69-.7-.43-.46-.63-1.09-.63-1.88,0-.84.19-1.46.57-1.87.37-.42,1.03-.72,1.96-.91.5-.1.84-.22,1.02-.38.19-.15.27-.36.27-.67,0-.57-.21-.86-.64-.86-.25,0-.37.11-.37.33v.38c0,.29-.1.53-.29.72-.19.19-.43.29-.73.29-.36,0-.67-.13-.91-.4-.25-.27-.37-.6-.37-1.01,0-.6.25-1.07.74-1.43.5-.36,1.15-.54,1.97-.54.95,0,1.66.23,2.1.68.44.45.67,1.17.67,2.15v3.4c0,.39.06.58.2.58h.25c.36,0,.54.26.54.8,0,.37-.13.68-.38.94-.26.25-.57.38-.95.38ZM90.93,132.61v-.33l-.13.04-.5.15c-.39.11-.66.24-.79.38-.14.15-.21.36-.21.65,0,.56.23.84.7.84.27,0,.49-.1.67-.31.17-.2.26-.46.26-.79v-.64Z"/><path class="d" d="M97.08,129.83v3.81c0,.29.09.43.29.43.22,0,.33-.19.33-.59v-.96c0-.51.22-.77.67-.77.33,0,.57.11.69.33.12.22.19.62.19,1.22,0,.75-.09,1.33-.26,1.74-.33.77-.96,1.16-1.91,1.16-.65,0-1.18-.21-1.59-.63-.4-.42-.6-.98-.6-1.68v-4.05c0-.35-.1-.53-.3-.53h-.42c-.46,0-.69-.29-.69-.84,0-.39.05-.66.17-.81.12-.15.34-.22.65-.22h.3c.19,0,.29-.1.29-.31v-1.29c0-.53.37-.79,1.12-.79.42,0,.7.06.84.17.15.12.22.34.22.67v1.23c0,.21.13.31.4.31h.77c.55,0,.82.32.82.95,0,.36-.05.6-.16.73-.11.13-.29.2-.54.2h-.71c-.26,0-.43.02-.5.09-.05.05-.08.2-.08.44Z"/><path class="d" d="M102.49,125.17v2.95c.45-.57,1.03-.84,1.74-.84.63,0,1.12.26,1.49.77.36.52.54,1.23.54,2.13v3.23c0,.47.08.71.26.71h.32c.36,0,.54.28.54.83,0,.72-.27,1.08-.81,1.08-.12,0-.31-.02-.55-.04-.25-.03-.43-.05-.56-.05s-.31.02-.57.05c-.25.02-.44.04-.57.04-.51,0-.77-.36-.77-1.06,0-.39.09-.64.28-.74.19-.11.28-.34.28-.7v-2.39c0-.62-.06-1.05-.18-1.3-.12-.24-.32-.36-.61-.36-.55,0-.83.6-.83,1.8v2.17c0,.26.02.43.05.5.03.07.13.15.29.24.2.12.3.39.3.82,0,.69-.23,1.03-.7,1.03-.12,0-.29-.02-.53-.04-.23-.03-.41-.05-.53-.05-.15,0-.36.02-.65.05-.29.02-.5.04-.65.04-.54,0-.82-.36-.82-1.08,0-.55.17-.83.52-.83h.33c.18,0,.26-.24.26-.71v-6.31c0-.48-.07-.72-.22-.72h-.08s-.06,0-.09,0c-.09.02-.15.02-.18.02-.4,0-.59-.3-.59-.91,0-.68.26-1.02.77-1.02.12,0,.32.02.61.05.26.03.46.05.6.03l.66-.09h.09c.38,0,.57.23.57.69Z"/><path class="d" d="M110.73,136.25c-1.05,0-1.85-.39-2.43-1.17-.58-.77-.87-1.87-.87-3.29s.29-2.56.87-3.34c.58-.78,1.4-1.18,2.46-1.18s1.84.38,2.4,1.15c.57.76.85,1.82.85,3.2,0,1.49-.29,2.63-.85,3.43-.57.8-1.38,1.2-2.43,1.2ZM110.76,129.33c-.73,0-1.11.76-1.14,2.28v.19c0,.74.09,1.32.29,1.74.19.43.46.64.81.64.74,0,1.1-.81,1.1-2.43,0-.75-.09-1.34-.28-1.77-.19-.43-.45-.65-.78-.65Z"/><path class="d" d="M116.99,124.48c.32,0,.47.2.47.6v8.33c0,.47.09.71.27.71h.3c.36,0,.54.27.54.81,0,.74-.29,1.1-.84,1.1-.12,0-.36-.02-.71-.05-.24-.02-.5-.04-.77-.04-.14,0-.34.02-.63.05-.28.02-.49.04-.62.04-.54,0-.81-.36-.81-1.08,0-.55.17-.83.52-.83h.32c.18,0,.27-.24.27-.71v-6.31c0-.48-.07-.72-.22-.72-.05,0-.11,0-.19.02-.08.02-.13.02-.17.02-.39,0-.59-.3-.59-.91,0-.68.26-1.02.79-1.02.12,0,.35.02.69.07.29.03.51.04.67.02l.64-.09h.05Z"/><path class="d" d="M121.32,127.44c.32,0,.47.21.47.62v5.32c0,.48.09.72.27.72h.3c.36,0,.53.28.53.83,0,.74-.27,1.11-.81,1.11-.13,0-.33-.02-.6-.05-.26-.04-.46-.05-.6-.05-.26,0-.61.03-1.05.09-.12.02-.27.02-.47.02-.58,0-.87-.36-.87-1.1,0-.56.19-.84.56-.84h.33c.17,0,.26-.24.26-.71v-3.33c0-.47-.08-.71-.22-.71-.03,0-.09,0-.16.02-.08,0-.14.02-.19.02-.38,0-.57-.31-.57-.92,0-.68.25-1.02.76-1.02.11,0,.32.02.62.05.26.03.46.05.63.03l.82-.09ZM120.5,126.95c-.39,0-.7-.14-.94-.42-.24-.28-.36-.64-.36-1.08s.12-.81.36-1.1c.24-.28.54-.43.91-.43s.68.15.94.44c.26.29.38.65.38,1.08s-.12.78-.37,1.07c-.25.29-.56.43-.92.43Z"/><path class="d" d="M126.77,130.29c0-.23.07-.46.22-.69-.16-.26-.36-.38-.57-.38-.36,0-.67.22-.91.69-.23.46-.36,1.05-.36,1.79s.11,1.36.32,1.82c.2.46.48.69.83.69.39,0,.65-.32.81-.96.09-.38.2-.64.35-.79.15-.15.36-.22.64-.22.67,0,1.01.4,1.01,1.18s-.27,1.44-.81,1.98c-.55.55-1.21.82-2,.82-1.02,0-1.83-.38-2.42-1.12-.59-.75-.88-1.77-.88-3.07,0-1.46.31-2.63.92-3.48.61-.85,1.44-1.28,2.49-1.28.74,0,1.36.25,1.87.74.5.49.75,1.08.75,1.8,0,.45-.11.81-.34,1.08-.23.26-.53.4-.92.4-.3,0-.54-.09-.73-.28s-.28-.43-.28-.73Z"/><path class="d" d="M137.98,136.24c-.48,0-1.05-.26-1.73-.79v1.39c0,.21.02.35.06.43.05.07.14.11.29.11.04,0,.12-.02.27-.06.15-.04.26-.05.33-.05.45,0,.67.32.67.97s-.25.97-.75.97c-.2,0-.5-.02-.91-.05-.4-.03-.7-.05-.9-.05-.08,0-.52.02-1.31.09-.17,0-.32.02-.44.02-.56,0-.84-.35-.84-1.04,0-.6.22-.9.67-.9.12,0,.2,0,.26.03.05.02.12.03.2.03.16,0,.23-.23.23-.7v-6.72c0-.22-.02-.38-.05-.44-.04-.07-.13-.11-.26-.11h-.12c-.37,0-.56-.26-.56-.8,0-.74.22-1.11.64-1.11.1,0,.25.02.45.05.21.03.36.05.46.05.09,0,.32-.04.67-.11h.17c.27,0,.4.15.4.43v.53c.6-.72,1.28-1.08,2.02-1.08.81,0,1.46.39,1.93,1.15.46.77.7,1.83.7,3.15s-.24,2.49-.71,3.34c-.46.84-1.08,1.26-1.85,1.26ZM137.34,129.35c-.34,0-.6.21-.8.63-.2.42-.29.98-.29,1.67s.09,1.29.29,1.73c.19.44.44.66.75.66.69,0,1.03-.81,1.03-2.42,0-1.51-.33-2.27-.98-2.27Z"/><path class="d" d="M143.79,127.83v.37c.5-.59,1.05-.88,1.63-.88.43,0,.8.19,1.09.58.29.39.44.88.44,1.46,0,.49-.11.89-.33,1.21-.21.31-.48.47-.81.47-.28,0-.51-.12-.7-.35-.19-.22-.28-.5-.28-.84,0-.17.03-.39.1-.63-.5.4-.76,1.34-.76,2.83v1.26c0,.53.07.8.22.8h.46c.16,0,.3.09.42.27.12.18.17.4.17.66,0,.28-.07.51-.22.7-.15.19-.33.28-.56.28-.11,0-.33-.02-.64-.09h-.81c-.3,0-.57.02-.81.04-.35.03-.58.05-.7.05-.25,0-.45-.1-.6-.3-.15-.19-.23-.46-.23-.77,0-.55.19-.83.56-.83h.33c.18,0,.26-.23.26-.71v-3.34c0-.48-.07-.72-.22-.72-.03,0-.09,0-.17.02-.08,0-.14.02-.19.02-.38,0-.57-.31-.57-.92,0-.68.26-1.02.77-1.02.12,0,.27.02.48.05.21.03.37.04.48.04.18,0,.38-.02.6-.05.12-.02.19-.03.24-.03.21,0,.32.13.32.39Z"/><path class="d" d="M152.74,132.25h-3.42v.27c0,1.22.36,1.82,1.09,1.82.5,0,.83-.29.98-.88.08-.32.18-.53.29-.62.12-.09.33-.13.63-.13.71,0,1.06.36,1.06,1.08s-.27,1.28-.81,1.74c-.53.46-1.2.69-2.01.69-1.08,0-1.92-.38-2.52-1.12-.6-.75-.9-1.8-.9-3.15,0-1.46.29-2.61.86-3.42.58-.82,1.39-1.23,2.42-1.23.94,0,1.67.35,2.22,1.03.55.69.83,1.61.83,2.77,0,.46-.05.77-.16.93-.1.16-.29.24-.57.24ZM149.43,130.54h1.85v-.19c0-.35-.08-.63-.24-.84-.15-.22-.36-.33-.63-.33-.6,0-.93.45-.98,1.36Z"/><path class="d" d="M156.48,127.31c.48,0,1.03.21,1.66.63.08-.4.33-.59.74-.59.54,0,.81.22.81.66v1.68c0,.46-.24.68-.74.68-.3,0-.5-.03-.61-.09-.1-.06-.22-.22-.34-.46-.26-.49-.57-.74-.95-.74-.5,0-.75.22-.75.65,0,.26.09.43.27.54.19.11.59.23,1.21.37,1.01.22,1.65.63,1.92,1.23.18.4.26.85.26,1.36,0,.88-.24,1.58-.73,2.12-.49.54-1.12.81-1.88.81-.68,0-1.29-.27-1.83-.81-.06.38-.29.57-.71.57-.56,0-.83-.25-.81-.75l.05-.91v-.75c0-.11-.02-.17-.02-.19,0-.49.28-.74.83-.74.3,0,.51.04.63.12.12.08.23.27.35.58.23.63.6.94,1.11.94.55,0,.83-.26.83-.76,0-.41-.26-.67-.79-.79l-.73-.16c-1.38-.29-2.07-1.14-2.07-2.54,0-.8.22-1.45.64-1.94.43-.5.98-.74,1.66-.74Z"/><path class="d" d="M162.87,127.31c.49,0,1.04.21,1.67.63.08-.4.33-.59.74-.59.55,0,.82.22.81.66v1.68c.02.46-.23.68-.74.68-.3,0-.5-.03-.61-.09-.1-.06-.22-.22-.34-.46-.26-.49-.57-.74-.95-.74-.5,0-.76.22-.76.65,0,.26.09.43.28.54.19.11.59.23,1.21.37,1.01.22,1.65.63,1.91,1.23.18.4.27.85.27,1.36,0,.88-.24,1.58-.73,2.12-.49.54-1.12.81-1.88.81-.68,0-1.29-.27-1.84-.81-.05.38-.29.57-.7.57-.56,0-.83-.25-.81-.75l.05-.91v-.75c0-.11-.02-.17-.02-.19,0-.49.28-.74.83-.74.3,0,.51.04.63.12.12.08.23.27.35.58.23.63.6.94,1.11.94.55,0,.83-.26.83-.76,0-.41-.26-.67-.8-.79l-.72-.16c-1.38-.29-2.07-1.14-2.07-2.54,0-.8.21-1.45.64-1.94.43-.5.98-.74,1.65-.74Z"/><path class="d" d="M176.19,136.22c-.61,0-1.03-.29-1.25-.88-.58.58-1.27.88-2.07.88-.71,0-1.27-.23-1.69-.7-.43-.46-.64-1.09-.64-1.88,0-.84.19-1.46.57-1.87.38-.42,1.03-.72,1.96-.91.5-.1.84-.22,1.02-.38.19-.15.28-.36.28-.67,0-.57-.22-.86-.64-.86-.25,0-.37.11-.37.33v.38c0,.29-.09.53-.29.72-.19.19-.43.29-.72.29-.37,0-.67-.13-.92-.4-.25-.27-.37-.6-.37-1.01,0-.6.25-1.07.74-1.43.5-.36,1.15-.54,1.97-.54.95,0,1.66.23,2.1.68.44.45.67,1.17.67,2.15v3.4c0,.39.06.58.2.58h.25c.36,0,.54.26.54.8,0,.37-.12.68-.38.94-.26.25-.57.38-.95.38ZM174.38,132.61v-.33l-.14.04-.5.15c-.39.11-.65.24-.79.38-.14.15-.21.36-.21.65,0,.56.23.84.7.84.27,0,.49-.1.67-.31.17-.2.26-.46.26-.79v-.64Z"/><path class="d" d="M180.14,127.31c.48,0,1.04.21,1.67.63.08-.4.32-.59.74-.59.55,0,.81.22.81.66v1.68c0,.46-.23.68-.74.68-.3,0-.5-.03-.61-.09-.11-.06-.22-.22-.34-.46-.26-.49-.58-.74-.96-.74-.5,0-.75.22-.75.65,0,.26.09.43.28.54.19.11.58.23,1.2.37,1.01.22,1.65.63,1.92,1.23.18.4.27.85.27,1.36,0,.88-.25,1.58-.74,2.12-.49.54-1.12.81-1.87.81-.68,0-1.29-.27-1.84-.81-.05.38-.29.57-.71.57-.57,0-.84-.25-.81-.75l.05-.91v-.75c0-.11-.02-.17-.02-.19,0-.49.27-.74.82-.74.3,0,.52.04.63.12.12.08.23.27.34.58.24.63.61.94,1.12.94.55,0,.82-.26.82-.76,0-.41-.26-.67-.79-.79l-.72-.16c-1.39-.29-2.08-1.14-2.08-2.54,0-.8.22-1.45.65-1.94.43-.5.98-.74,1.65-.74Z"/><path class="d" d="M186.54,127.31c.48,0,1.03.21,1.66.63.08-.4.33-.59.74-.59.54,0,.81.22.81.66v1.68c0,.46-.24.68-.74.68-.3,0-.51-.03-.61-.09-.11-.06-.22-.22-.35-.46-.26-.49-.57-.74-.95-.74-.5,0-.75.22-.75.65,0,.26.09.43.28.54.18.11.58.23,1.2.37,1.01.22,1.65.63,1.92,1.23.18.4.26.85.26,1.36,0,.88-.24,1.58-.73,2.12-.49.54-1.12.81-1.87.81-.69,0-1.3-.27-1.84-.81-.06.38-.29.57-.71.57-.56,0-.83-.25-.81-.75l.05-.91v-.75c-.02-.11-.02-.17-.02-.19,0-.49.27-.74.82-.74.3,0,.51.04.63.12.12.08.24.27.35.58.23.63.6.94,1.11.94.55,0,.83-.26.83-.76,0-.41-.26-.67-.79-.79l-.73-.16c-1.38-.29-2.07-1.14-2.07-2.54,0-.8.22-1.45.64-1.94.43-.5.98-.74,1.66-.74Z"/><path class="d" d="M193.77,136.25c-1.05,0-1.85-.39-2.43-1.17-.58-.77-.87-1.87-.87-3.29s.29-2.56.87-3.34c.58-.78,1.4-1.18,2.46-1.18s1.84.38,2.4,1.15c.57.76.85,1.82.85,3.2,0,1.49-.29,2.63-.85,3.43-.57.8-1.38,1.2-2.43,1.2ZM193.8,129.33c-.73,0-1.11.76-1.14,2.28v.19c0,.74.09,1.32.29,1.74.19.43.46.64.81.64.74,0,1.1-.81,1.1-2.43,0-.75-.09-1.34-.28-1.77-.19-.43-.45-.65-.78-.65Z"/><path class="d" d="M201.37,130.29c0-.23.08-.46.22-.69-.17-.26-.36-.38-.57-.38-.37,0-.67.22-.91.69-.23.46-.35,1.05-.35,1.79s.1,1.36.31,1.82c.21.46.49.69.83.69.39,0,.65-.32.81-.96.08-.38.21-.64.35-.79.15-.15.36-.22.64-.22.67,0,1.01.4,1.01,1.18s-.27,1.44-.81,1.98c-.54.55-1.21.82-2,.82-1.01,0-1.82-.38-2.41-1.12-.59-.75-.88-1.77-.88-3.07,0-1.46.3-2.63.91-3.48.61-.85,1.44-1.28,2.5-1.28.74,0,1.36.25,1.87.74.5.49.76,1.08.76,1.8,0,.45-.12.81-.35,1.08-.23.26-.53.4-.91.4-.3,0-.55-.09-.74-.28-.19-.19-.28-.43-.28-.73Z"/><path class="d" d="M206.91,127.44c.32,0,.47.21.47.62v5.32c0,.48.09.72.27.72h.3c.36,0,.53.28.53.83,0,.74-.27,1.11-.81,1.11-.13,0-.33-.02-.6-.05-.27-.04-.47-.05-.6-.05-.26,0-.61.03-1.05.09-.11.02-.27.02-.47.02-.58,0-.87-.36-.87-1.1,0-.56.19-.84.56-.84h.33c.18,0,.26-.24.26-.71v-3.33c0-.47-.07-.71-.22-.71-.04,0-.09,0-.17.02-.08,0-.14.02-.19.02-.38,0-.57-.31-.57-.92,0-.68.26-1.02.76-1.02.11,0,.32.02.62.05.26.03.46.05.63.03l.82-.09ZM206.09,126.95c-.38,0-.7-.14-.94-.42-.24-.28-.36-.64-.36-1.08s.12-.81.36-1.1c.24-.28.55-.43.92-.43s.68.15.93.44c.26.29.38.65.38,1.08s-.12.78-.37,1.07c-.25.29-.55.43-.92.43Z"/><path class="d" d="M214.2,136.22c-.61,0-1.03-.29-1.25-.88-.58.58-1.27.88-2.07.88-.71,0-1.27-.23-1.69-.7-.43-.46-.64-1.09-.64-1.88,0-.84.19-1.46.57-1.87.38-.42,1.03-.72,1.96-.91.5-.1.84-.22,1.02-.38.19-.15.27-.36.27-.67,0-.57-.21-.86-.63-.86-.25,0-.37.11-.37.33v.38c0,.29-.1.53-.29.72-.19.19-.43.29-.72.29-.37,0-.67-.13-.92-.4-.25-.27-.37-.6-.37-1.01,0-.6.25-1.07.74-1.43.5-.36,1.15-.54,1.97-.54.95,0,1.66.23,2.1.68.44.45.67,1.17.67,2.15v3.4c0,.39.06.58.2.58h.25c.36,0,.54.26.54.8,0,.37-.12.68-.38.94-.26.25-.57.38-.95.38ZM212.38,132.61v-.33l-.13.04-.5.15c-.39.11-.65.24-.79.38-.14.15-.21.36-.21.65,0,.56.23.84.7.84.27,0,.49-.1.67-.31.17-.2.26-.46.26-.79v-.64Z"/><path class="d" d="M218.51,129.83v3.81c0,.29.09.43.29.43.22,0,.33-.19.33-.59v-.96c0-.51.22-.77.67-.77.33,0,.57.11.69.33.12.22.19.62.19,1.22,0,.75-.09,1.33-.26,1.74-.33.77-.96,1.16-1.91,1.16-.65,0-1.18-.21-1.59-.63-.4-.42-.6-.98-.6-1.68v-4.05c0-.35-.1-.53-.3-.53h-.42c-.46,0-.69-.29-.69-.84,0-.39.05-.66.17-.81.12-.15.33-.22.65-.22h.3c.19,0,.29-.1.29-.31v-1.29c0-.53.37-.79,1.12-.79.42,0,.7.06.84.17.15.12.22.34.22.67v1.23c0,.21.13.31.4.31h.77c.55,0,.82.32.82.95,0,.36-.05.6-.16.73-.11.13-.29.2-.54.2h-.7c-.26,0-.43.02-.5.09-.05.05-.09.2-.09.44Z"/><path class="d" d="M223.7,127.44c.31,0,.47.21.47.62v5.32c0,.48.09.72.26.72h.31c.36,0,.53.28.53.83,0,.74-.27,1.11-.81,1.11-.13,0-.33-.02-.6-.05-.26-.04-.46-.05-.6-.05-.26,0-.61.03-1.05.09-.12.02-.27.02-.47.02-.58,0-.87-.36-.87-1.1,0-.56.19-.84.55-.84h.33c.17,0,.26-.24.26-.71v-3.33c0-.47-.08-.71-.22-.71-.03,0-.09,0-.16.02-.08,0-.15.02-.19.02-.39,0-.57-.31-.57-.92,0-.68.25-1.02.76-1.02.11,0,.32.02.62.05.26.03.46.05.62.03l.83-.09ZM222.87,126.95c-.38,0-.69-.14-.93-.42-.24-.28-.36-.64-.36-1.08s.12-.81.36-1.1c.24-.28.54-.43.91-.43s.68.15.94.44c.25.29.38.65.38,1.08s-.12.78-.37,1.07c-.25.29-.56.43-.93.43Z"/><path class="d" d="M228.69,136.25c-1.04,0-1.85-.39-2.43-1.17-.57-.77-.87-1.87-.87-3.29s.29-2.56.87-3.34c.58-.78,1.4-1.18,2.47-1.18s1.83.38,2.39,1.15c.57.76.85,1.82.85,3.2,0,1.49-.29,2.63-.85,3.43-.57.8-1.37,1.2-2.43,1.2ZM228.73,129.33c-.73,0-1.12.76-1.15,2.28v.19c0,.74.1,1.32.29,1.74.2.43.46.64.81.64.74,0,1.11-.81,1.11-2.43,0-.75-.1-1.34-.29-1.77-.19-.43-.45-.65-.77-.65Z"/><path class="d" d="M235.19,127.92v.36c.57-.7,1.23-1.05,1.97-1.05.67,0,1.19.24,1.6.71.4.48.6,1.13.6,1.95v3.5c0,.47.09.71.26.71h.32c.36,0,.53.28.53.83,0,.32-.07.58-.22.77-.16.2-.35.3-.6.3-.09,0-.29-.02-.59-.05-.2-.02-.4-.04-.6-.04-.12,0-.31.02-.56.05-.25.02-.43.04-.56.04-.47,0-.7-.33-.7-.99,0-.43.1-.7.29-.81.19-.12.29-.36.29-.74v-2.66c0-.91-.26-1.36-.77-1.36-.55,0-.83.5-.83,1.51v2.46c0,.41.09.67.28.77.19.11.28.35.28.71,0,.74-.25,1.1-.74,1.1-.14,0-.33-.02-.58-.04-.26-.03-.45-.05-.58-.05-.12,0-.31.02-.56.05-.25.02-.43.04-.56.04-.55,0-.82-.36-.82-1.08,0-.55.19-.83.55-.83h.33c.17,0,.26-.23.26-.71v-3.34c0-.48-.08-.72-.22-.72-.03,0-.09,0-.16.02-.09,0-.15.02-.19.02-.39,0-.57-.31-.57-.92,0-.68.26-1.02.77-1.02.08,0,.22.02.43.04.33.03.57.05.73.05.06,0,.16,0,.28-.02.12,0,.21-.02.27-.02.25,0,.37.14.37.43Z"/><path class="d" d="M273.84,129.94l.49,3.26.81-5.07c.08-.46.32-.69.73-.69h.81c.45,0,.7.23.77.69l.72,5.07.64-3.26c0-.06.02-.13.02-.22,0-.17-.04-.28-.12-.31l-.3-.09c-.25-.07-.37-.35-.37-.84,0-.68.27-1.03.81-1.03.15,0,.32.02.53.05.31.02.5.03.59.03.15,0,.36-.02.6-.05.17-.02.33-.04.47-.04.55,0,.82.33.82.99,0,.61-.17.93-.5.95-.22,0-.34.07-.38.17-.04.1-.08.25-.12.44l-1.26,5.55c-.08.33-.31.5-.69.5-.08,0-.14,0-.17-.02-.36-.02-.53-.03-.5-.03l-.63.05c-.41,0-.66-.24-.74-.74l-.61-3.77-.67,3.9c-.07.41-.31.61-.73.61-.09,0-.15,0-.19-.02l-.53-.03-.61.05c-.36,0-.57-.19-.65-.6l-1.16-5.73c-.06-.26-.13-.38-.22-.38h-.16c-.37,0-.56-.29-.56-.88,0-.67.27-1.01.81-1.01.12,0,.29.02.53.05.15.02.35.03.57.03.12,0,.3,0,.53-.04.24-.03.42-.05.54-.05.5,0,.75.36.75,1.07,0,.43-.13.71-.4.82-.18.08-.26.19-.26.33,0,.1,0,.19.02.28Z"/><path class="d" d="M284.19,129.94l.49,3.26.81-5.07c.08-.46.32-.69.72-.69h.81c.45,0,.71.23.77.69l.73,5.07.64-3.26c.02-.06.02-.13.02-.22,0-.17-.04-.28-.12-.31l-.3-.09c-.25-.07-.37-.35-.37-.84,0-.68.27-1.03.81-1.03.14,0,.32.02.52.05.32.02.51.03.59.03.15,0,.36-.02.6-.05.17-.02.33-.04.47-.04.55,0,.83.33.83.99,0,.61-.17.93-.51.95-.21,0-.33.07-.37.17-.05.1-.09.25-.13.44l-1.26,5.55c-.08.33-.31.5-.69.5-.08,0-.13,0-.17-.02-.36-.02-.53-.03-.5-.03l-.62.05c-.42,0-.67-.24-.74-.74l-.6-3.77-.67,3.9c-.07.41-.31.61-.72.61-.09,0-.16,0-.19-.02l-.54-.03-.6.05c-.36,0-.58-.19-.66-.6l-1.16-5.73c-.05-.26-.12-.38-.22-.38h-.17c-.37,0-.55-.29-.55-.88,0-.67.26-1.01.81-1.01.11,0,.29.02.52.05.16.02.35.03.57.03.12,0,.3,0,.54-.04.23-.03.41-.05.53-.05.5,0,.76.36.76,1.07,0,.43-.13.71-.4.82-.18.08-.27.19-.27.33,0,.1,0,.19.02.28Z"/><path class="d" d="M294.55,129.94l.49,3.26.81-5.07c.08-.46.32-.69.72-.69h.81c.45,0,.7.23.77.69l.72,5.07.64-3.26c0-.06.02-.13.02-.22,0-.17-.04-.28-.12-.31l-.3-.09c-.25-.07-.37-.35-.37-.84,0-.68.27-1.03.81-1.03.15,0,.32.02.52.05.32.02.51.03.59.03.16,0,.36-.02.61-.05.16-.02.33-.04.47-.04.55,0,.82.33.82.99,0,.61-.17.93-.5.95-.22,0-.34.07-.38.17-.04.1-.08.25-.12.44l-1.26,5.55c-.08.33-.31.5-.69.5-.09,0-.14,0-.17-.02-.36-.02-.53-.03-.5-.03l-.63.05c-.41,0-.66-.24-.74-.74l-.61-3.77-.67,3.9c-.07.41-.31.61-.73.61-.09,0-.16,0-.19-.02l-.53-.03-.61.05c-.36,0-.57-.19-.65-.6l-1.16-5.73c-.06-.26-.13-.38-.22-.38h-.16c-.37,0-.56-.29-.56-.88,0-.67.27-1.01.81-1.01.12,0,.29.02.53.05.15.02.35.03.57.03.12,0,.3,0,.53-.04.23-.03.42-.05.54-.05.5,0,.75.36.75,1.07,0,.43-.13.71-.4.82-.18.08-.27.19-.27.33,0,.1,0,.19.02.28Z"/><path class="d" d="M303.69,136.24c-.41,0-.74-.17-1.01-.51-.26-.33-.4-.75-.4-1.25s.14-.91.42-1.25c.27-.34.61-.5,1.01-.5s.74.16.99.5c.26.33.39.75.39,1.27s-.13.92-.4,1.25c-.26.33-.6.5-1.01.5Z"/><path class="d" d="M311.57,136.22c-.62,0-1.04-.29-1.25-.88-.59.58-1.28.88-2.07.88-.71,0-1.28-.23-1.7-.7s-.63-1.09-.63-1.88c0-.84.19-1.46.56-1.87.38-.42,1.03-.72,1.97-.91.49-.1.83-.22,1.01-.38.19-.15.28-.36.28-.67,0-.57-.22-.86-.64-.86-.25,0-.36.11-.36.33v.38c0,.29-.1.53-.29.72-.19.19-.44.29-.73.29-.36,0-.67-.13-.92-.4-.24-.27-.36-.6-.36-1.01,0-.6.25-1.07.74-1.43.5-.36,1.15-.54,1.98-.54.95,0,1.65.23,2.09.68.44.45.67,1.17.67,2.15v3.4c0,.39.07.58.2.58h.26c.36,0,.53.26.53.8,0,.37-.12.68-.38.94-.25.25-.57.38-.95.38ZM309.75,132.61v-.33l-.13.04-.5.15c-.39.11-.65.24-.79.38-.14.15-.21.36-.21.65,0,.56.24.84.7.84.27,0,.5-.1.67-.31.18-.2.26-.46.26-.79v-.64Z"/><path class="d" d="M316.83,130.29c0-.23.07-.46.22-.69-.17-.26-.36-.38-.57-.38-.37,0-.67.22-.91.69-.24.46-.36,1.05-.36,1.79s.11,1.36.31,1.82c.21.46.49.69.84.69.38,0,.65-.32.81-.96.09-.38.21-.64.36-.79.15-.15.36-.22.64-.22.67,0,1.01.4,1.01,1.18s-.27,1.44-.82,1.98c-.54.55-1.21.82-1.99.82-1.02,0-1.83-.38-2.42-1.12-.59-.75-.88-1.77-.88-3.07,0-1.46.3-2.63.92-3.48.6-.85,1.44-1.28,2.49-1.28.74,0,1.36.25,1.87.74.51.49.76,1.08.76,1.8,0,.45-.12.81-.34,1.08-.23.26-.54.4-.92.4-.3,0-.54-.09-.73-.28-.19-.19-.28-.43-.28-.73Z"/><path class="d" d="M324.24,136.24c-.48,0-1.06-.26-1.74-.79v1.39c0,.21.02.35.07.43.05.07.14.11.29.11.03,0,.12-.02.27-.06.14-.04.26-.05.33-.05.45,0,.67.32.67.97s-.26.97-.76.97c-.2,0-.5-.02-.9-.05-.4-.03-.7-.05-.9-.05-.08,0-.52.02-1.32.09-.17,0-.31.02-.43.02-.57,0-.84-.35-.84-1.04,0-.6.22-.9.67-.9.11,0,.19,0,.26.03.05.02.12.03.2.03.16,0,.23-.23.23-.7v-6.72c0-.22-.02-.38-.06-.44-.04-.07-.12-.11-.26-.11h-.12c-.37,0-.56-.26-.56-.8,0-.74.21-1.11.64-1.11.1,0,.26.02.46.05.2.03.36.05.46.05.08,0,.31-.04.67-.11h.16c.27,0,.41.15.41.43v.53c.6-.72,1.28-1.08,2.01-1.08.82,0,1.46.39,1.93,1.15.46.77.7,1.83.7,3.15s-.23,2.49-.7,3.34c-.47.84-1.08,1.26-1.85,1.26ZM323.6,129.35c-.34,0-.6.21-.81.63-.19.42-.29.98-.29,1.67s.1,1.29.29,1.73c.19.44.44.66.76.66.68,0,1.03-.81,1.03-2.42,0-1.51-.33-2.27-.98-2.27Z"/><path class="d" d="M332.95,136.22c-.62,0-1.04-.29-1.25-.88-.59.58-1.28.88-2.08.88-.7,0-1.27-.23-1.69-.7-.42-.46-.63-1.09-.63-1.88,0-.84.19-1.46.56-1.87.38-.42,1.03-.72,1.97-.91.49-.1.83-.22,1.01-.38.19-.15.28-.36.28-.67,0-.57-.22-.86-.64-.86-.25,0-.37.11-.37.33v.38c0,.29-.09.53-.29.72-.19.19-.44.29-.73.29-.37,0-.67-.13-.92-.4-.24-.27-.36-.6-.36-1.01,0-.6.25-1.07.74-1.43.5-.36,1.15-.54,1.98-.54.95,0,1.65.23,2.09.68.44.45.67,1.17.67,2.15v3.4c0,.39.07.58.2.58h.26c.36,0,.53.26.53.8,0,.37-.12.68-.38.94-.25.25-.57.38-.95.38ZM331.12,132.61v-.33l-.13.04-.5.15c-.39.11-.65.24-.79.38-.14.15-.21.36-.21.65,0,.56.23.84.7.84.27,0,.5-.1.67-.31.18-.2.26-.46.26-.79v-.64Z"/><path class="d" d="M336.18,136.24c-.4,0-.74-.17-1-.51-.27-.33-.4-.75-.4-1.25s.14-.91.42-1.25c.27-.34.61-.5,1.01-.5s.74.16.99.5c.26.33.39.75.39,1.27s-.13.92-.4,1.25c-.26.33-.6.5-1.01.5Z"/><path class="d" d="M344.05,136.22c-.62,0-1.04-.29-1.25-.88-.58.58-1.27.88-2.07.88-.71,0-1.27-.23-1.7-.7-.42-.46-.63-1.09-.63-1.88,0-.84.19-1.46.57-1.87.37-.42,1.03-.72,1.96-.91.49-.1.83-.22,1.01-.38.19-.15.28-.36.28-.67,0-.57-.21-.86-.64-.86-.25,0-.37.11-.37.33v.38c0,.29-.1.53-.29.72-.19.19-.44.29-.73.29-.36,0-.67-.13-.92-.4-.24-.27-.36-.6-.36-1.01,0-.6.25-1.07.74-1.43.49-.36,1.15-.54,1.97-.54.95,0,1.65.23,2.09.68.45.45.67,1.17.67,2.15v3.4c0,.39.07.58.2.58h.26c.36,0,.53.26.53.8,0,.37-.12.68-.37.94-.26.25-.57.38-.95.38ZM342.23,132.61v-.33l-.13.04-.5.15c-.39.11-.65.24-.79.38-.14.15-.21.36-.21.65,0,.56.24.84.71.84.26,0,.49-.1.66-.31.18-.2.26-.46.26-.79v-.64Z"/><path class="d" d="M348.02,127.31c.48,0,1.03.21,1.66.63.08-.4.33-.59.74-.59.54,0,.81.22.81.66v1.68c0,.46-.24.68-.74.68-.3,0-.5-.03-.61-.09-.1-.06-.22-.22-.34-.46-.26-.49-.57-.74-.95-.74-.5,0-.75.22-.75.65,0,.26.09.43.27.54.19.11.59.23,1.21.37,1.01.22,1.65.63,1.92,1.23.18.4.26.85.26,1.36,0,.88-.24,1.58-.73,2.12-.49.54-1.12.81-1.87.81-.69,0-1.3-.27-1.84-.81-.06.38-.29.57-.71.57-.56,0-.83-.25-.81-.75l.05-.91v-.75c-.02-.11-.02-.17-.02-.19,0-.49.28-.74.83-.74.3,0,.51.04.63.12.12.08.23.27.35.58.23.63.6.94,1.11.94.55,0,.83-.26.83-.76,0-.41-.26-.67-.79-.79l-.73-.16c-1.38-.29-2.07-1.14-2.07-2.54,0-.8.22-1.45.64-1.94.43-.5.98-.74,1.66-.74Z"/><path class="d" d="M354.62,127.92v.36c.57-.7,1.23-1.05,1.98-1.05.66,0,1.19.24,1.59.71.4.48.6,1.13.6,1.95v3.5c0,.47.09.71.26.71h.32c.36,0,.54.28.54.83,0,.32-.08.58-.23.77-.15.2-.35.3-.6.3-.08,0-.29-.02-.59-.05-.2-.02-.4-.04-.6-.04-.12,0-.31.02-.56.05-.25.02-.43.04-.55.04-.47,0-.71-.33-.71-.99,0-.43.1-.7.29-.81.2-.12.29-.36.29-.74v-2.66c0-.91-.26-1.36-.77-1.36-.55,0-.82.5-.82,1.51v2.46c0,.41.09.67.28.77.19.11.28.35.28.71,0,.74-.25,1.1-.74,1.1-.13,0-.33-.02-.58-.04-.26-.03-.45-.05-.58-.05-.12,0-.31.02-.56.05-.25.02-.43.04-.55.04-.55,0-.83-.36-.83-1.08,0-.55.19-.83.56-.83h.33c.18,0,.26-.23.26-.71v-3.34c0-.48-.08-.72-.22-.72-.04,0-.09,0-.17.02-.08,0-.14.02-.19.02-.38,0-.57-.31-.57-.92,0-.68.26-1.02.77-1.02.08,0,.22.02.44.04.33.03.57.05.72.05.07,0,.16,0,.28-.02.12,0,.21-.02.28-.02.25,0,.36.14.36.43Z"/><path class="d" d="M361.67,136.24c-.4,0-.74-.17-1-.51-.26-.33-.4-.75-.4-1.25s.13-.91.41-1.25c.27-.34.61-.5,1.01-.5s.74.16,1,.5c.26.33.39.75.39,1.27s-.13.92-.4,1.25c-.26.33-.6.5-1.01.5Z"/><path class="d" d="M369.57,136.22c-.61,0-1.03-.29-1.25-.88-.58.58-1.27.88-2.07.88-.7,0-1.27-.23-1.69-.7-.43-.46-.64-1.09-.64-1.88,0-.84.19-1.46.57-1.87.38-.42,1.03-.72,1.96-.91.5-.1.84-.22,1.02-.38.19-.15.27-.36.27-.67,0-.57-.21-.86-.64-.86-.25,0-.37.11-.37.33v.38c0,.29-.1.53-.29.72-.19.19-.43.29-.72.29-.37,0-.67-.13-.92-.4-.25-.27-.37-.6-.37-1.01,0-.6.25-1.07.74-1.43.5-.36,1.15-.54,1.97-.54.95,0,1.66.23,2.1.68.44.45.67,1.17.67,2.15v3.4c0,.39.06.58.2.58h.25c.36,0,.54.26.54.8,0,.37-.12.68-.38.94-.26.25-.57.38-.95.38ZM367.75,132.61v-.33l-.13.04-.5.15c-.39.11-.65.24-.79.38-.14.15-.21.36-.21.65,0,.56.23.84.71.84.27,0,.49-.1.67-.31.17-.2.26-.46.26-.79v-.64Z"/><path class="d" d="M375.75,135.69v-.45c-.61.64-1.26.95-1.98.95-1.39,0-2.08-.93-2.08-2.79v-3.29c0-.47-.08-.71-.26-.71h-.32c-.36,0-.53-.28-.53-.84,0-.74.28-1.11.84-1.11.12,0,.31.02.59.05.24.03.43.05.57.03l.69-.06s.06-.02.12-.02c.33,0,.48.16.48.46v4.81c0,.84.26,1.27.75,1.27.57,0,.85-.51.85-1.53v-2.35c0-.48-.09-.71-.26-.71h-.3c-.36,0-.54-.28-.54-.84,0-.32.07-.59.22-.79.15-.21.35-.32.6-.32.12,0,.28.02.5.05.22.03.39.05.5.05l.81-.08s.09-.02.16-.02c.34,0,.5.16.5.46v5.53c0,.48.09.72.26.72h.32c.36,0,.54.27.54.81,0,.32-.08.57-.22.77-.16.2-.36.29-.6.29-.11,0-.29-.02-.52-.04-.23-.03-.42-.05-.53-.05s-.32.02-.61.06c-.03.02-.08.02-.15.02-.26,0-.39-.11-.39-.34Z"/></g></svg>