<?xml version="1.0" encoding="UTF-8"?><svg id="b" xmlns="http://www.w3.org/2000/svg" viewBox="0 0 1038.89 198.66"><defs><style>.d{letter-spacing:0em;}.e{font-family:ProximaNovaCond-Semibold, 'Proxima Nova Condensed';font-size:29.42px;font-weight:600;}.e,.f{fill:#fff;}.g{letter-spacing:-.05em;}.h{letter-spacing:0em;}.i{letter-spacing:-.02em;}.f{stroke-width:0px;}.j{letter-spacing:-.01em;}</style></defs><g id="c"><path class="f" d="M320.6,32.23c14.96,0,25.53,5.2,31.71,10.9,4.55,3.9,6.99,8.62,6.99,11.55,0,6.18-7.16,7.48-7.64,6.99-5.37-11.22-17.4-18.7-31.22-18.7-22.93,0-38.7,17.72-38.7,43.74s15.94,43.58,39.03,43.58c16.75,0,27.97-9.43,31.87-20.98.33-.49,8.13.65,8.13,6.83,0,3.25-2.6,8.78-7.97,13.66-6.34,5.85-17.56,11.22-32.52,11.22-30.73,0-51.22-22.28-51.22-54.15s20.81-54.64,51.55-54.64Z"/><path class="f" d="M430.36,93.7h1.79v-3.25c0-13.17-7.64-20.49-20.98-20.49-12.36,0-19.84,6.02-23.74,13.82-.33.16-7.15-.16-7.15-6.02,0-2.28,1.63-5.69,4.72-8.62,5.04-4.88,13.98-9.27,26.83-9.27,20.65,0,31.87,11.54,31.87,30.73v47.97c0,.49-2.11,1.3-4.23,1.3-3.42,0-6.18-1.63-6.83-7.48-.16-2.28-.33-4.72-.33-7.16-5.2,9.43-15.77,15.61-28.78,15.61-16.26,0-26.34-8.46-26.34-21.63,0-17.56,16.59-25.04,53.17-25.53ZM432.15,101.34l-2.76.16c-28.29.65-40.49,5.53-40.49,17.4,0,8.13,6.5,13.17,16.91,13.17,14.96,0,26.34-10.08,26.34-23.25v-7.48Z"/><path class="f" d="M473.61,116.63v-45.04h-7.64c-3.74,0-5.04-1.63-5.04-4.39v-1.14c0-2.76,1.3-4.39,5.04-4.39h7.64v-13.66c0-4.06,2.11-5.69,5.2-5.69h1.3c3.09,0,5.04,1.46,5.04,5.69v13.66h19.68c3.58,0,5.04,1.46,5.04,4.39v.98c0,2.93-1.46,4.55-5.2,4.55h-19.68v43.25c0,11.38,3.42,16.26,11.54,16.26,5.2,0,9.11-2.44,11.55-6.02.49-.33,3.25,1.3,3.25,5.37,0,1.95-.81,4.07-2.93,6.02-2.76,2.6-7.16,4.55-13.5,4.55-14.31,0-21.3-7.97-21.3-24.39Z"/><path class="f" d="M597.85,93.7v40.49c0,4.23-2.11,5.53-5.04,5.53h-1.46c-3.09,0-5.2-1.3-5.2-5.53v-39.68c0-14.96-7.32-24.07-20.49-24.07-13.82,0-23.74,9.43-23.9,23.9v39.84c0,4.23-2.11,5.53-5.04,5.53h-1.46c-3.09,0-5.2-1.3-5.2-5.53V29.63c0-.49,1.95-1.3,4.23-1.3,3.74,0,7.48,1.95,7.48,10.41v37.08c4.88-9.59,13.98-15.94,26.18-15.94,20.16,0,29.92,13.82,29.92,33.82Z"/><path class="f" d="M625.16,134.19V40.85c0-4.39,2.11-7.32,6.02-7.32h2.28c3.74,0,5.53,1.79,7.81,5.2l56.91,81.14V39.06c0-3.74,1.46-5.53,5.04-5.53h1.46c3.42,0,5.04,1.79,5.04,5.53v93.5c0,4.39-2.28,7.16-5.85,7.16h-.98c-3.9,0-5.04-1.14-6.99-4.07l-59.35-84.4v82.93c0,3.58-1.63,5.53-5.04,5.53h-1.46c-3.42,0-4.88-1.95-4.88-5.53Z"/><path class="f" d="M771.18,59.88c21.63,0,35.61,15.29,35.61,38.21v1.14c0,2.76-1.14,3.74-4.07,3.74h-58.7c0,.65,0,1.46.16,2.28,1.46,15.61,12.68,26.02,28.29,26.02,14.47,0,21.3-6.83,25.21-14.31.65-.33,6.67.98,6.67,6.18,0,2.44-1.95,6.18-6.18,9.59-4.88,4.23-13.82,8.29-25.86,8.29-23.58,0-39.51-16.42-39.51-40.17s16.1-40.98,38.38-40.98ZM771.18,69.31c-14.15,0-24.72,10.41-26.83,25.2h50.9c-.65-15.12-9.92-25.2-24.07-25.2Z"/><path class="f" d="M840.62,135.98l-18.86-71.71c-.16-.65,3.42-3.42,6.67-3.42,2.6.16,5.37,1.79,6.5,7.15l13.82,60.17,16.42-51.39c.81-3.09,2.93-4.39,7.64-4.39s6.67,1.3,7.64,4.39l16.26,51.22,13.66-60c1.14-5.69,4.23-7.15,6.67-6.99,3.42,0,6.34,2.76,6.34,3.25l-18.86,71.71c-.65,2.93-2.76,4.07-7.64,4.07s-6.34-1.14-7.48-4.39l-16.75-50.9-17.07,50.9c-.98,3.25-2.44,4.39-7.32,4.39s-6.83-1.14-7.64-4.07Z"/><path class="f" d="M937.2,125.08c0-4.06,4.55-5.85,5.04-5.69,4.88,6.99,13.66,12.2,26.34,12.2s19.35-5.2,19.35-12.85c0-9.11-8.46-10.89-21.63-13.82-11.87-2.44-26.83-5.85-26.83-21.63,0-13.82,11.54-23.42,29.43-23.42,12.52,0,20.98,4.07,25.37,8.78,1.79,1.79,2.93,4.23,2.93,6.18,0,4.07-4.72,6.18-5.04,5.85-4.23-6.5-12.68-11.55-23.09-11.55-11.87,0-18.7,5.37-18.7,12.85,0,8.46,8.13,10.41,20.98,13.33,12.68,2.76,27.97,6.18,27.97,22.12,0,14.15-11.87,23.58-30.9,23.58-12.68,0-21.46-3.74-26.51-8.13-3.25-2.76-4.72-5.37-4.72-7.81Z"/><text class="e" transform="translate(272.2 185.62)"><tspan x="0" y="0">A MINI</tspan><tspan class="h" x="74.45" y="0">S</tspan><tspan x="88.45" y="0">T</tspan><tspan class="j" x="102.04" y="0">R</tspan><tspan x="117.34" y="0">Y OF THE </tspan><tspan class="i" x="227.94" y="0">A</tspan><tspan x="243.21" y="0">U</tspan><tspan class="h" x="260.63" y="0">S</tspan><tspan x="274.63" y="0">TRALIAN </tspan><tspan class="d" x="378.88" y="0">C</tspan><tspan class="g" x="394.88" y="0">A</tspan><tspan x="409.26" y="0">THOLIC BISHOPS CONFERENCE</tspan></text><path class="f" d="M231.97,108.76c-1.35-9.06-2.7-14.24-10.79-25.89-8.09-11.65-20.23-24.6-21.58-29.78-1.35-5.18-5.39-25.89-5.39-25.89,0,0-4.05-3.88-6.74-3.88S178.03,0,178.03,0c0,0-2.7,1.29-5.39,6.47-2.7,5.18-6.74,19.42-6.74,19.42,0,0,1.35,6.47-4.05,9.06-5.39,2.59-1.35,5.18-10.79-1.29-9.44-6.47-16.18-7.77-16.18-12.95s1.35-6.47,1.35-10.36-12.14-14.24-21.58-7.77c-9.44,6.47-16.18,14.24-22.93,15.54-6.74,1.29-10.79-1.29-10.79-1.29,0,0-6.74-3.88-16.18,9.06-9.44,12.95-17.53,25.89-21.58,27.19-4.05,1.29-26.97,9.09-32.37,13.61-5.39,4.52-10.79,5.81-10.79,12.29s2.7,11.65,5.39,19.42c2.7,7.77,5.39,12.95,5.39,12.95,0,0,10.79,15.54,9.44,20.72-1.35,5.18-7.98,7.4-4.66,12.11,3.31,4.72,6.01,11.19,16.8,7.31,10.79-3.88,57.99-22.01,57.99-22.01,0,0,14.3-5.75,23.55.89.41.14.78.28,1.13.43-.68-19.08.49-36.21,3.22-51.91-17.03.63-38.3.75-63.19-.43,24.27-6.5,45.65-9.28,65.09-9.16,2.06-9.26,4.66-18.04,7.75-26.44,0,0,.27,9.44-.55,26.62,13.31.59,25.73,2.56,37.54,5.65,0,0-13.57,2.15-38.04,3.39-.94,15.22-2.67,34.94-5.82,58.37,6.03,9.13,7.5,12.9,11.11,9.43,4.05-3.88,9.44-10.36,16.18,3.88,6.74,14.24,5.39,19.42,20.23,19.42s24.88,3.88,35.37-7.77c10.49-11.65,23.98-34.96,23.98-34.96,0,0,5.39-9.06,4.05-18.13Z"/><path class="f" d="M165.67,180.4c-1.35,5.18,1.35,7.77,0,14.42-1.35,6.65,2.7,3.71,10.79-1.47,8.09-5.18,5.39-10.36,5.15-12.95-.24-2.59-15.94,0-15.94,0Z"/></g></svg>