<?xml version="1.0" encoding="UTF-8"?><svg id="b" xmlns="http://www.w3.org/2000/svg" viewBox="0 0 470.05 477.88"><defs><style>.d{fill:#00195f;}.d,.e,.f,.g,.h,.i,.j,.k,.l,.m,.n,.o,.p,.q,.r,.s,.t,.u,.v,.w,.x,.y,.z,.aa,.ab,.ac,.ad,.ae,.af,.ag,.ah,.ai,.aj,.ak,.al,.am,.an,.ao,.ap,.aq,.ar,.as,.at,.au,.av,.aw,.ax,.ay,.az,.ba,.bb,.bc,.bd,.be,.bf,.bg,.bh,.bi,.bj,.bk,.bl,.bm,.bn,.bo,.bp,.bq,.br,.bs,.bt,.bu,.bv,.bw,.bx,.by{fill-rule:evenodd;stroke-width:0px;}.e{fill:#003;}.f{fill:#031f6c;}.g{fill:#039;}.h{fill:#452312;}.i{fill:#0aa98e;}.j{fill:#4367c7;}.k{fill:#373059;}.l{fill:#0b498e;}.m{fill:#27e0c0;}.n{fill:#2a78cd;}.o{fill:#838383;}.p{fill:#837c6e;}.q{fill:#566cd2;}.r{fill:#2c2747;}.s{fill:#3a90db;}.t{fill:#3b3635;}.u{fill:#343354;}.v{fill:#52517b;}.w{fill:#60bfff;}.x{fill:#713d22;}.y{fill:#5f5f5f;}.z{fill:#62598e;}.aa{fill:#868082;}.ab{fill:#85c2f7;}.ac{fill:#da1066;}.ad{fill:#ce7c56;}.ae{fill:#d02e74;}.af{fill:#ceab8b;}.ag{fill:#d7e5ea;}.ah{fill:#bfd8df;}.ai{fill:#a9a9a9;}.aj{fill:#bedaeb;}.ak{fill:#a7c4e4;}.al{fill:#a48263;}.am{fill:#a9cbf3;}.an{fill:#d2e9f6;}.ao{fill:#d8eaff;}.ap{fill:#d0deff;}.aq{fill:#c00;}.ar{fill:#e09684;}.as{fill:#c5dffe;}.at{fill:#d1e7f4;}.au{fill:#dda274;}.av{fill:#ffd22e;}.aw{fill:#ffa92e;}.ax{fill:#ffaa83;}.ay{fill:#f90;}.az{fill:red;}.ba{fill:#e8faff;}.bb{fill:#e3e2e2;}.bc{fill:#e8b588;}.bd{fill:#fff;}.be{fill:#fffbf0;}.bf{fill:#edf2ff;}.bg{fill:#eef6ff;}.bh{fill:#f60;}.bi{fill:#ff65a7;}.bj{fill:#9188bc;}.bk{fill:#826448;}.bl{fill:#b58866;}.bm{fill:#8ec2ff;}.bn{fill:#b7b7b7;}.bo{fill:#8c6e54;}.bp{fill:#92d7ff;}.bq{fill:#87264f;}.br{fill:#ed9870;}.bs{fill:#f0f7ff;}.bt{fill:#bc4074;}.bu{fill:#333;}.bv{fill:#f3faff;}.bw{fill:#fabd00;}.bx{fill:#f7c99c;}</style></defs><g id="c"><path class="bx" d="M430.8,222.55l8.5,4.9v5.2l-54.25,31.45h-.25v-.1l-8.35.1v-.1l54.35-31.35v-5.2l-1.35-.85,1.35-.8v-3.25ZM315.85,242.92l-1.7.98-.75-2.4,2.45,1.42ZM280.17,269.97c.12-.65.61-1.22,1.48-1.72l26.38-15.2,11.77,37.6,3.65.3,4.5-2.5-4.05-13.4,23.75-13.7,3.75,11.85,3.65.2,4.55-2.5-1.27-4.08c4.24,2.88,5.07,5.07,2.47,6.58l-32.05,18.5c-3.53,2.03-9.78.83-18.75-3.6l-9.85-5,.05-.85-20.03-12.48ZM178.6,310.6l-.1,5v6.3l50.75,28.9,67.9-39.1v-1.15l-.05-4.95v-1.85l12.4,7.15-67.55,39c-4.09,1.12-7.8,2.72-11.15,4.8-.58.36-1.13.73-1.65,1.1l-53.35-30.77-27.42,15.82c-.03-.71-.08-1.41-.12-2.1-.03-.8-.08-1.6-.15-2.4-.27-3.13-.58-6.23-.95-9.3-.31-2.55-.67-5.09-1.07-7.6l32.57-18.65-.05,4.85v4.95ZM289.88,369.53c.19-.93.26-1.89.23-2.88-.11-3.05-1.26-5.82-3.45-8.3l10.23-5.72c.19.21.38.4.58.58.97.9,1.72,1.2,2.25.9l26.45-14.8c.51-.29.67-1.03.47-2.22.27.4.52.82.78,1.27.87,1.57,1.42,3.02,1.65,4.35.27,1.33.13,2.15-.4,2.45l-26.45,14.8c-.53.3-1.3,0-2.3-.9-.17-.17-.32-.33-.45-.5l-9.1,5.1c3.67,3.17,5.57,6.83,5.7,11,.23,5.97-3.28,11.2-10.55,15.7-7.23,4.5-16.08,6.95-26.55,7.35-10.43.33-19.42-1.48-26.95-5.45-7.53-4-11.42-8.98-11.65-14.95-.05-1.88.26-3.69.92-5.42-.08.66-.1,1.34-.07,2.03.2,5.47,3.73,10.03,10.6,13.7,6.87,3.63,15.05,5.28,24.55,4.95,9.5-.3,17.55-2.52,24.15-6.65,6.6-4.1,9.8-8.92,9.6-14.45-.02-.65-.1-1.29-.23-1.92ZM123.35,411.85c0,.21,0,.43,0,.65-.1,1.73-.32,3.45-.65,5.15l-1.2.8c-5.67,1.4-9.22,2.6-10.65,3.6-1.33.97-1.85,1.67-1.55,2.1,2.1,6.07,6.88,8.18,14.35,6.35,1.23-.43,2.5-.65,3.8-.65l.65,1.75c2.13.7,4.03.88,5.7.55,2-.47,3.6-1.72,4.8-3.75,1.03-.93,1.58-2.27,1.65-4-.43-6.93-1.02-13.53-1.75-19.8,3.8,1.63,7.33,3.93,10.6,6.9.43.43.9.73,1.4.9.87.27,1.82.22,2.85-.15,1.1-.5,1.73-1.35,1.9-2.55.17-.79.33-1.58.48-2.38l6.98,3.97c5.13,2.97,5.98,5.45,2.55,7.45l-31.5,18.15c-3.5,2.03-7.82,1.6-12.95-1.3l-11.6-6.75c-5.13-2.93-5.97-5.4-2.5-7.4l16.65-9.6ZM76.1,382.58c-.06-.18-.13-.35-.2-.53-1.17-2.9-3.67-5.45-7.5-7.65-5.5-3.13-12.07-4.7-19.7-4.7s-14.4,1.58-19.9,4.75c-.57.34-1.11.69-1.62,1.05l-27.17-15.7,13.7-7.9c.25.17.5.33.75.5,1.27.93,2.57,1.8,3.9,2.6,1.63.97,3.23,1.93,4.8,2.9,1.73.97,3.53,1,5.4.1,2.57-1.27,5.08-2.63,7.55-4.1,4.57-2.6,9.12-5.2,13.65-7.8,4.37-2.53,8.75-5.1,13.15-7.7,2.97-1.73,5.92-3.45,8.85-5.15l25.5,14.15,15.05-8.6c-.75,6.59-.65,12.96.3,19.1.24,1.06.48,2.13.73,3.2l-37.23,21.48ZM20.75,387.53v5.97c0,.27-.02.53-.05.8,0,1.8.42,3.5,1.25,5.1,1.33,2.33,3.65,4.45,6.95,6.35,5.43,3.13,12,4.7,19.7,4.7s14.43-1.58,19.8-4.75c4.53-2.67,7.2-5.73,8-9.2.2-.73.3-1.5.3-2.3,0-.37-.03-.75-.1-1.15v-.88c1.07,1.89,1.57,3.9,1.5,6.03-.17,4.9-3.3,8.98-9.4,12.25-6.13,3.23-13.45,4.72-21.95,4.45-8.5-.3-15.7-2.28-21.6-5.95-5.87-3.67-8.72-7.95-8.55-12.85.11-3.23,1.49-6.08,4.15-8.57ZM272.27,217.75l30.15,17.4,4.45,14.22-31.02,17.9-21.8-13.58-27.8,15.97v-9.92l-7.9-3.8-6.6-3.25c4.83-2.83,9.67-5.67,14.5-8.5,5.13-3.03,10.27-6,15.4-8.9,4.83-2.83,9.63-5.65,14.4-8.45,5.41-3.13,10.82-6.16,16.23-9.1ZM340.5,257.53l-18.7,10.82-5.6-18.35,2.1-1.2c3.52.13,8.21,1.68,14.05,4.65l8.15,4.08ZM438.08,459.75c-.1.6-.24,1.15-.42,1.65-.33.13-.83.28-1.5.45-.87.23-1.42.37-1.65.4-1.3.47-2.07,1.2-2.3,2.2-.23.87-.15,1.7.25,2.5.37.7.95,1.27,1.75,1.7.73.43,1.55.72,2.45.85h.2c.7.1,1.37.08,2-.05.1-.03.2-.07.3-.1,1.83-1.23,2.98-2.03,3.45-2.4,1.17-1.13,1.82-2.35,1.95-3.65.77.6,1.27,1.58,1.5,2.95.1.73.22,1.82.35,3.25v.2c.13,0,.27.02.4.05,1.1.07,2.07-.02,2.9-.25-.17-1.77-.23-3.22-.2-4.35.03-1.63.25-3.08.65-4.35l.05.35c0,.13.02.25.05.35v-.05c.17.93.37,1.63.6,2.1.4.9.97,1.5,1.7,1.8.1.03.18.07.25.1h.05c.83,0,1.85-.18,3.05-.55.7-.17,1.72-.47,3.05-.9.1.43.22,1.03.35,1.8.1.87.2,1.48.3,1.85.27.5.73.73,1.4.7.47,0,1-.13,1.6-.4-.37-1.9-.58-3.58-.65-5.05-.06-1.05-.03-2.05.1-3l1.85,1.05c3.73,2.17,4.55,3.87,2.45,5.1l-19.35,11.15c-2.13,1.23-5.07.78-8.8-1.35l-8.45-4.9c-3.73-2.1-4.53-3.77-2.4-5l10.73-6.2ZM325.45,438.25l-.05,1.45,45.9,28.2,63.35-36.3c.13.48.27.96.4,1.45.35,1.23.69,2.47,1,3.7l-62.9,36.1-53.8-31.1,6.1-3.5ZM445.9,431.1c0-.48,0-.95,0-1.4l1.2.7-1.2.7ZM453.1,454.95v.45c-.03,1-.17,1.85-.4,2.55-.83.2-1.55.55-2.15,1.05.7-1.17.68-2.42-.05-3.75-.18-.33-.46-.72-.83-1.17,1.03.05,2.18.35,3.42.88Z"/><path class="ax" d="M153.45,70.7c-.6-.4-1.12-.76-1.58-1.1-.23-.18-.43-.34-.62-.5-1.33-1.03-2.42-2.12-3.25-3.25-.17-.23-.82-.97-1.95-2.2-.8-.83-1.43-1.57-1.9-2.2-.23-1.23-.17-2.83.2-4.8.2-1.03.35-1.83.45-2.4.17-.93.27-1.72.3-2.35.2-1,.35-2.38.45-4.15.17-1.9.32-3.25.45-4.05.13-.7.2-1.53.2-2.5,0-1.1.02-1.93.05-2.5,0-2.1.23-3.73.7-4.9.3-.43.67-.97,1.1-1.6.5-.67.88-1.17,1.15-1.5,2.03,1.23,3.73,2.62,5.1,4.15.07.07.13.12.2.15,0,.03.03.07.1.1,0,.07.03.12.1.15,1,1.17,1.78,2.38,2.35,3.65-.77.4-1.58,1-2.45,1.8-3.63,3.63-5.45,8.53-5.45,14.7,0,.07.3,1,.9,2.8.87,1.57,2,2.47,3.4,2.7.17.13.35.28.55.45l.6.55c.13.13.27.27.4.4.07.07.13.15.2.25.37.37.9,1,1.6,1.9l2.7,3.4c1.2,1.47,2.3,2.7,3.3,3.7l.45.5c.07.07.14.14.2.2.03.02.07.05.1.08.05.04.1.08.15.12l.25.2c.13.17.27.3.4.4.4.4,1.02.63,1.85.7h1c.31.03.59.05.82.08.06,0,.12.02.18.02.93.03,1.83.22,2.7.55.33.17.68.33,1.05.5,1.13.57,2.17,1.35,3.1,2.35l-.95.65c.4.83.62,1.27.65,1.3.18.42.27.8.25,1.15-.01.11-.03.21-.05.3-.1-.03-.2-.06-.3-.1-.5-.23-1.02-.7-1.55-1.4-.67-.93-1.23-1.5-1.7-1.7.33.5.87,1.23,1.6,2.2.35.47.63.93.83,1.38.03.06.05.12.07.18.17.3.27.58.3.85-.5.1-.97,0-1.4-.3-.03-.02-.07-.05-.1-.08-.25-.22-.53-.58-.85-1.07-.37-.5-.63-.85-.8-1.05-.07-.1-.12-.17-.15-.2-.4-.47-.82-.77-1.25-.9.07.1.15.23.25.4.07.13.17.28.3.45l.25.25c.17.2.43.45.8.75.03.07.08.13.15.2.44.47.76.92.98,1.35.02.07.05.14.08.2v.3l.05.45c-.3-.08-.64-.23-1-.45-.5-.31-1.05-.77-1.65-1.35-1.07-1.03-1.97-1.65-2.7-1.85.17.37.43.73.8,1.1.1.07.45.35,1.05.85.74.65,1.21,1.28,1.4,1.88.02.08.04.15.05.23-.12,0-.23-.02-.35-.05-.55-.09-1.1-.36-1.65-.8-.77-.63-1.35-1.12-1.75-1.45-.33-.27-1.07-.85-2.2-1.75-.7-.5-1.27-.95-1.7-1.35-.17-.03-.35-.05-.55-.05,0-.07.03-.15.1-.25,0-.03.02-.07.05-.1-.05-.06-.11-.12-.17-.17-.25-.28-.53-.58-.83-.88l-.55-.55c-.1-.07-.2-.13-.3-.2-.1-.07-.2-.15-.3-.25l-1.35-1c-.63-.47-1.92-1.32-3.85-2.55-.57-.37-1.1-.73-1.6-1.1ZM176.25,21.25c-.03.1-.07.2-.1.3-.27,1.37-.85,2.47-1.75,3.3-.33.27-.52.63-.55,1.1-.03.23-.03.67,0,1.3,0,.53-.03.92-.1,1.15-.1.37-.35.6-.75.7-.5.1-1.08.45-1.75,1.05-.7.67-1.28,1.05-1.75,1.15-.4.07-.85-.02-1.35-.25-.57-.3-1-.52-1.3-.65-1.57-.73-2.97-1.87-4.2-3.4-1.17-1.43-2.05-3.03-2.65-4.8v-.7c.17-.03.33-.07.5-.1.37-.03.7.05,1,.25.33.17.68.47,1.05.9l.25.25c.2.23.45.52.75.85.27.33.57.57.9.7l.25.1h.4c.33.1.68.15,1.05.15,3.43,0,6.42-.85,8.95-2.55.43-.27.82-.53,1.15-.8ZM178.15,56c-.13-.57-.23-1.08-.32-1.52-.28-1.36-.43-2.2-.43-2.52,0-1.7.43-3.83,1.3-6.4.17-.43.32-.83.45-1.2,1.14,2.15,2.31,4.58,3.5,7.3.07.15.13.3.2.45.17.43,1.53,3.72,4.1,9.85.15.14.34.29.57.45.57.41,1.4.87,2.48,1.4.9.43,1.65.83,2.25,1.2l-1.1.6c-.63.37-1.18.73-1.65,1.1l-1.5-.85c-.73-.43-1.97-.15-3.7.85l-.8.45c-.33-.6-.52-1.23-.55-1.9-.02-.04-.03-.09-.05-.15-.06-.17-.12-.39-.2-.65-.03-.03-.05-.08-.05-.15v-.1c-.17-.53-.27-.87-.3-1-.4-1.3-1.03-2.63-1.9-4-.53-.87-1.3-1.93-2.3-3.2ZM329.2,115.05c.73.73,1.43,1.53,2.1,2.4l.95.45v.4c-.07.03-.1.08-.1.15-.05.05-.1.1-.15.15-1.03.96-2.19,1.55-3.47,1.77-.66.1-1.35.11-2.08.02-.07,0-.13.02-.2.05-.83.1-1.62.03-2.35-.2-.3-.07-.57-.2-.8-.4-1-.5-1.65-1.28-1.95-2.35-.17-.57-.22-1.15-.15-1.75l-1.85-.85c.37-.87.73-1.72,1.1-2.55.03-.1.08-.2.15-.3.67.47,1.58,1.07,2.75,1.8,2.83,1.77,4.32,2.63,4.45,2.6.77-.23,1.3-.7,1.6-1.4ZM193.1,130.45c.23,1.37.62,2.5,1.15,3.4-1.23,1.1-2,1.65-2.3,1.65-1.87,0-3.28-1.22-4.25-3.65-.73-2.67-1.18-4.27-1.35-4.8-.73-2.2-1.35-3.87-1.85-5v-.1c-.27-1.02-.6-2.09-.98-3.2-.41-1.23-.88-2.51-1.42-3.85-.63-1.73-1.6-4.02-2.9-6.85-.53-1.6-.83-3.28-.9-5.05-.1-1.73.03-3.43.4-5.1.07-.43.33-.98.8-1.65.47-.67.75-1.2.85-1.6-1.37-.97-3.08-1.92-5.15-2.85-.5-.23-1.23-.6-2.2-1.1.11-1.03.21-1.79.3-2.3.07-.45.14-.7.2-.75.2-.3.95-.58,2.25-.85.16-.03.31-.05.45-.07,2.08-.39,3.25-.61,3.5-.68.47-.1.88-.22,1.25-.35s.73-.27,1.1-.4c.6-.3,1.13-.62,1.6-.95.03.03.07.07.1.1.97.8,1.8,1.58,2.5,2.35.77.83,1.4,1.68,1.9,2.55.27.4.48.8.65,1.2.27.9.38,1.87.35,2.9-.03,1.2-.32,2.48-.85,3.85,0,.13-.03.25-.1.35-.13,1.47-.2,3.17-.2,5.1,0,.33.03,2.02.1,5.05.53,3.47.94,6.02,1.23,7.62.06.4.12.74.17,1.03.07.27.15.57.25.9.57,2.83,1.28,5.32,2.15,7.45.27.67.48,1.5.65,2.5.1.57.23,1.42.4,2.55.03.2.08.4.15.6ZM265.95,145.22c-.76-.21-1.59-.51-2.5-.88l-1.33-1.33,4.62-2.67c1.42-.82,2.48-1.86,3.17-3.1.44.32.92.71,1.43,1.15.23.22.57.42,1,.6.49.19,1.12.36,1.87.5-.27.42-.49.85-.68,1.3,0,.1-.05.22-.15.35-.04.21-.1.42-.17.65-.05.15-.11.3-.18.45l-.05,1.95c-1.05.29-1.98.64-2.8,1.05-.93.5-2.35.49-4.25-.02ZM312.72,132.55c-1.37.4-2.74.77-4.12,1.12v-.02c.1-.53.05-1.03-.15-1.5l-.03-.05c-.27-.56-.78-.93-1.52-1.12-.43-.12-.93-.18-1.5-.18-1.5,0-3.35.68-5.55,2.05-.83.5-1.5.95-2,1.35-.13-1.33.57-2.47,2.1-3.4,1.87-1.03,3.77-2.02,5.7-2.95h.25l3.6-.18.5-.02,2.45.2v.65l.27,4.05ZM335.6,117.3h-3.25c.17-1.53.97-2.48,2.4-2.85.67-.1,1.28-.02,1.85.25l-1,2.6ZM398,311.05c-.3.17-.63.38-1,.65-1.83,1.13-3.42,2.63-4.75,4.5-.43.73-.78,1.43-1.05,2.1-.57-.17-1.1-.43-1.6-.8-.73-.53-1.35-1.33-1.85-2.4-.57-1.13-.33-2.53.7-4.2,1.03-1.7.4-3.05-1.9-4.05-2.27-1-3.23-2.32-2.9-3.95-.1-.13.33-.13,1.3,0,.97.13,2.03.48,3.2,1.05,1.17.6,2.17,1.22,3,1.85.77.57,1.42,1.03,1.95,1.4,1.73.53,3.23,1.6,4.5,3.2.13.17.27.38.4.65ZM433.65,325c.7.07,1.47.1,2.3.1,1.27,0,2.3-.23,3.08-.7.51.96.85,2.13,1.02,3.5,0,.03.09.82.28,2.38-1.19-.26-2.08-.28-2.67-.08-1.43.5-1.48,1.75-.15,3.75.02.04.05.07.08.1-.09.02-.18.04-.28.05-.89.1-1.73-.12-2.52-.67.22-.5.43-1.06.62-1.67.03-.1.07-.18.1-.25.17-.5.3-.98.4-1.45.23-.8.42-1.57.55-2.3-1.35-.28-2.48-1.04-3.4-2.3.08-.18.15-.35.23-.5.13.02.25.03.37.05ZM446.15,324l-.25,1.1c-.73-.2-1.4-.58-2-1.15-.63-.67-1.18-1.58-1.65-2.75-.17-.33-.3-.78-.4-1.35-.17-.57-.3-1.02-.4-1.35l.45.5v-2.15l.4,1.05c1.2.23,2.13,1.03,2.8,2.4.43.87.78,2.1,1.05,3.7ZM437.65,461.4c.18-.5.33-1.05.42-1.65.03-.16.05-.33.08-.5.03-.53.05-1.23.05-2.1h.05c.03.5.33.65.9.45.47-.13.95-.37,1.45-.7.2-.07.42-.18.65-.35.13-.1.3-.22.5-.35.17-.1.35-.22.55-.35.33-.23.65-.45.95-.65-.51.72-1.05,1.55-1.62,2.5-.17.29-.35.59-.53.9-1.43,2.4-2.27,3.8-2.5,4.2-.33.6-.97.97-1.9,1.1.17-.67.48-1.5.95-2.5ZM429.78,323.6c.5.36,1.07.66,1.72.9.39,1.36.46,2.81.2,4.35l-3.78,1.75-.12.05c-1.4-2.33-.93-4.55,1.4-6.65.19-.14.38-.27.58-.4ZM452.7,457.95c.23-.7.37-1.55.4-2.55v-.45c0-.97.04-1.71.1-2.2h.2c.23.27.72.4,1.45.4.1-.03.22-.03.35,0-.47.56-.89,1.29-1.25,2.2-.07.17-.13.36-.2.55-.17.43-.42,1.1-.75,2-.3.8-.6,1.45-.9,1.95.17-.53.37-1.17.6-1.9Z"/><path class="bd" d="M428.65,209.85l-2.33,1.57,2.27-1.6.05.02ZM268.6,100.25v35.95l-.5.3c-.11-.12-.23-.25-.35-.38-.54-.57-1.14-1.21-1.8-1.9-.36-.37-.75-.76-1.15-1.18-.62-.62-1.2-1.2-1.75-1.72-2.47-2.4-4.15-3.86-5.05-4.38-.9-.4-1.5-.65-1.8-.75-.4-.03-.73.2-1,.7-.33.6-1.28,2.9-2.85,6.9-.4.73-.98,1.63-1.75,2.7l-2.2-1.25c-.43-.43-1.47-1.3-3.1-2.6-1.57-1.23-2.73-2.03-3.5-2.4-1.83-.93-4.32,2.57-7.45,10.5-.5,1.17-.93,2.28-1.3,3.35v-24.1c.07-2.63.95-4.45,2.65-5.45l30.05-16.95c1.73-.7,2.68.18,2.85,2.65ZM263.4,112.85c-.11-.06-.23-.11-.35-.15-.75-.27-1.62-.1-2.6.5-1.13.67-2.1,1.7-2.9,3.1-.83,1.37-1.25,2.7-1.25,4,0,1.37.42,2.28,1.25,2.75.8.47,1.77.37,2.9-.3.98-.6,1.84-1.45,2.6-2.55.12-.18.24-.36.35-.55.8-1.4,1.2-2.78,1.2-4.15s-.4-2.18-1.2-2.65ZM91.33,293.58l-33.37,19.27v-92.75l121.8-70.35v92.8l-40.35,23.28c-1.24-2.69-3.71-5.17-7.4-7.42-4.34-2.61-7.76-2.11-10.27,1.5-.05-.11-.11-.21-.18-.3-.24-.68-.51-1.35-.82-2l20.77-12v-3.85l-22.33,12.83c-.39-.77-.78-1.52-1.17-2.28-.17-.33-.33-.65-.5-.97l23.75-13.78v-3.8l-25.25,14.62c-.48-.95-.95-1.9-1.42-2.85l26.67-15.43v-4.05l-28.25,16.4c-.8-1.57-1.6-3.14-2.4-4.7-.34-.08-.66-.15-.98-.2-.59-1.82-.9-3.49-.92-5,0-1.32-.9-2.87-2.7-4.65v-.35c0-.59-.07-1.12-.2-1.58l35.7-20.62v-3.85l-38.5,22.08c-1.08-.13-2.33.22-3.75,1.02l-20.5,11.85c-1.87,1.07-3.45,2.65-4.75,4.75-.87,1.37-1.45,2.7-1.75,3.97-.21.09-.41.18-.6.28-.83,1.67-1.48,3.43-1.95,5.3-.2.73-.33,1.5-.4,2.3-.03,1.47.33,2.75,1.1,3.85.57.73,1.1,1.48,1.6,2.25.27.48.53.97.8,1.47-.86,1.48-1.14,3-.85,4.58.1.19.25.46.42.83l-8.83,5.12v3.8l10.25-5.92c.46.97.93,1.96,1.4,2.97l-11.65,6.75v3.85l13.18-7.62c.44.84.89,1.66,1.32,2.48.97,1.83,1.97,3.63,3,5.4,1.2,2.1,2.45,4,3.75,5.7,1.27,1.7,2.37,2.8,3.3,3.3.93.53,1.83,1.02,2.7,1.45.18.09.35.19.53.28ZM174.7,167.55c0-2.87-1.17-3.63-3.5-2.3l-17.25,10.15c-2.23,1.27-3.35,3.25-3.35,5.95v20.95c0,2.77,1.12,3.52,3.35,2.25l17.25-9.95c2.33-1.33,3.5-3.37,3.5-6.1v-20.95ZM227.8,323.95l-46.15-28.65,44.6-25.62,27.8-15.97,21.8,13.58,4.32,2.7,20.03,12.48-72.4,41.5ZM209.3,287.35l15,9.35,1.55-.9-15.1-9.35-1.45.9ZM201.35,291.9l14.95,9.35,1.5-.9-15-9.35-1.45.9ZM205.4,289.55l15,9.35,1.55-.9-15-9.35-1.55.9ZM212.4,303.4l1.6-.8-18.25-11.3-1.5.85,18.15,11.25ZM247.75,265.25l14.95,9.35,1.6-.85-15-9.35-1.55.85ZM251.65,263.05l15,9.3,1.5-.85-15-9.35-1.5.9ZM235.35,272.35l14.9,9.4,1.6-.95-14.9-9.3-1.6.85ZM239.25,270.1l15,9.35,1.6-.9-15.1-9.25-1.5.8ZM247.55,283l-14.75-9.15-1.5.85,14.7,9.15,1.55-.85ZM243.65,267.65l15,9.25,1.6-.9-15.05-9.25-1.55.9ZM217.35,282.7l14.9,9.25,1.6-.8-14.95-9.35-1.55.9ZM225.3,278.1l15,9.35,1.55-.9-15-9.3-1.55.85ZM221.45,280.35l14.95,9.35,1.55-.9-15-9.35-1.5.9ZM228.5,299.55l15.25,9.45,1.55-.9-15.3-9.4-1.5.85ZM216.1,306.65l15.25,9.4,1.6-.85-15.25-9.45-1.6.9ZM220.5,304.1l15.25,9.5,1.6-.9-15.25-9.45-1.6.85ZM224.6,301.75l15.2,9.5,1.6-.9-15.25-9.5-1.55.9ZM246.8,289.05l15.25,9.45,1.55-.95-15.2-9.4-1.6.9ZM234.5,296.1l15.15,9.5,1.6-.9-15.25-9.5-1.5.9ZM238.35,293.9l15.25,9.45,1.55-.9-15.25-9.45-1.55.9ZM242.75,291.4l15.25,9.4,1.55-.9-15.3-9.4-1.5.9ZM250.75,286.85l15.25,9.4,1.55-.9-15.25-9.4-1.55.9ZM287.7,283.75l-15.35-9.4-1.5.9,15.3,9.4,1.55-.9ZM258.5,282.3l15.25,9.5,1.55-.9-15.25-9.4-1.55.8ZM254.65,284.6l15.2,9.45,1.55-.95-15.25-9.4-1.5.9ZM266.95,277.5l15.2,9.45,1.6-.9-15.2-9.45-1.6.9ZM262.9,279.85l15.25,9.4,1.55-.9-15.3-9.4-1.5.9ZM174.7,207.8c0-2.87-1.17-3.63-3.5-2.3l-17.25,10.15c-2.23,1.27-3.35,3.25-3.35,5.95v20.95c0,2.77,1.12,3.52,3.35,2.25l17.25-9.95c2.33-1.33,3.5-3.37,3.5-6.1v-20.95ZM379.45,243.35l-.65.45-1.92-.95,1.92.9.65-.4ZM439,323.9c-.08,0-.16.02-.25.02-.2.02-.41.03-.65.03-.61,0-1.14-.07-1.57-.2-.65-.21-1.13-.56-1.43-1.05-.2-.83-.3-1.27-.3-1.3v-.3c.12-1.72,1.23-2.72,3.35-3,1.02-.15,1.8-.02,2.35.38.28.21.5.48.65.83-.13-.01-.27-.01-.43,0-.2,0-.43.04-.67.1-1.7.37-2.55,1.28-2.55,2.75,0,.03,0,.13-.03.3,0,.16,0,.37-.02.65.17.35.59.6,1.25.75.09.02.19.03.3.05ZM325.67,434.12l-.12-.08,5.78-3.25-5.65,3.33ZM402.7,395.75l-5.28-3,.53-.3,12.77,7.95,18.12,10.47c.22,2.73.74,5.38,1.55,7.97.23.7.5,1.4.8,2.1.75,1.98,1.48,4.11,2.2,6.4l-60.4,34.65-.05-.03-1.25.73-35.5-21.95.08-.05,71.92-41.75-5.5-3.2ZM141.25,189.85v-4.05l-77.7,45.1v3.8l77.7-44.85ZM141.25,197.3v-3.8l-77.7,45v3.85l77.7-45.05ZM81.3,260.85c-.5-.74-1-1.47-1.5-2.2-.64-.08-1.24-.12-1.8-.12-.1-1.42-.16-2.88-.2-4.38-.03-.77-.17-1.5-.4-2.2-.14-.36-.28-.71-.42-1.05.56-.18,1.15-.45,1.77-.8l20.5-11.85c.67-.38,1.31-.83,1.9-1.35.4.17.84.33,1.3.5.46.18.96.53,1.5,1.05-.15.11-.3.22-.45.35-1.1,1.43-1.58,2.98-1.45,4.65.1.3.3.83.6,1.6.32.94.64,1.89.98,2.85l-22.33,12.95ZM83.12,263.65l21.62-12.48c.4,1.02.79,2.03,1.17,3.03l-21,12.17c-.21-.31-.42-.62-.62-.92-.39-.61-.78-1.21-1.17-1.8ZM90.6,275l19.4-11.2c.71,1.51,1.46,2.91,2.25,4.2,1.07,1.83,2.05,3.07,2.95,3.7.83.6,1.67,1.17,2.5,1.7.77.53,1.45,1.05,2.05,1.55.42.32.96.75,1.62,1.27l-15.92,9.2c-.3-.11-.6-.22-.9-.33-2.23-.57-4.37-1.43-6.4-2.6-1.47-.77-2.97-1.53-4.5-2.3l.05-.15c-.17-.33-.37-.63-.6-.9-.33-.73-.72-1.45-1.15-2.15-.45-.66-.9-1.33-1.35-2ZM108.58,260.65l-19.93,11.42c-.62-.97-1.26-1.95-1.9-2.92l20.42-11.85c.45,1.13.92,2.24,1.4,3.35ZM143.85,405.55l-5.5-2.6-.95-7.9,3.35.05.3-.45-.9,3.5c.34,1.39.84,2.7,1.5,3.92.17.33.35.66.55.97.47.87,1.02,1.7,1.65,2.5ZM109.3,424.15c-.3-.43.22-1.13,1.55-2.1,1.43-1,4.98-2.2,10.65-3.6-.1,5.33,3.05,8.58,9.45,9.75.73.17,1.4.33,2,.5-4.63-.47-9.25-.6-13.85-.4-4.57.23-7.83-1.15-9.8-4.15ZM427.08,334.2c-.05-.21-.08-.43-.08-.65,0-.43.13-1,.4-1.7.1.1.2.15.3.15l1.9-.75c1.3-.5,2.08-.75,2.35-.75.2,0,.23.03.1.1-.07.7-.43,1.87-1.1,3.5-.16.39-.3.73-.42,1.03-1.14-.36-2.29-.67-3.45-.92ZM400.85,434.45l20.25-11.75-3.75-2.15-20.25,11.7,3.75,2.2ZM402,411.7l-20.25,11.7,3.75,2.2,20.25-11.75-3.75-2.15ZM409.8,416.2l-20.3,11.7,3.8,2.15,20.25-11.7-3.75-2.15ZM389.7,433.45l-20.3,11.7,14.3,8.25,20.3-11.7-14.3-8.25ZM372.28,423.42l-20.08,11.58-.15.1,14.3,8.25,20.3-11.7-14.3-8.25-.07.02ZM261.8,365.1c-.37.07-.7.03-1-.1-4.83-2-9.37-1.72-13.6.85-2.7,1.67-5.18,3.27-7.45,4.8-.4-1.9.07-3.58,1.4-5.05,3.57-3.97,8.05-6.45,13.45-7.45,4.33-.9,7.12.43,8.35,4l-1.15,2.95Z"/><path class="ak" d="M172.9,48.2c-.1.8-.15,1.87-.15,3.2v3.2c-.83,2.33-2.6,4.08-5.3,5.25-2.23.97-4.75,1.4-7.55,1.3-1.77.03-3.25-.18-4.45-.65-1.63-.63-2.58-1.67-2.85-3.1.07-1.03.12-1.82.15-2.35,0-.93-.12-1.72-.35-2.35.5-3.6.97-6.53,1.4-8.8,1.1,0,2.05-.28,2.85-.85.9-.67,1.23-1.5,1-2.5,0-.07-.02-.12-.05-.15v-.05c-.07-.2-.12-.38-.15-.55l-.1-.15c-.1-.27-.2-.52-.3-.75-.57-1.27-1.35-2.48-2.35-3.65-.07-.03-.1-.08-.1-.15-.07-.03-.1-.07-.1-.1-.07-.03-.13-.08-.2-.15-1.37-1.53-3.07-2.92-5.1-4.15-.27.33-.65.83-1.15,1.5-.43.63-.8,1.17-1.1,1.6,0-.63.1-1.23.3-1.8.17-.6.45-1.13.85-1.6.17-.17.37-.4.6-.7.4.03.8.08,1.2.15.87.13,1.68.33,2.45.6,1.13,1.47,2.17,2.35,3.1,2.65.83.23,1.25.33,1.25.3,1.97,1.83,2.95,4.03,2.95,6.6,0,.63-.3,1.87-.9,3.7-.63,1.8-.95,3.02-.95,3.65,0,.47.45,1.05,1.35,1.75.93.67,1.73,1,2.4,1,1.6,0,4.2-.85,7.8-2.55,2.77-1.3,5.08-2.18,6.95-2.65-.2.17-.42.35-.65.55-.63.57-1.12,1.02-1.45,1.35-.53.47-.97.93-1.3,1.4ZM174.5,34.5c-.77.3-1.5.45-2.2.45-3.87,0-6.68-.52-8.45-1.55,1.5-.47,2.8-1.3,3.9-2.5.1.07.23.12.4.15.5.23.95.32,1.35.25.47-.1,1.05-.48,1.75-1.15.67-.6,1.25-.95,1.75-1.05-.13,1.83.37,3.63,1.5,5.4ZM316.6,131.05v-.5s.05,0,.08,0c-.03.17-.05.33-.08.5ZM317.6,142.67c-.43.16-.88.3-1.35.43-.54.16-1.11.3-1.72.4-.27.04-.54.07-.83.1-.88.21-1.76.41-2.65.6-5.98,1.27-12.11,2.14-18.37,2.6-1.94.14-3.9.24-5.87.3l-4.75-.5-.05-.1-4.05-.45-3.53-.38-1.02-.12c-.13-.3-.25-.6-.35-.9l-.05-.05c.03-.17.03-.3,0-.4.23-.06.46-.12.7-.18.07,0,.14-.02.2-.02.22-.01.46-.01.7,0,.75-.04,1.65-.08,2.67-.12,1.48-.04,3.24-.09,5.27-.12.05,0,.11-.01.18-.02.6-.06,1.43-.11,2.48-.18.98-.04,2.15-.09,3.52-.12.2,0,.41-.02.62-.02,2.77-.1,4.92-.28,6.45-.55,1.98-.35,3.86-.73,5.65-1.12,1.44-.32,2.83-.65,4.15-1,1.96-.51,3.79-1.06,5.5-1.65.62-.21,1.23-.42,1.83-.65,1.31-.47,2.53-.97,3.67-1.5,1.03-.48,2-.97,2.9-1.47,1-.53,2.05-1.2,3.15-2,1,1.1,1.2,2.45.6,4.05-1.01,2.43-2.89,4.15-5.65,5.17ZM149.73,279.92c-.48-1.05-1.02-1.84-1.62-2.38-.74-.59-1.69-.89-2.83-.9.2-.33.37-.68.52-1.05.03.03.13.08.3.15.29.14.56.29.82.45.29.17.56.36.83.55.47.4.98,1.12,1.55,2.15.16.29.3.63.43,1.02ZM443.9,331.6s-.08.08-.15.15c-.43.4-.92.77-1.45,1.1-.03.03-.07.05-.1.05-.37.23-.7.47-1,.7-.85.6-1.68,1.22-2.48,1.85-.47-.51-.85-.98-1.15-1.4-.03-.03-.05-.06-.08-.1-1.33-2-1.28-3.25.15-3.75.6-.21,1.49-.18,2.67.08,1.02.22,2.27.61,3.72,1.17-.05.05-.1.1-.15.15ZM118.95,292.4c.07.03.18.05.35.05.63.27,1.2.57,1.7.9.53.33,1.15.98,1.85,1.95.67.93,1.1,2.58,1.3,4.95.23,2.33-.67,3.98-2.7,4.95-2.07.97-4.12,1.33-6.15,1.1-1.2-.04-2.32-.27-3.37-.67-.58-.22-1.14-.49-1.67-.83-1.57-1-2.85-1.7-3.85-2.1-1.03-.43-1.82-.82-2.35-1.15-.2-.11-.4-.23-.6-.35-1.36-.76-2.7-1.58-4-2.45-1.2-.8-2.42-1.6-3.65-2.4-.28-.18-.55-.36-.8-.52-.82-.51-1.49-.92-2-1.23-.5-.34-1.06-.68-1.67-1.02-.17-.09-.35-.18-.53-.28-.87-.43-1.77-.92-2.7-1.45-.93-.5-2.03-1.6-3.3-3.3-1.3-1.7-2.55-3.6-3.75-5.7-1.03-1.77-2.03-3.57-3-5.4-.44-.81-.88-1.64-1.32-2.48-.47-.89-.95-1.8-1.43-2.72-.04-.08-.07-.16-.1-.25-.47-1.01-.94-2-1.4-2.97-.35-.75-.7-1.5-1.05-2.23-.14-.29-.26-.55-.38-.77-.18-.36-.32-.64-.42-.83-.29-1.57,0-3.1.85-4.58.03-.06.07-.12.1-.17.64,1.03,1.31,2.12,2,3.27.12.2.25.41.37.62.3.51.61,1.02.93,1.55.15.26.39.7.72,1.32.41.71.94,1.66,1.6,2.85.48.84,1.02,1.81,1.62,2.9.6,1.08,1.27,2.27,2,3.58,3.4,6.1,5.4,9.4,6,9.9.63.53,1.87,1.45,3.7,2.75,1.24.73,2.41,1.42,3.5,2.05,1.4.81,2.69,1.53,3.85,2.17,3.61,1.99,6.1,3.2,7.45,3.62.85.41,1.73.67,2.62.8,1.49.22,3.04.05,4.65-.5.04-.02.08-.03.12-.05,2.6-.97,4.23-2.6,4.9-4.9ZM103.5,238.8c.83,1.77,1.73,3.7,2.7,5.8.12.28.32.77.6,1.45.34.79.79,1.85,1.35,3.17.36.87.78,1.86,1.25,2.98.39.94.81,1.96,1.27,3.08.08.17.15.35.23.52.43,1.02.83,1.96,1.2,2.83.51,1.19.98,2.24,1.4,3.15,1.19,2.66,1.97,4.17,2.35,4.52.53.6,1.65,1.63,3.35,3.1.72.54,1.41,1.06,2.07,1.55l1.58,4.5c.06,1.03.34,1.93.85,2.7-.45-.38-.9-.77-1.35-1.15-.35-.27-.67-.53-.98-.78-.67-.53-1.21-.95-1.62-1.27-.6-.5-1.28-1.02-2.05-1.55-.83-.53-1.67-1.1-2.5-1.7-.9-.63-1.88-1.87-2.95-3.7-.79-1.29-1.54-2.69-2.25-4.2-.29-.6-.58-1.22-.85-1.85-.19-.43-.38-.87-.57-1.3-.48-1.11-.95-2.22-1.4-3.35-.15-.33-.29-.66-.42-1-.27-.69-.54-1.39-.83-2.1-.39-1-.78-2.01-1.17-3.03-.05-.13-.1-.25-.15-.38-.33-.98-.66-1.95-.98-2.9-.33-.96-.66-1.92-.98-2.85-.3-.77-.5-1.3-.6-1.6-.13-1.67.35-3.22,1.45-4.65ZM434.78,333.42c-.5,1.19-1.05,2.07-1.65,2.62-.12-.05-.25-.1-.38-.15-.74-.28-1.48-.54-2.22-.78.12-.29.26-.64.42-1.03.67-1.63,1.03-2.8,1.1-3.5.13-.07.1-.1-.1-.1-.27,0-1.05.25-2.35.75l-1.9.75c-.1,0-.2-.05-.3-.15.13-.38.31-.79.52-1.25l3.78-1.75c.26-1.54.19-2.99-.2-4.35.53.19,1.13.34,1.78.45-.07.15-.15.32-.23.5.92,1.26,2.05,2.02,3.4,2.3-.13.73-.32,1.5-.55,2.3-.1.47-.23.95-.4,1.45-.03.07-.07.15-.1.25-.2.62-.41,1.17-.62,1.67Z"/><path class="am" d="M181.65,295.3l46.15,28.65-.4,5.2-8.42-5.18-37.48-23.02.05-2,.1-3.65ZM229.05,334.7l.1,4.9-.15.05-50.35-29-.05-.05h.05l-.05-.2v-4.75h.05l50.35,29.05h.05ZM250.75,286.85l1.55-.9,15.25,9.4-1.55.9-15.25-9.4ZM242.75,291.4l1.5-.9,15.3,9.4-1.55.9-15.25-9.4ZM238.35,293.9l1.55-.9,15.25,9.45-1.55.9-15.25-9.45ZM234.5,296.1l1.5-.9,15.25,9.5-1.6.9-15.15-9.5ZM246.8,289.05l1.6-.9,15.2,9.4-1.55.95-15.25-9.45ZM224.6,301.75l1.55-.9,15.25,9.5-1.6.9-15.2-9.5ZM220.5,304.1l1.6-.85,15.25,9.45-1.6.9-15.25-9.5ZM216.1,306.65l1.6-.9,15.25,9.45-1.6.85-15.25-9.4ZM228.5,299.55l1.5-.85,15.3,9.4-1.55.9-15.25-9.45ZM221.45,280.35l1.5-.9,15,9.35-1.55.9-14.95-9.35ZM225.3,278.1l1.55-.85,15,9.3-1.55.9-15-9.35ZM217.35,282.7l1.55-.9,14.95,9.35-1.6.8-14.9-9.25ZM243.65,267.65l1.55-.9,15.05,9.25-1.6.9-15-9.25ZM247.55,283l-1.55.85-14.7-9.15,1.5-.85,14.75,9.15ZM239.25,270.1l1.5-.8,15.1,9.25-1.6.9-15-9.35ZM235.35,272.35l1.6-.85,14.9,9.3-1.6.95-14.9-9.4ZM251.65,263.05l1.5-.9,15,9.35-1.5.85-15-9.3ZM247.75,265.25l1.55-.85,15,9.35-1.6.85-14.95-9.35ZM212.4,303.4l-18.15-11.25,1.5-.85,18.25,11.3-1.6.8ZM205.4,289.55l1.55-.9,15,9.35-1.55.9-15-9.35ZM201.35,291.9l1.45-.9,15,9.35-1.5.9-14.95-9.35ZM209.3,287.35l1.45-.9,15.1,9.35-1.55.9-15-9.35ZM262.9,279.85l1.5-.9,15.3,9.4-1.55.9-15.25-9.4ZM266.95,277.5l1.6-.9,15.2,9.45-1.6.9-15.2-9.45ZM254.65,284.6l1.5-.9,15.25,9.4-1.55.95-15.2-9.45ZM258.5,282.3l1.55-.8,15.25,9.4-1.55.9-15.25-9.5ZM287.7,283.75l-1.55.9-15.3-9.4,1.5-.9,15.35,9.4ZM178.5,320.6v-5l50.5,29.05.2-.05.05,4.9-.25.15-50.5-29.05ZM330.65,437.55l5.55,3.2,35.5,21.95-.4,5.2-45.9-28.2.05-1.45.08-3.65,5.12,2.95ZM325.67,434.12l-.12.08v-.15l.12.08Z"/><path class="ao" d="M296.12,289.78l-68.45,39.22-.27.15.4-5.2,72.4-41.5-.05.85-.3,4.35-3.72,2.12ZM297.1,295.65l-68.05,39.05-.05-4.95,68.1-39.05v4.95ZM229.15,339.6l67.95-39v5l-67.9,39-.05-5ZM297.15,310.55v1.15l-67.9,39.1v-1.3l67.85-38.9.05-.05ZM433.4,427.35c.42,1.36.84,2.78,1.25,4.25l-63.35,36.3.4-5.2,1.25-.73.05.03,60.4-34.65Z"/><path class="q" d="M174.7,207.8v20.95c0,2.73-1.17,4.77-3.5,6.1l-17.25,9.95c-2.23,1.27-3.35.52-3.35-2.25v-20.95c0-2.7,1.12-4.68,3.35-5.95l17.25-10.15c2.33-1.33,3.5-.57,3.5,2.3ZM330.65,437.55l72.05-41.8,5.5,3.2-71.92,41.75-.08.05-5.55-3.2Z"/><polygon class="g" points="402.7 395.75 330.65 437.55 325.53 434.6 325.2 434.4 325.55 434.2 325.67 434.12 331.33 430.8 397.25 392.65 397.42 392.75 402.7 395.75"/><path class="bi" d="M229.15,355.8c.52-.37,1.07-.74,1.65-1.1,3.35-2.08,7.06-3.68,11.15-4.8,3.98-1.09,8.32-1.72,13-1.9,9.48-.33,17.66,1.33,24.52,4.97l.02.03c3.03,1.61,5.42,3.39,7.15,5.35,2.19,2.48,3.34,5.25,3.45,8.3.04.98-.04,1.94-.23,2.88-.82,4.34-3.95,8.2-9.38,11.57-6.6,4.13-14.65,6.35-24.15,6.65-9.5.33-17.68-1.32-24.55-4.95-6.05-3.23-9.51-7.16-10.37-11.77-.13-.63-.2-1.27-.22-1.93-.18-4.99,2.47-9.42,7.95-13.3ZM76.6,387.05c-.15,1.2-.52,2.36-1.1,3.48-1.31,2.49-3.69,4.75-7.15,6.77-.53.33-1.08.62-1.65.85-5.07,2.63-11.07,3.95-18,3.95-6.47,0-12.08-1.05-16.85-3.15-.97-.47-1.92-.97-2.85-1.5-4.82-2.79-7.56-6.11-8.23-9.95,0-.07-.02-.14-.02-.2-.03-.47-.08-.95-.15-1.45,0-.5.05-1,.15-1.5.1-.8.32-1.57.65-2.3.99-2.4,2.91-4.59,5.77-6.55.51-.36,1.05-.71,1.62-1.05,5.5-3.17,12.13-4.75,19.9-4.75s14.2,1.57,19.7,4.7c3.83,2.2,6.33,4.75,7.5,7.65.07.17.14.35.2.53.25.7.42,1.43.5,2.17.07.2.1.38.1.55v.75c0,.33-.03.67-.1,1ZM204.65,63.33l-4.15,7.77c-.57,1-1.7,1.98-3.4,2.95l-3.55,2.05-11.65,6.75c-.07,0-.1.02-.1.05-.57.33-1,.53-1.3.6-.57.17-.68-.05-.35-.65l7.6-14.2s.05-.07.05-.1c.13-.2.28-.4.45-.6.3-.43.72-.85,1.25-1.25.47-.37,1.02-.73,1.65-1.1l1.1-.6,14.05-8.15c1.73-1,2.33-.98,1.8.05l-3.45,6.43ZM174.7,167.55v20.95c0,2.73-1.17,4.77-3.5,6.1l-17.25,9.95c-2.23,1.27-3.35.52-3.35-2.25v-20.95c0-2.7,1.12-4.68,3.35-5.95l17.25-10.15c2.33-1.33,3.5-.57,3.5,2.3ZM469.05,377.35c-.1.13-.2.27-.3.4-.03.03-.07.07-.1.1-.03.07-.07.12-.1.15-.13.17-.23.28-.3.35-2.17,3.57-6.15,6.25-11.95,8.05-.13.03-.27.07-.4.1v.05c-1.62.45-3.32.77-5.1.95-.2.02-.4.03-.6.05h-5.85c-2.3-.2-4.25-.7-5.85-1.5.63-1.5,1.25-3.15,1.85-4.95,3.17-9.23,4.75-17.12,4.75-23.65,0-5.9-.4-10.7-1.2-14.4-.44-2.05-1.24-3.7-2.37-4.92-.33-.29-.64-.57-.93-.85-.73-.55-1.57-.97-2.5-1.28-.13.1-.27.2-.4.3.34-.29.68-.57,1.02-.85.8-.63,1.62-1.25,2.48-1.85h.15c1.62,0,3.48-.32,5.58-.95,1.4-.43,2.91-.99,4.53-1.7,1-.43,1.87-.85,2.6-1.25v.2c.06,2.39.45,4.68,1.17,6.85.56,1.66,1.32,3.26,2.28,4.8v.05c.13.1.25.22.35.35l.3.25c.33-.13.83-.27,1.5-.4.6-.17,1.07-.38,1.4-.65.06-.16.12-.32.2-.48.38-.9.96-1.94,1.75-3.12l.05-.15s.02-.07.05-.1l.05-.05c.43-.7.92-1.4,1.45-2.1,1.3-1.63,2.13-3.48,2.5-5.55.17.43.33.92.5,1.45.7,2,1.15,3.45,1.35,4.35.2.83.08,2.33-.35,4.5-.47,2.13-.77,3.15-.9,3.05-.03.1-.07.2-.1.3v.1c-.03.07-.08.15-.15.25-.43,1.1-.78,2.08-1.05,2.95-.2.63-.38,1.28-.55,1.95-.3.83-.57,1.68-.8,2.55-.4,1.4-.63,2.82-.7,4.25-.27,5.53,1.1,10.6,4.1,15.2.6,1.8,1.13,3.67,1.6,5.6-.3.43-.63.85-1,1.25ZM450.25,461.45v-1.4c0-2-1.12-2.1-3.35-.3-1.93,1.57-3.18,2.93-3.75,4.1-.5,1.1-1.52,2.28-3.05,3.55-1.07.9-2.15,1.6-3.25,2.1h-.2c-.9-.13-1.72-.42-2.45-.85-.8-.43-1.38-1-1.75-1.7-.4-.8-.48-1.63-.25-2.5.23-1,1-1.73,2.3-2.2.23-.03.78-.17,1.65-.4.67-.17,1.17-.32,1.5-.45-.47,1-.78,1.83-.95,2.5.93-.13,1.57-.5,1.9-1.1.23-.4,1.07-1.8,2.5-4.2.18-.31.35-.61.53-.9.57-.95,1.11-1.78,1.62-2.5.2-.23.38-.47.55-.7.43-.37,1.1-.75,2-1.15.97-.5,1.67-.85,2.1-1.05,0-.03.02-.05.05-.05.71.69,1.28,1.3,1.72,1.83.37.45.64.84.83,1.17.73,1.33.75,2.58.05,3.75.6-.5,1.32-.85,2.15-1.05-.23.73-.43,1.37-.6,1.9.3-.5.6-1.15.9-1.95.33-.9.58-1.57.75-2,.07-.19.13-.38.2-.55.36-.91.78-1.64,1.25-2.2.23-.37.52-.67.85-.9.53-.07,1.33-.2,2.4-.4,1.07-.23,1.88-.4,2.45-.5.07.1.12.18.15.25.67,1.3,1.12,2.27,1.35,2.9.33.93.43,1.8.3,2.6-.4-.7-1.2-.77-2.4-.2-.67.3-1.25.63-1.75,1-.77.58-1.34,1.25-1.7,2-.73,1.67-1.8,3.17-3.2,4.5-.4.33-.77.65-1.1.95-.73-.3-1.3-.9-1.7-1.8-.23-.47-.43-1.17-.6-2.1ZM103,223.58c.35.05.69.14,1,.27.92.39,1.52,1.1,1.8,2.12.13.46.2.98.2,1.58v.35c-.08,1.76-.75,3.63-2,5.6-.83,1.34-1.78,2.48-2.85,3.4-.59.52-1.23.96-1.9,1.35l-20.5,11.85c-.62.36-1.21.62-1.77.8-1.12.34-2.11.33-2.98-.05-1.33-.57-2-1.78-2-3.65,0-.66.08-1.33.25-2.03.3-1.28.88-2.6,1.75-3.97,1.3-2.1,2.88-3.68,4.75-4.75l20.5-11.85c1.42-.81,2.67-1.15,3.75-1.02ZM117.5,251.33c-.5-.99-1-1.97-1.5-2.95l25.25-14.62v3.8l-23.75,13.78ZM84.3,156c0,2.03-.62,4.13-1.85,6.3-1.23,2.17-2.75,3.75-4.55,4.75-1.77,1.03-3.27,1.18-4.5.45-1.23-.7-1.85-2.07-1.85-4.1s.62-4.18,1.85-6.35c1.23-2.13,2.73-3.72,4.5-4.75,1.8-1,3.32-1.15,4.55-.45,1.23.7,1.85,2.08,1.85,4.15ZM74.1,201.8c.63-.37,1.13-.43,1.5-.2.57.3.85.82.85,1.55s-.28,1.63-.85,2.6c-.37.7-.87,1.23-1.5,1.6s-1.2.43-1.7.2c-.57-.2-.85-.67-.85-1.4,0-.87.28-1.73.85-2.6.5-.77,1.07-1.35,1.7-1.75ZM84.92,266.37l21-12.17c.28.71.56,1.41.83,2.1.14.34.28.67.42,1l-20.42,11.85c-.6-.93-1.21-1.85-1.83-2.78ZM76.73,274.97l-13.18,7.62v-3.85l11.65-6.75c.03.09.06.17.1.25.48.92.95,1.83,1.43,2.72ZM61.85,378.7l-29.2,5.15,21.35,11.8,7.85-16.95ZM427.08,334.2c1.16.25,2.31.56,3.45.92.75.24,1.49.49,2.22.78.13.05.25.1.38.15,1.17.43,2.29.89,3.35,1.38.06.02.12.05.18.08.97.47,1.95.82,2.95,1.05-.6,2.93-2.4,4.8-5.4,5.6-.17.04-.34.07-.5.1-.92.16-1.81.15-2.65-.05-5.97-1.07-11.7-2.97-17.2-5.7-.8-.4-1.58-.88-2.35-1.45-1.63-1.33-3.05-2.82-4.25-4.45-3.68-5.05-7.5-10.03-11.47-14.92-.46-.56-.91-1.11-1.37-1.67,1.05-1.51,2.82-2.34,5.32-2.47.21-.01.41-.02.62-.03,1.63,1.8,3.25,3.62,4.85,5.45,1.63,1.87,3.27,3.73,4.9,5.6,1.1,1.23,2.23,2.48,3.4,3.75.5.57.95,1.17,1.35,1.8.23.2.45.47.65.8v.1c1.43.47,2.85.95,4.25,1.45,2,.77,4.03,1.27,6.1,1.5.41.08.82.16,1.23.25ZM402,411.7l3.75,2.15-20.25,11.75-3.75-2.2,20.25-11.7ZM230.98,369.75c.51,3.49,3.01,6.44,7.52,8.85,4.93,2.6,10.82,3.8,17.65,3.6,6.83-.27,12.62-1.88,17.35-4.85,4.13-2.59,6.4-5.53,6.83-8.82.07-.48.09-.97.07-1.48-.13-3.97-2.67-7.25-7.6-9.85-4.93-2.63-10.82-3.83-17.65-3.6-6.83.23-12.62,1.83-17.35,4.8-4.73,2.97-7.03,6.42-6.9,10.35.01.34.04.67.08,1Z"/><path class="ah" d="M105.8,225.97c-.28-1.03-.88-1.73-1.8-2.12-.31-.14-.65-.23-1-.27l38.5-22.08v3.85l-35.7,20.62ZM113,242.45l28.25-16.4v4.05l-26.67,15.43c-.1-.18-.19-.35-.28-.53-.43-.85-.87-1.7-1.3-2.55ZM120.73,257.6c-.04-.08-.08-.17-.12-.25-.48-.93-.95-1.86-1.43-2.77l22.33-12.83v3.85l-20.77,12ZM141.25,197.3l-77.7,45.05v-3.85l77.7-45v3.8ZM141.25,189.85l-77.7,44.85v-3.8l77.7-45.1v4.05ZM83.12,263.65c-.6-.94-1.21-1.87-1.83-2.8l22.33-12.95c.32.95.64,1.92.98,2.9.05.12.1.25.15.38l-21.62,12.48ZM90.6,275c-.62-.91-1.23-1.83-1.85-2.75-.04-.06-.07-.11-.1-.17l19.93-11.42c.19.43.38.87.57,1.3.27.63.56,1.25.85,1.85l-19.4,11.2ZM73.8,269.03l-10.25,5.92v-3.8l8.83-5.12c.11.23.24.48.38.77.35.73.7,1.47,1.05,2.23ZM400.85,434.45l-3.75-2.2,20.25-11.7,3.75,2.15-20.25,11.75ZM372.28,423.42l.07-.02,14.3,8.25-20.3,11.7-14.3-8.25.15-.1,20.08-11.58ZM389.7,433.45l14.3,8.25-20.3,11.7-14.3-8.25,20.3-11.7ZM409.8,416.2l3.75,2.15-20.25,11.7-3.8-2.15,20.3-11.7ZM280.33,368.53c-.96-2.83-3.37-5.27-7.23-7.33-5.03-2.67-11-3.88-17.9-3.65-6.97.23-12.85,1.85-17.65,4.85-3.49,2.18-5.68,4.63-6.57,7.35-.04-.33-.06-.66-.08-1-.13-3.93,2.17-7.38,6.9-10.35,4.73-2.97,10.52-4.57,17.35-4.8,6.83-.23,12.72.97,17.65,3.6,4.93,2.6,7.47,5.88,7.6,9.85.02.5,0,.99-.07,1.48Z"/><path class="h" d="M342.8,108.25c-1.87,1.57-4.48,2.87-7.85,3.9-2.63.8-5.17,1.1-7.6.9-.33-.3-.67-.6-1-.9-.03,0-.05-.02-.05-.05-.07-.07-.13-.12-.2-.15-.03-.03-.1-.08-.2-.15-.1-.13-.25-.28-.45-.45-1.53-1.37-3.23-2.55-5.1-3.55-.2-.43-.42-.85-.65-1.25l-.9-1.8.05-.05c.4.2.83.4,1.3.6,2.87,1.33,5.17,2.25,6.9,2.75,2.73.77,5.02.87,6.85.3,3.43-1.03,5.75-2.53,6.95-4.5.2-.4.37-.77.5-1.1.2.4.37.8.5,1.2.23.57.45,1.17.65,1.8.2.87.3,1.7.3,2.5ZM331.3,117.45c-.67-.87-1.37-1.67-2.1-2.4-.07-.1-.15-.2-.25-.3-.07-.13-.18-.25-.35-.35.73-.13,1.6-.25,2.6-.35,2.57-.37,4.05-.6,4.45-.7.97-.3,2.15-.82,3.55-1.55,1.9-1,2.92-1.53,3.05-1.6.13-.03.25-.07.35-.1-.07.2-.12.4-.15.6l-.7,1.55s-.02.08-.05.15c-.03,0-.05.02-.05.05s-.02.08-.05.15l-2.45,3-3.55,1.7,1-2.6c-.57-.27-1.18-.35-1.85-.25-1.43.37-2.23,1.32-2.4,2.85l-1.05.15ZM158.5,11.15c-.07.03-.12.08-.15.15-.97,1.3-1.6,2.48-1.9,3.55-.17.6-.22,1.57-.15,2.9,0,.33-.08.62-.25.85l-.05-.1-.35-1s-.02-.07-.05-.1c0-.03-.02-.08-.05-.15-.83.4-1.57,1-2.2,1.8-.3.1-.72.12-1.25.05l-.4-.05h-.15v-1.05c0-4.57,1.57-8.17,4.7-10.8,1.17-.97,2.23-1.48,3.2-1.55.73-.03,1.2.22,1.4.75h-.1l-.1.1c-.63.27-1.17.68-1.6,1.25v.05h-.05v.05l-.05.05c-.6.83-.85,1.72-.75,2.65.03.27.13.47.3.6ZM176.08,18.6c-.06.26-.15.51-.28.75l-1.95,1.75c-.93.53-2.35.97-4.25,1.3l-.05.1c-.5.67-1.2,1.15-2.1,1.45-.5.17-1.28.33-2.35.5h-.4l-.25-.1c-.33-.13-.63-.37-.9-.7-.3-.33-.55-.62-.75-.85l-.25-.25c-.37-.43-.72-.73-1.05-.9-.3-.2-.63-.28-1-.25-.2-.4-.38-.87-.55-1.4-.9-3.77-1.35-5.68-1.35-5.75,0-.83.27-1.83.8-3,.27-.09.49-.26.65-.5l.7-.95c.23-.23.47-.47.7-.7.17-.17.33-.32.5-.45l.1-.05c.17-.13.35-.23.55-.3.03.17.05.37.05.6,0,.07-.2.68-.6,1.85-.4,1.2-.6,1.9-.6,2.1,0,1.3.42,2.62,1.25,3.95.47.3,1,.68,1.6,1.15,2.17,1.37,3.9,2.05,5.2,2.05,1.97,0,4.2-.72,6.7-2.15-.02.25-.06.5-.12.75ZM140.25,271.58v.27l-.7,3.2c-1.8.7-3.7,1.05-5.7,1.05-3.7,0-7.6-2.27-11.7-6.8-.6-.6-1.13-1.18-1.6-1.75v-.1c0-.17-.03-.38-.1-.65-.07-.8-.12-1.57-.15-2.3.47.73,1,1.55,1.6,2.45,3.33,3.97,7.1,5.95,11.3,5.95,2.7,0,4.88-.57,6.55-1.7.21-.14.41-.29.6-.45,0,.26-.03.53-.1.83ZM442.65,308.7c.4.63.93,1.53,1.6,2.7,2.23,3.03,5.18,4.55,8.85,4.55,1.28,0,2.41-.23,3.4-.7-.47.4-.8.9-1,1.5-.17.67-.18,1.27-.05,1.8.17.63.5,1.15,1,1.55.07-1.23.67-2.18,1.8-2.85.03-.03.07-.05.1-.05.77-.47,1.58-.7,2.45-.7-3.77,2.57-6,6.2-6.7,10.9-.07.37-.18.72-.35,1.05-1.2.17-2.37-.02-3.5-.55-.3-.17-.6-.35-.9-.55-1.37-.83-2.43-1.95-3.2-3.35-.27-1.6-.62-2.83-1.05-3.7-.67-1.37-1.6-2.17-2.8-2.4l-.4-1.05v2.15l-.45-.5s.02-.1.05-.2l.05-1.6v-.3s0-.05,0-.08c0-.08.03-.15.05-.23l3.3,1.35c2.47,1.23,4.12,2.68,4.95,4.35.57-.03.97-.52,1.2-1.45.1-1.03.23-1.7.4-2l-.2-.3c-3.57-.03-6.32-1.23-8.25-3.6-.53-.67-.95-1.35-1.25-2.05,0-.13.02-.23.05-.3l.4-1.95s.05-.07.05-.1c0-.07.02-.1.05-.1v-.05s.05-.07.05-.1c.07-.4.17-.77.3-1.1ZM462.25,316.05l-.85.3c-.4-.57-.8-.97-1.2-1.2-.6-.47-1.27-.62-2-.45h-.6c-.07,0-.1.02-.1.05-.1,0-.18.02-.25.05,1.2-.73,2-1.15,2.4-1.25h2.25c-.03.1-.05.2-.05.3s.02.22.05.35l.35,1.75v.1ZM138.65,276.9c-.4.77-.88,1.57-1.45,2.4-.36.33-.72.59-1.08.8h-.02c-.37.17-.7.3-1,.4-.03,0-.1.03-.2.1-.3.1-.63.2-1,.3l-.05.1c-.1,0-.18.02-.25.05-3.03.7-5.88-.12-8.55-2.45-.07-.37-.13-.75-.2-1.15-.1-1.27-.68-2.55-1.75-3.85l.4,2.4-.65-.55-1.58-4.5-.07-.2c0-.23-.03-.45-.1-.65.7.82,1.38,1.57,2.05,2.25,2.47,2.54,4.72,4.12,6.75,4.75.55.17,1.08.27,1.6.3,2.97.1,4.97.03,6-.2.5-.1.88-.2,1.15-.3ZM456.5,315.25c.05-.02.1-.05.15-.08.02,0,.03-.02.05-.02-.03.03-.08.07-.15.1h-.05ZM463.15,337.25l-.05.05s-.05.07-.05.1l-.05.15c-.79,1.18-1.37,2.22-1.75,3.12-.08.16-.14.32-.2.48-.33.27-.8.48-1.4.65-.67.13-1.17.27-1.5.4l-.3-.25c-.1-.13-.22-.25-.35-.35v-.05c.25-1.01.52-2.01.8-3,.9-3.32,1.9-6.6,3-9.85.77-2.23,1.1-4.53,1-6.9l.75-.15c2.1,3.37,2.7,6.87,1.8,10.5-.47,1.7-1.03,3.4-1.7,5.1Z"/><path class="ar" d="M441.75,312.4c-.1.53-.15,1.1-.15,1.7,0,.83-.02,1.57-.05,2.23,0,.02,0,.05,0,.08v.3l-.05,1.6c-.03.1-.05.17-.05.2-.2-2-.3-3.48-.3-4.45.03-1.73.43-3.15,1.2-4.25,0,.03-.02.07-.05.1v.05s-.05.03-.05.1c0,.03-.02.07-.05.1l-.4,1.95c-.03.07-.05.17-.05.3Z"/><path class="x" d="M318.85,104.7c1.13-2,2.67-3.63,4.6-4.9,2-1.3,4.18-2.15,6.55-2.55.6-.03,1.17-.03,1.7,0,2.3,0,4.4.62,6.3,1.85,1.5.93,2.62,2.15,3.35,3.65-.13.33-.3.7-.5,1.1-1.2,1.97-3.52,3.47-6.95,4.5-1.83.57-4.12.47-6.85-.3-1.73-.5-4.03-1.42-6.9-2.75-.47-.2-.9-.4-1.3-.6ZM328.6,114.4c-.3-.33-.6-.67-.9-1-.13-.1-.25-.22-.35-.35,2.43.2,4.97-.1,7.6-.9,3.37-1.03,5.98-2.33,7.85-3.9,0,.6-.07,1.22-.2,1.85-.1.03-.22.07-.35.1-.13.07-1.15.6-3.05,1.6-1.4.73-2.58,1.25-3.55,1.55-.4.1-1.88.33-4.45.7-1,.1-1.87.22-2.6.35ZM160,22.2c-.77,0-1.5-.28-2.2-.85-.5-.5-.95-1.15-1.35-1.95-.1-.2-.23-.47-.4-.8.17-.23.25-.52.25-.85-.07-1.33-.02-2.3.15-2.9.3-1.07.93-2.25,1.9-3.55.03-.07.08-.12.15-.15.03,0,.07.02.1.05.1.07.23.1.4.1h.2c.1,0,.17-.02.2-.05-.53,1.17-.8,2.17-.8,3,0,.07.45,1.98,1.35,5.75.17.53.35,1,.55,1.4-.17.03-.33.07-.5.1v.7ZM160.85,6.4c-.2-.53-.67-.78-1.4-.75-.97.07-2.03.58-3.2,1.55-3.13,2.63-4.7,6.23-4.7,10.8v1.05c-.3-.03-.52-.03-.65,0,0-.6-.13-1.35-.4-2.25-.3-.97-.53-1.72-.7-2.25-.2-.83-.25-1.55-.15-2.15.1-.73.4-1.4.9-2,.07-.1.23-.6.5-1.5.2-.63.45-1.12.75-1.45.87-1.07,2.08-1.78,3.65-2.15,1.03-.23,2.47-.35,4.3-.35.33-.03.65.12.95.45.13.17.33.45.6.85l-.15.05c-.07.03-.15.05-.23.08l-.07.02ZM162.6,8.3c.1-.07.2-.12.3-.15.13-.07.27-.1.4-.1,1.8-.77,3.72-.7,5.75.2,1.8.8,3.33,2.05,4.6,3.75.9,1.03,1.53,1.9,1.9,2.6.57,1.03.8,2.05.7,3.05v.12s-.02.05-.05.08c-2.5,1.43-4.73,2.15-6.7,2.15-1.3,0-3.03-.68-5.2-2.05-.6-.47-1.13-.85-1.6-1.15-.83-1.33-1.25-2.65-1.25-3.95,0-.2.2-.9.6-2.1.4-1.17.6-1.78.6-1.85,0-.23-.02-.43-.05-.6ZM139.4,265.83c.61,1.31.93,2.67.98,4.08,0,.28,0,.56-.02.85-.19.16-.39.31-.6.45-1.67,1.13-3.85,1.7-6.55,1.7-4.2,0-7.97-1.98-11.3-5.95-.6-.9-1.13-1.72-1.6-2.45v-.85c0-.83.18-1.6.55-2.3.28-.53.57-1.02.87-1.45,2.51-3.61,5.94-4.11,10.27-1.5,3.69,2.26,6.16,4.73,7.4,7.42ZM456.65,315.17s-.1.05-.15.08c-.99.47-2.12.7-3.4.7-3.67,0-6.62-1.52-8.85-4.55-.67-1.17-1.2-2.07-1.6-2.7.43-1.27,1.32-2.33,2.65-3.2,1.67-1.03,3.38-1.43,5.15-1.2,2.6.03,4.98.9,7.15,2.6,2.07,1.67,3.5,3.77,4.3,6.3-.03.13-.05.25-.05.35h-2.2c-.4.1-1.2.52-2.4,1.25.07-.03.15-.05.25-.05-.3.09-.58.23-.85.42ZM454.05,329.7c0-.43.03-.87.1-1.3l-.4.05c.17-.33.28-.68.35-1.05.7-4.7,2.93-8.33,6.7-10.9.23,0,.45-.05.65-.15h-.05l.85-.3c2.2,2.93,3.73,6.15,4.6,9.65.17.73.3,1.5.4,2.3l-.15,1.6c-.37,2.07-1.2,3.92-2.5,5.55-.53.7-1.02,1.4-1.45,2.1.67-1.7,1.23-3.4,1.7-5.1.9-3.63.3-7.13-1.8-10.5l-.75.15c.1,2.37-.23,4.67-1,6.9-1.1,3.25-2.1,6.53-3,9.85-.28.99-.54,1.99-.8,3-.96-1.54-1.71-3.14-2.28-4.8-.73-2.17-1.12-4.46-1.17-6.85v-.2ZM441.55,316.33c.03-.65.05-1.39.05-2.23,0-.6.05-1.17.15-1.7.3.7.72,1.38,1.25,2.05,1.93,2.37,4.68,3.57,8.25,3.6l.2.3c-.17.3-.3.97-.4,2-.23.93-.63,1.42-1.2,1.45-.83-1.67-2.48-3.12-4.95-4.35l-3.3-1.35c-.02.07-.04.15-.05.23ZM139.55,275.05c-.27.63-.57,1.25-.9,1.85-.27.1-.65.2-1.15.3-1.03.23-3.03.3-6,.2-.52-.03-1.05-.13-1.6-.3-2.03-.63-4.28-2.21-6.75-4.75-.67-.68-1.35-1.43-2.05-2.25-.27-.87-.45-1.72-.55-2.55.47.57,1,1.15,1.6,1.75,4.1,4.53,8,6.8,11.7,6.8,2,0,3.9-.35,5.7-1.05Z"/><path class="bt" d="M152.35,30.45c-.47-.87-.83-1.8-1.1-2.8-.07-.23-.13-.48-.2-.75l2.15-1.85c-.17.2-.28.43-.35.7-.43,1.03-.32,2.12.35,3.25.37.63.85,1.17,1.45,1.6.6.43,1.25.75,1.95.95,1.53.4,3,.62,4.4.65.3,0,.62-.02.95-.05,1.63-.1,3.05-.52,4.25-1.25.23-.13.45-.3.65-.5l.9.5c-1.1,1.2-2.4,2.03-3.9,2.5-1.63.43-3.3.57-5,.4-.77-.03-1.5-.18-2.2-.45l.05.05s-.42-.07-1.25-.3c-.93-.3-1.97-1.18-3.1-2.65ZM163.3,8.05c-.13,0-.27.03-.4.1-.1.03-.2.08-.3.15-.2.07-.38.17-.55.3l-.1.05c-.17.13-.33.28-.5.45-.23.23-.47.47-.7.7l-.7.95c-.16.24-.38.41-.65.5-.03.03-.1.05-.2.05h-.2c-.17,0-.3-.03-.4-.1-.03-.03-.07-.05-.1-.05-.17-.13-.27-.33-.3-.6-.1-.93.15-1.82.75-2.65l.05-.05v-.05h.05v-.05c.43-.57.97-.98,1.6-1.25.07-.03.13-.07.2-.1l.07-.02c.08-.02.17-.05.28-.08.4.03.8.23,1.2.6.23.23.53.62.9,1.15ZM163.25,72.05l-.45-.5c-1-1-2.1-2.23-3.3-3.7l-2.7-3.4c-.7-.9-1.23-1.53-1.6-1.9,1.43.5,3.12.75,5.05.75.95,0,1.87-.07,2.77-.2,3.04-.43,5.8-1.59,8.27-3.5,1.33-.97,2.33-1.9,3-2.8.1.27.17.53.2.8.23.73.47,1.88.7,3.45-3.53.73-5.3,3.18-5.3,7.35,0,.22.62,1.3,1.87,3.23.05.09.11.18.18.27.33.5.63.95.9,1.35l-1.95,1.15c-.87-.33-1.77-.52-2.7-.55-.06,0-.12-.02-.18-.02-.24-.02-.51-.05-.82-.08h-1c-.83-.07-1.45-.3-1.85-.7-.13-.1-.27-.23-.4-.4l-.25-.2c-.05-.04-.1-.09-.15-.12-.1-.09-.2-.18-.3-.28ZM461.4,316.35h.05c-.2.1-.42.15-.65.15-.87,0-1.68.23-2.45.7-.03,0-.07.02-.1.05-1.13.67-1.73,1.62-1.8,2.85-.5-.4-.83-.92-1-1.55-.13-.53-.12-1.13.05-1.8.2-.6.53-1.1,1-1.5h.05c.07-.03.12-.07.15-.1-.02,0-.03.02-.05.02.27-.19.55-.34.85-.42,0-.03.03-.05.1-.05h.6c.73-.17,1.4-.02,2,.45.4.23.8.63,1.2,1.2ZM161.75,79.45v-.1c-.27-.23-.57-.47-.9-.7-.16-.11-.32-.23-.48-.35-3.34-2.39-5.65-4.93-6.92-7.6.5.37,1.03.73,1.6,1.1,1.93,1.23,3.22,2.08,3.85,2.55l1.35,1c.1.1.2.18.3.25.1.07.2.13.3.2l.55.55c.3.3.57.59.83.88.06.06.12.11.17.17-.03.03-.05.07-.05.1-.07.1-.1.18-.1.25-.13.3-.23.58-.3.85-.06.22-.11.43-.15.65-.02.07-.03.14-.05.2ZM148.25,71.75c.4,1.57.88,3.08,1.45,4.55-.33-.77-.63-1.57-.9-2.4-.23-.7-.42-1.42-.55-2.15ZM453.75,328.45l.4-.05c-.07.43-.1.87-.1,1.3-.73.4-1.6.82-2.6,1.25-1.61.71-3.12,1.27-4.53,1.7-2.1.63-3.96.95-5.58.95h-.15c.3-.23.63-.47,1-.7.03,0,.07-.02.1-.05.53-.33,1.02-.7,1.45-1.1.07-.07.12-.12.15-.15.12-.02.24-.04.37-.07,1.15-.23,2.64-.72,4.47-1.48,1.2-.47,2.15-.88,2.85-1.25.63-.07,1.35-.18,2.15-.35Z"/><path class="ad" d="M332.35,117.3h3.25l3.55-1.7c-.04.09-.08.18-.12.27-.83,1.7-1.71,3.36-2.62,4.98-.23.5-.58.93-1.05,1.3-1.03.93-2.25,1.58-3.65,1.95-1.7.37-3.08-.13-4.15-1.5-.33-.39-.59-.8-.77-1.23-.15-.31-.26-.64-.33-.98.73.09,1.42.08,2.08-.02,1.28-.22,2.44-.81,3.47-1.77.05-.05.1-.1.15-.15,0-.07.03-.12.1-.15v-.4l-.95-.45,1.05-.15ZM160,22.2c.6,1.77,1.48,3.37,2.65,4.8,1.23,1.53,2.63,2.67,4.2,3.4-.2.2-.42.37-.65.5-1.2.73-2.62,1.15-4.25,1.25-.33.03-.65.05-.95.05,0-.03.02-.07.05-.1.1-.4.15-.73.15-1,0-1.07-.25-2.13-.75-3.2-.87-1.87-2.33-2.8-4.4-2.8-1.13,0-2.17.2-3.1.6-.03,0-.07.02-.1.05.07-.27.18-.5.35-.7,1.7-1.3,3.23-2.53,4.6-3.7.7.57,1.43.85,2.2.85ZM188.3,97.3c.53-1.37.82-2.65.85-3.85.03-1.03-.08-2-.35-2.9.27-.77.65-1.47,1.15-2.1-.07-.57-.43-.98-1.1-1.25-.37-.13-.97-.25-1.8-.35-.27-.03-.53-.05-.8-.05-.7-.77-1.53-1.55-2.5-2.35-.03-.03-.07-.07-.1-.1-.37-.32-.84-.68-1.4-1.1-.14-.11-.29-.23-.45-.35,0-.03.03-.05.1-.05l11.65-6.75c.12.17.23.32.33.48.04.06.09.12.12.17.4.57.9,1.15,1.5,1.75-.27.27-.6.52-1,.75-1.73,1.07-2.6,2.83-2.6,5.3,0,.3.12.85.35,1.65.2.77.3,1.28.3,1.55,0,.13-.3,2.57-.9,7.3-.67,2.67-1.55,4.57-2.65,5.7-.07-.23-.13-.45-.2-.65l-.5-2.8ZM192.05,116.3c.03-.73,0-1.52-.07-2.4-.01-.05-.02-.1-.02-.15.03.04.05.08.07.12.21.32.42.76.62,1.33,0,.07.07.9.2,2.5.03,1,.13,1.78.3,2.35.37,1.2,1.08,2.78,2.15,4.75.38.66.88,1.51,1.5,2.55.41.7.88,1.48,1.4,2.35.53-.27,1.28-1,2.25-2.2.53.9.85,1.6.95,2.1-.2.83-.72,1.53-1.55,2.1-.83.6-1.68.82-2.55.65-.18-.05-.34-.13-.5-.23-.34-.24-.62-.6-.85-1.08-.13-.2-.38-.78-.75-1.75-.27-.77-.67-1.7-1.2-2.8-.57-1.2-1-2.1-1.3-2.7-1-2.2-1.53-4.13-1.6-5.8-.07-.3.03-.6.3-.9.33-.37.55-.63.65-.8ZM182.95,65.25c.03.67.22,1.3.55,1.9l-5.1,2.95c.07-.1.12-.2.15-.3,1.23-2.2,2.7-3.72,4.4-4.55ZM453.75,328.45c-.8.17-1.52.28-2.15.35-.7.37-1.65.78-2.85,1.25-1.83.75-3.33,1.24-4.47,1.48-.13.03-.26.05-.37.07.05-.05.1-.1.15-.15,1.38-1.46,1.83-3.04,1.35-4.75.2-.07-.3-.98-1.5-2.75.6.57,1.27.95,2,1.15l.25-1.1c.77,1.4,1.83,2.52,3.2,3.35.3.2.6.38.9.55,1.13.53,2.3.72,3.5.55Z"/><path class="ae" d="M393.88,318.83c-.11-.92.07-1.86.53-2.83.46.56.92,1.12,1.37,1.67,3.97,4.9,7.8,9.87,11.47,14.92,1.2,1.63,2.62,3.12,4.25,4.45.77.57,1.55,1.05,2.35,1.45,5.5,2.73,11.23,4.63,17.2,5.7.84.2,1.73.21,2.65.05.16-.03.33-.06.5-.1,3-.8,4.8-2.67,5.4-5.6-1-.23-1.98-.58-2.95-1.05-.06-.03-.12-.05-.18-.08.29-.28.56-.54.83-.77l.4-.35c.13-.1.27-.2.4-.3.93.3,1.77.73,2.5,1.28.29.28.6.56.93.85,1.14,1.23,1.93,2.87,2.37,4.92.8,3.7,1.2,8.5,1.2,14.4,0,6.53-1.58,14.42-4.75,23.65-.6,1.8-1.22,3.45-1.85,4.95-2.1-1-3.6-2.5-4.5-4.5-.73-1.53-1.12-3.35-1.15-5.45.13-1.9.53-3.8,1.2-5.7,2.13-5.97,2.53-11.92,1.2-17.85-.2-.54-.39-1.06-.55-1.58-1.65-.47-3.3-1-4.95-1.57-6.5-2.57-12.88-5.4-19.15-8.5-.7-.33-1.33-.8-1.9-1.4-4.6-4.77-8.65-9.95-12.15-15.55-.67-1.03-1.32-2.05-1.95-3.05-.4-.68-.64-1.37-.72-2.08Z"/><path class="u" d="M468.35,389.5c-.6,1.3-1.25,2.72-1.95,4.25-4.53,9.87-7.08,16.43-7.65,19.7-.5,2.97-1.58,9.75-3.25,20.35-.33,1.8-.65,3.42-.95,4.85-.03-.93-.05-1.83-.05-2.7-.07-2.73-.33-5.78-.8-9.15-.53-3.37-.98-7.03-1.35-11-.4-3.97-.6-7.75-.6-11.35v-.75l-.05-8.05v-.5c1.2-3.07,2.6-5.93,4.2-8.6v-.05c.13-.03.27-.07.4-.1,5.8-1.8,9.78-4.48,11.95-8.05.07-.07.17-.18.3-.35.03-.03.07-.08.1-.15.03-.03.07-.07.1-.1.1-.13.2-.27.3-.4.03.23.05.45.05.65.8,2.5.62,6.03-.55,10.6-.1.3-.17.6-.2.9ZM430.4,418.85c-.81-2.59-1.33-5.25-1.55-7.97-.02-.29-.03-.58-.05-.88-.1-2.73.05-5.47.45-8.2.73-4.63,1.68-9.28,2.85-13.95.57-2.1,1.2-4.2,1.9-6.3.9,2,2.4,3.5,4.5,4.5,1.6.8,3.55,1.3,5.85,1.5h5.85c.2-.02.4-.03.6-.05-1.57,1.27-2.93,2.38-4.1,3.35-5.8,5.03-10.2,10.58-13.2,16.65-.15.24-.65,1.98-1.5,5.2-.44,1.65-.98,3.7-1.6,6.15ZM123.2,339.85c-3.49.11-6.47-.62-8.95-2.17-.58-.36-1.13-.77-1.65-1.22.93-3.1,1.62-5.87,2.05-8.3.3-1.59.43-3.18.4-4.75-.04-1.37-.2-2.74-.5-4.1-.07-.6-.22-1.18-.45-1.75-.17-.37-.37-.7-.6-1-.08-.1-.16-.2-.25-.3-.1-.3-.22-.63-.35-1-.23-.67-.42-1.4-.55-2.2-.18-.99-.32-1.97-.4-2.95-.13-1.5-.13-3-.03-4.47,1.05.41,2.18.63,3.37.67,2.03.23,4.08-.13,6.15-1.1,2.03-.97,2.93-2.62,2.7-4.95-.2-2.37-.63-4.02-1.3-4.95-.7-.97-1.32-1.62-1.85-1.95-.5-.33-1.07-.63-1.7-.9-.17,0-.28-.02-.35-.05-.58-.23-1.14-.49-1.68-.78.33-.04.68-.03,1.02.03.42.05.83.16,1.23.3,1.53.57,2.89,1.8,4.08,3.7,1.16,1.81,1.9,3.97,2.23,6.5.12.96.17,1.98.17,3.05,0,.2-.06,1.61-.17,4.22-.03.92-.07,2-.12,3.23v.4l-2.5,26.8Z"/><path class="v" d="M151.52,287.37c.2,2.26-.05,4.8-.75,7.62-.64,2.64-1.66,5.53-3.07,8.65-.29.53-.57,1.05-.85,1.55-.13.25-.27.5-.4.75l-.1.2c-.07.37-.42,1.43-1.05,3.2-.23.73-.35,1.75-.35,3.05,0,.8.1,1.6.3,2.4.29,1.54.57,3.09.83,4.65.41,2.51.77,5.05,1.07,7.6-1.03,1.7-2.27,3.25-3.7,4.65-1.57,1.43-3.37,2.72-5.4,3.85-2.13,1.17-4.53,2.13-7.2,2.9-1.47.43-3.02.8-4.65,1.1-1.03.17-2.03.27-3,.3l2.5-26.8v-.4c.05-1.23.09-2.3.12-3.23.12-2.62.17-4.03.17-4.22,0-1.07-.06-2.09-.17-3.05-.33-2.53-1.07-4.69-2.23-6.5-1.19-1.9-2.55-3.13-4.08-3.7-.39-.14-.8-.25-1.23-.3-.35-.05-.69-.06-1.02-.03-.05-.03-.1-.05-.15-.08.35-.44.74-.89,1.17-1.35.77-.8,1.67-1.63,2.7-2.5,1.3-.97,2.72-1.98,4.25-3.05l-.55,2.05c.73.13,1.47.2,2.2.2.49.02.98.02,1.45,0,2.03-.1,3.85-.58,5.48-1.43,1.77-.92,3.3-2.3,4.57-4.12,0-.07.03-.13.1-.2,0-.07.03-.12.1-.15l-.55-.65-.65-.75c.3-.23.58-.45.85-.65.8-.4,1.55-.8,2.25-1.2,1.85-.75,3.45-1.12,4.77-1.1,1.14.01,2.08.31,2.83.9.6.54,1.14,1.33,1.62,2.38.7,1.57,1.26,3.71,1.67,6.42.05.34.09.68.12,1.03ZM455.2,453.15c-.13-.03-.25-.03-.35,0-.73,0-1.22-.13-1.45-.4-.4-.4-.4-1.03,0-1.9.67-1.53,1.03-3.72,1.1-6.55.03-1.93.05-3.82.05-5.65.3-1.43.62-3.05.95-4.85,1.67-10.6,2.75-17.38,3.25-20.35.57-3.27,3.12-9.83,7.65-19.7.7-1.53,1.35-2.95,1.95-4.25-.3,1.6-.68,3.22-1.15,4.85-.87,2.87-1.42,5.88-1.65,9.05-.3,3.23-.33,6.52-.1,9.85.4,5.2.2,10.33-.6,15.4-.8,5.07-1.78,9.95-2.95,14.65-1.23,4.7-1.43,7.45-.6,8.25-.1.03-.18.05-.25.05-.03-.07-.08-.15-.15-.25-.57.1-1.38.27-2.45.5-1.07.2-1.87.33-2.4.4-.33.23-.62.53-.85.9ZM441.75,456.2c-.43.27-.82.5-1.15.7-.5.33-.98.57-1.45.7-.57.2-.87.05-.9-.45-.03-.3.03-.72.2-1.25.4-1.5.27-4.55-.4-9.15-.51-3.35-1.18-6.68-2-10-.31-1.23-.65-2.47-1-3.7-.13-.49-.27-.97-.4-1.45-.41-1.47-.83-2.89-1.25-4.25-.72-2.29-1.46-4.42-2.2-6.4-.3-.7-.57-1.4-.8-2.1.62-2.45,1.16-4.5,1.6-6.15.85-3.22,1.35-4.96,1.5-5.2,3-6.07,7.4-11.62,13.2-16.65,1.17-.97,2.53-2.08,4.1-3.35,1.78-.18,3.48-.5,5.1-.95-1.6,2.67-3,5.53-4.2,8.6v.5c-.07-.33-.1-.65-.1-.95-.47.6-.85,1.2-1.15,1.8-2.2,4.5-4.27,9.02-6.2,13.55-.63,1.63-.75,3.28-.35,4.95.8,3.07,1.35,5.72,1.65,7.95.24,1.68.36,3.93.35,6.75,0,.45,0,.92,0,1.4-.01.62-.03,1.27-.05,1.95-.17,4.43-.1,8.37.2,11.8.27,3.4.9,5.87,1.9,7.4-.03,0-.05.02-.05.05-.43.2-1.13.55-2.1,1.05-.9.4-1.57.78-2,1.15-.17.23-.35.47-.55.7-.3.2-.62.42-.95.65-.2.13-.38.25-.55.35Z"/><path class="r" d="M462.05,459.9c-.12.95-.16,1.95-.1,3,.07,1.47.28,3.15.65,5.05-.6.27-1.13.4-1.6.4-.67.03-1.13-.2-1.4-.7-.1-.37-.2-.98-.3-1.85-.13-.77-.25-1.37-.35-1.8-1.33.43-2.35.73-3.05.9-1.2.37-2.22.55-3.05.55h-.05c-.07-.03-.15-.07-.25-.1.33-.3.7-.62,1.1-.95,1.4-1.33,2.47-2.83,3.2-4.5.36-.75.93-1.42,1.7-2,.5-.37,1.08-.7,1.75-1,1.2-.57,2-.5,2.4.2-.07.27-.15.53-.25.8-.18.64-.31,1.31-.4,2ZM446.8,469.75c-.17-.07-.3-.15-.4-.25-.13-1.43-.25-2.52-.35-3.25-.23-1.37-.73-2.35-1.5-2.95-.13,1.3-.78,2.52-1.95,3.65-.47.37-1.62,1.17-3.45,2.4-.1.03-.2.07-.3.1-.63.13-1.3.15-2,.05,1.1-.5,2.18-1.2,3.25-2.1,1.53-1.27,2.55-2.45,3.05-3.55.57-1.17,1.82-2.53,3.75-4.1,2.23-1.8,3.35-1.7,3.35.3v1.45c-.03-.1-.05-.22-.05-.35l-.05-.35c-.4,1.27-.62,2.72-.65,4.35-.03,1.13.03,2.58.2,4.35-.83.23-1.8.32-2.9.25Z"/><path class="z" d="M351.28,244.35l1.97,6.33,5.08,16.15,1.27,4.08-4.55,2.5-3.08-10.18-1.12-3.67-3.2,1.8-23.75,13.7,4.05,13.4-4.5,2.5-12.42-39.62-1.15-3.67-3.15-10-3.07-9.8-15.35-48.87-10.35-32.93,4.05.45.05.1,4.75.5c1.97-.06,3.93-.16,5.87-.3l-4.47,2.58-3.15,1.83,3.15,9.88,2.7,8.47.5,1.55,2.5-1.45c.28,1.67.75,3.28,1.43,4.83l-2.43,1.42,5.75,18.4.5,1.65,5.45-3.15,2.28,4.28-6.17,3.57.3,1h-.05l5.45,17.45.05.05h-.05l.5,1.6,3.75-2.15c.19.03.39.05.6.05,1.07.2,1.93-.03,2.6-.7,2.23-1.53,4.43-3.12,6.6-4.75l1.3.8h.25c2.98-1.15,5.09-3.01,6.33-5.58l3.42-1.97.65,3.35-.08,1.83-.03.02-23.95,13.6,5.05,16.25.75,2.4.05.05h-.05l.5,1.65,13.07-7.55,4.78,1.7c.07.27.16.56.25.85l-14.45,8.2-2.1,1.2,5.6,18.35.6,2,27-15.6-6.3-20.05-.77.42,1.8-13.58,2.08,6.67,1.72,5.48.75,2.4,1.98,6.28.62,1.97ZM265.95,74.5l-4.3,2.5,1,3.25h.05l3.25,10.38.32,1.02-1.12-.65h-.1c-.06-.03-.13-.06-.22-.1.1.04.21.07.32.1l-4.7-2.7h-.05c-.19-.11-.41-.18-.65-.2l-1.5-4.75-1.2-3.85-.77-2.5-4.67-14.85h.05l-1.95-6.4-.1-.15,4.5-2.7,5.55,17.8h-.05l.5,1.6h.05l26.9-15.5-2.7-8.5h.1l-3.45-11.05,4.5-2.6,6.8,21.68,22.5,71.72-2.35-.2-2.45-.2-.5.02-2.4-7.82h-.05l-2.95-8.9-3.05,1.75-12.85,7.45-10.95,6.35,1,3.15h.1l2.52,8.15c-1.78.16-3.56.32-5.35.48l-2.77-8.82-1.85-5.9v-17.47l4.35,14.02v.05h-.05l.5,1.6,27-15.55-5.05-15.85h-.05l-1.3-4.1-3,1.7-.05.05-5.05,2.92-11.95,6.93-5.35,3.07v-4.17c0-.53-.04-.99-.12-1.4l24.08-13.85-6.3-20.05-3.05,1.75-9.25,5.35-10.3,5.95ZM202.95,130.1c.83.92,1.43,1.99,1.8,3.2.43,1.3.53,2.6.3,3.9-.4.73-1.05,1.18-1.95,1.35-.05,0-.1.02-.15.03-.72.1-1.47.04-2.25-.18-1.27-.4-2.23-.8-2.9-1.2-.22-.11-.43-.24-.62-.38.22.18.47.39.73.62,1.27,1.17,1.85,2.38,1.75,3.65.1.67-.17,1.2-.8,1.6-.43.33-1.02.57-1.75.7-.1.01-.2.03-.3.05-1.39.15-2.72.14-4-.05-1.5-.23-2.87-.68-4.1-1.35-.77-.53-1.35-1.37-1.75-2.5-.13-.4-.37-1.4-.7-3v1.45c-.5.33-1,.52-1.5.55-.6.03-1.12-.15-1.55-.55.13-1.73.03-3.47-.3-5.2-.33-1.73-.85-3.4-1.55-5-.33-1.07-.13-2.17.6-3.3.57-.87,1.42-1.72,2.55-2.55v.1c-.3.8-.45,1.58-.45,2.35,0,.83.17,1.62.5,2.35.43.87,1.03,2.3,1.8,4.3.73,1.9,1.33,3.35,1.8,4.35.3.83.82,1.48,1.55,1.95.73.53,1.5.68,2.3.45,1.07-.4,1.82-.78,2.25-1.15.77-.67.93-1.37.5-2.1.3.43.8.93,1.5,1.5.07.07.17.15.3.25-.4-.37-.72-.78-.95-1.25-.27-.7-.52-1.77-.75-3.2-.2-1.43-.43-2.48-.7-3.15,0,.4-.12.77-.35,1.1-.2.27-.43.48-.7.65-.07-.2-.12-.4-.15-.6-.17-1.13-.3-1.98-.4-2.55-.17-1-.38-1.83-.65-2.5-.87-2.13-1.58-4.62-2.15-7.45.13-.13.28-.27.45-.4.6-.37,1.22-.58,1.85-.65-.1.17-.32.43-.65.8-.27.3-.37.6-.3.9.07,1.67.6,3.6,1.6,5.8.3.6.73,1.5,1.3,2.7.53,1.1.93,2.03,1.2,2.8.37.97.62,1.55.75,1.75.23.48.51.84.85,1.08.16.1.32.17.5.23.87.17,1.72-.05,2.55-.65.83-.57,1.35-1.27,1.55-2.1-.1-.5-.42-1.2-.95-2.1-.07-.07-.12-.12-.15-.15-.6-.93-.93-1.7-1-2.3.37.57.92,1.4,1.65,2.5.63.97,1.23,1.75,1.8,2.35.06.07.13.13.2.2ZM317.95,161.3l-7.4-1.25,7.75-4.45-3.4-11.05h-.05l-.32-1.05c.61-.1,1.19-.24,1.72-.4.47-.12.92-.27,1.35-.43.03.16.06.32.1.48.07.47.18.93.35,1.4l1.7,9.3-.62,6.77-1.17.67ZM307.08,134.05c-1.11.26-2.23.5-3.35.73l2.55-1.45.62.38.17.35ZM319,190.02l-1.8-4.48,5-2.9,3.25,1.25,2.75.35.67,5.02-1.33-4.23-3,1.75-5.55,3.23ZM446.4,469.5c.1.1.23.18.4.25-.13-.03-.27-.05-.4-.05v-.2Z"/><path class="az" d="M410.25,314.9c.4,1.67,1.4,2.72,3,3.15.22.06.46.12.7.17-.33.22-.66.43-1,.62-2.57,1.43-4.33.73-5.3-2.1-.77-2.33-.85-4.67-.25-7,1.23-4.7,3.78-8.5,7.65-11.4,1.4-1,2.88-1.88,4.45-2.65,1.66-.45,2.86-.08,3.6,1.12-5.74,1.4-9.81,5.03-12.2,10.88-.1.2-.15.4-.15.6-.7,2.8-.87,5-.5,6.6ZM431.5,324.5c-.65-.24-1.23-.54-1.72-.9-.51-.39-.93-.84-1.28-1.35-.25-.34-.45-.72-.6-1.12-.2-.59-.3-1.25-.3-1.97v-.1c.01-1.56.26-2.84.75-3.85.32-.7.76-1.26,1.3-1.7.56-.43,1.18-.71,1.87-.83.8-.15,1.69-.09,2.67.17,1.67.4,3.13,1.27,4.4,2.6-.53-.07-1.1-.08-1.7-.05-1.41.09-2.53.47-3.37,1.12-.3.23-.57.5-.8.8-.05.06-.1.13-.15.2-.62.93-.92,2.18-.92,3.72v.12c0,.12.03.25.07.4.13.47.41,1.06.85,1.77.04.07.08.13.12.2.23.38.46.7.7.97.08.1.17.19.25.28-.12-.02-.25-.03-.37-.05-.65-.11-1.24-.26-1.78-.45Z"/><path class="aj" d="M428.35,315.2c-.49,1.01-.74,2.29-.75,3.85h-.1c-5.06,0-9.2-.54-12.4-1.62-1.33-.45-2.49-.99-3.5-1.62-.53-.27-.98-.57-1.35-.9-.37-1.6-.2-3.8.5-6.6,0-.2.05-.4.15-.6,1.73.5,4.12,1.4,7.15,2.7.85.38,1.76.79,2.73,1.22,2.23,1.02,4.75,2.21,7.57,3.58Z"/><path class="bs" d="M431.53,312.67c-.69.12-1.32.39-1.87.83-.54.44-.98,1-1.3,1.7-2.82-1.36-5.34-2.55-7.57-3.58-.96-.44-1.87-.85-2.73-1.22-3.03-1.3-5.42-2.2-7.15-2.7,2.39-5.85,6.46-9.47,12.2-10.88.02-.01.03-.02.05-.03,3.51,6.62,6.3,11.91,8.37,15.88ZM410.25,314.9c.37.33.82.63,1.35.9,1.01.64,2.17,1.18,3.5,1.62,3.2,1.08,7.34,1.62,12.4,1.62h.1v.1c0,.72.1,1.38.3,1.97-.21-.04-.42-.08-.65-.12-5.86-1.08-10.3-2-13.3-2.78-.24-.06-.48-.12-.7-.17-1.6-.43-2.6-1.48-3-3.15Z"/><path class="aq" d="M439.03,324.4c-.78.47-1.8.7-3.08.7-.83,0-1.6-.03-2.3-.1-.08-.08-.17-.17-.25-.28-.24-.27-.47-.6-.7-.97-.04-.07-.08-.13-.12-.2-.44-.71-.72-1.31-.85-1.77-.04-.15-.06-.28-.07-.4v-.12c0-1.55.31-2.79.92-3.72.05-.07.1-.14.15-.2.23-.3.5-.57.8-.8.84-.66,1.97-1.03,3.37-1.12.6-.03,1.17-.02,1.7.05.07.07.12.13.15.2.83.91,1.42,1.85,1.75,2.82-.54-.4-1.33-.52-2.35-.38-2.12.28-3.23,1.28-3.35,3v.3s.1.47.3,1.3c.3.49.77.84,1.43,1.05.44.13.96.2,1.57.2.24,0,.45,0,.65-.03.09,0,.17-.02.25-.02.34-.06.65-.15.92-.28-.25.31-.55.56-.9.78Z"/><path class="o" d="M429.45,226.6l1.35.85-54.35,31.4-25.17-14.5-.62-1.97,25.65,14.78v.1h.2l52.95-30.65ZM379.45,249h.1l46.05-31.35,5.2,2.95-54.35,31.45-27.78-15.95-.75-2.4,31.42,15.15v.15h.1ZM439.92,323.62c-.27.13-.58.22-.92.28-.11-.02-.21-.03-.3-.05-.66-.15-1.08-.4-1.25-.75.02-.28.02-.49.02-.65.02-.17.03-.27.03-.3,0-1.47.85-2.38,2.55-2.75.25-.06.47-.09.67-.1.16-.01.3-.01.43,0,.08.19.15.41.2.65.07.2.1.45.1.75v.2c0,1.37-.51,2.28-1.53,2.72Z"/><path class="br" d="M327.35,113.05c.1.13.22.25.35.35.3.33.6.67.9,1,.17.1.28.22.35.35.1.1.18.2.25.3-.3.7-.83,1.17-1.6,1.4-.13.03-1.62-.83-4.45-2.6-1.17-.73-2.08-1.33-2.75-1.8v-.25c.03-1.33.02-2.67-.05-4,1.87,1,3.57,2.18,5.1,3.55.2.17.35.32.45.45.1.07.17.12.2.15.07.03.13.08.2.15,0,.03.02.05.05.05.33.3.67.6,1,.9ZM178.15,56l-.05-.05-.25-.35c-.21-.28-.41-.55-.6-.8-1.03-1.36-1.73-2.29-2.1-2.8-.97-1.33-1.72-2.6-2.25-3.8.33-.47.77-.93,1.3-1.4.33-.33.82-.78,1.45-1.35.23-.2.45-.38.65-.55.43-.43.8-.85,1.1-1.25l.7-1.2.8,1.5c.07.13.15.27.25.4-.13.37-.28.77-.45,1.2-.87,2.57-1.3,4.7-1.3,6.4,0,.32.14,1.17.43,2.52.09.45.2.96.32,1.52ZM176.25,21.25c-.33.27-.72.53-1.15.8-2.53,1.7-5.52,2.55-8.95,2.55-.37,0-.72-.05-1.05-.15,1.07-.17,1.85-.33,2.35-.5.9-.3,1.6-.78,2.1-1.45l.05-.1c1.9-.33,3.32-.77,4.25-1.3l1.95-1.75c.12-.24.21-.49.28-.75.08-.27.14-.55.17-.83.03.13.05.27.05.43.1,1.17.08,2.18-.05,3.05ZM176.4,36.8c-.07-.07-.12-.12-.15-.15l-.15-.2s-.05-.05-.08-.08c-.04-.03-.08-.06-.12-.08-.07-.09-.15-.17-.23-.25-.12-.15-.25-.3-.37-.45l-.5-.65c-.1-.17-.2-.32-.3-.45-1.13-1.77-1.63-3.57-1.5-5.4.4-.1.65-.33.75-.7.07-.23.1-.62.1-1.15-.03-.63-.03-1.07,0-1.3.03-.47.22-.83.55-1.1.33,3.43.53,5.45.6,6.05.27,1.83.62,3.47,1.05,4.9.03.07.07.15.1.25.07.23.15.48.25.75ZM312.45,127.85l2.35.2,1.8.15v2.85c-.01.09-.02.18-.02.28-1.28.43-2.56.84-3.85,1.22l-.27-4.05v-.65ZM169.9,78.85l1.15.7c.17.2.43.55.8,1.05.32.5.6.85.85,1.07.03.02.07.05.1.08.43.3.9.4,1.4.3-.03-.27-.13-.55-.3-.85l4.3,2.5c.5.3,1.27.23,2.3-.2.3-.07.73-.27,1.3-.6.16.12.31.24.45.35.56.42,1.03.78,1.4,1.1-.47.33-1,.65-1.6.95-.37.13-.73.27-1.1.4s-.78.25-1.25.35c-.25.06-1.42.29-3.5.68-.14.02-.29.05-.45.07-1.3.27-2.05.55-2.25.85-.06.05-.13.3-.2.75-.09.51-.19,1.27-.3,2.3-.5-.3-1.08-.62-1.75-.95-.03-.03-.08-.07-.15-.1-.07-.03-.15-.07-.25-.1-1.6-.87-2.9-1.48-3.9-1.85-.87-.4-1.52-.72-1.95-.95-.22-.1-.43-.21-.62-.33-.49-.25-.92-.51-1.27-.77-.83-1.13-1.3-2.47-1.4-4v-.5c-.03-.07-.03-.12,0-.15-.03-.3-.03-.62,0-.95.02-.27.05-.54.1-.8.04-.22.09-.43.15-.65.07-.27.17-.55.3-.85.2,0,.38.02.55.05.43.4,1,.85,1.7,1.35,1.13.9,1.87,1.48,2.2,1.75.4.33.98.82,1.75,1.45.55.44,1.1.71,1.65.8.12.03.23.04.35.05-.01-.07-.03-.15-.05-.23-.19-.6-.66-1.22-1.4-1.88-.6-.5-.95-.78-1.05-.85-.37-.37-.63-.73-.8-1.1.73.2,1.63.82,2.7,1.85.6.59,1.15,1.04,1.65,1.35.36.22.7.37,1,.45l-.05-.45v-.3c-.03-.06-.05-.13-.08-.2-.21-.43-.54-.88-.98-1.35-.07-.07-.12-.13-.15-.2-.37-.3-.63-.55-.8-.75l-.25-.25c-.13-.17-.23-.32-.3-.45ZM195.5,78.5c.47.43,1,.88,1.6,1.35,1.33,1.43,2.12,3.25,2.35,5.45.23,1.77.1,3.77-.4,6-.33,1.5-.5,3.45-.5,5.85,0,3.07-.03,5.02-.1,5.85.03,1.13-.02,2.52-.15,4.15-.03.78-.09,1.85-.17,3.23-.03.28-.05.57-.08.88-.17,3.37-.03,6.12.4,8.25.03.7.17,1.62.4,2.75.23,1.3.38,2.23.45,2.8.07.6.4,1.37,1,2.3.03.03.08.08.15.15-.97,1.2-1.72,1.93-2.25,2.2-.52-.87-.99-1.65-1.4-2.35-.62-1.04-1.12-1.89-1.5-2.55-1.07-1.97-1.78-3.55-2.15-4.75-.17-.57-.27-1.35-.3-2.35-.13-1.6-.2-2.43-.2-2.5-.21-.56-.42-1-.62-1.33-.02-.05-.05-.09-.07-.12-.17-1.4-.48-3-.95-4.8-.47-1.6-.8-2.8-1-3.6-.33-1.4-.57-2.62-.7-3.65-.2-.53-.37-1.07-.5-1.6.07.2.13.42.2.65,1.1-1.13,1.98-3.03,2.65-5.7.6-4.73.9-7.17.9-7.3,0-.27-.1-.78-.3-1.55-.23-.8-.35-1.35-.35-1.65,0-2.47.87-4.23,2.6-5.3.4-.23.73-.48,1-.75ZM308.6,133.67c-.51.13-1.02.25-1.52.38l-.17-.35-.62-.38-1.43-.83-5.7,3.12c-.28.04-.55.08-.82.12-.26-.54-.42-1.06-.48-1.55.5-.4,1.17-.85,2-1.35,2.2-1.37,4.05-2.05,5.55-2.05.57,0,1.07.06,1.5.18.75.19,1.26.57,1.52,1.12l.03.05c.2.47.25.97.15,1.5v.02ZM184.5,122.05c.5,1.13,1.12,2.8,1.85,5,.17.53.62,2.13,1.35,4.8.97,2.43,2.38,3.65,4.25,3.65.3,0,1.07-.55,2.3-1.65.17.23.33.47.5.7.43.73.27,1.43-.5,2.1-.43.37-1.18.75-2.25,1.15-.8.23-1.57.08-2.3-.45-.73-.47-1.25-1.12-1.55-1.95-.47-1-1.07-2.45-1.8-4.35-.77-2-1.37-3.43-1.8-4.3-.33-.73-.5-1.52-.5-2.35,0-.77.15-1.55.45-2.35ZM394.4,316c-.46.97-.63,1.91-.53,2.83-.94-.04-1.83-.22-2.67-.53.27-.67.62-1.37,1.05-2.1,1.33-1.87,2.92-3.37,4.75-4.5.37-.27.7-.48,1-.65.03.07.1.15.2.25.35.82.86,1.56,1.52,2.23-2.5.14-4.28.96-5.32,2.47ZM152.85,25.75s.07-.05.1-.05c.93-.4,1.97-.6,3.1-.6,2.07,0,3.53.93,4.4,2.8.5,1.07.75,2.13.75,3.2,0,.27-.05.6-.15,1-.03.03-.05.07-.05.1-1.4-.03-2.87-.25-4.4-.65-.7-.2-1.35-.52-1.95-.95-.6-.43-1.08-.97-1.45-1.6-.67-1.13-.78-2.22-.35-3.25ZM151.45,58.2c.27.73.78,1.47,1.55,2.2.07.03.13.08.2.15v.1c.1.07.18.13.25.2l.05.05h-.05c-1.4-.23-2.53-1.13-3.4-2.7-.6-1.8-.9-2.73-.9-2.8,0-6.17,1.82-11.07,5.45-14.7.87-.8,1.68-1.4,2.45-1.8.1.23.2.48.3.75l.1.15c.03.17.08.35.15.55v.05s.05.08.05.15c.23,1-.1,1.83-1,2.5-.8.57-1.75.85-2.85.85-.43,2.27-.9,5.2-1.4,8.8-.03.3-.23,1.2-.6,2.7-.27,1.13-.38,2.07-.35,2.8Z"/><path class="bn" d="M379.45,249l-.65-5.2.65-.45,46.87-31.92,2.33-1.57.8,5.1-3.85,2.7-46.05,31.35h-.1ZM429.45,226.6l-52.95,30.65h-.05v-5.2l54.35-31.45v5.2l-1.35.8ZM376.45,264v-5.15l54.35-31.4v5.2l-54.35,31.35Z"/><path class="bb" d="M376.45,258.85v5.25l-.15-.1-23.05-13.33-1.97-6.33,25.17,14.5ZM341.75,244.03c.14-.07.28-.15.42-.23l.17.58-.6-.35ZM379.35,248.85l-31.42-15.15-1.72-5.48,30.67,14.62,1.92.95.65,5.2-.1-.15ZM350.65,242.37l-1.98-6.28,27.78,15.95v5.2l-.15-.1-25.65-14.78Z"/><path class="aa" d="M376.3,264l.15.1h-.15v-.1ZM379.45,249h-.1v-.15l.1.15ZM376.3,257.15l.15.1h-.15v-.1Z"/><path class="bv" d="M344.35,219.87l43.55-29.67,24.6,11.85h-.03c-1.6-.17-3.3-.32-5.12-.45-12.33-.77-18.5.33-18.5,3.3,0,1.2.27,3.25.8,6.15.53,2.93.98,4.78,1.35,5.55v3.75c-1.8.33-3.3.5-4.5.5-6.17-.4-9.8-.57-10.9-.5-.73.03-1.22.32-1.45.85-.17.4-.25,1.37-.25,2.9,0,1.8,1.1,6.03,3.3,12.7.83,2.6,1.58,4.78,2.25,6.55l-.65.4-1.92-.9-30.67-14.62-2.08-6.67.22-1.67ZM364.1,222.45v-.3c-.07-1-.57-1.87-1.5-2.6-1.07-.77-2.32-1.15-3.75-1.15s-2.7.38-3.7,1.15c-1,.73-1.53,1.58-1.6,2.55v.4c.07.97.6,1.8,1.6,2.5,1,.77,2.23,1.15,3.7,1.15s2.68-.38,3.75-1.15c.93-.7,1.43-1.55,1.5-2.55Z"/><path class="m" d="M319.15,126.7c.08-.07.16-.13.25-.2,2.4-1.92,4.86-3.63,7.37-5.12.19.43.45.84.77,1.23,1.07,1.37,2.45,1.87,4.15,1.5,1.4-.37,2.62-1.02,3.65-1.95.47-.37.82-.8,1.05-1.3.92-1.62,1.79-3.27,2.62-4.98,1.15-.37,2.31-.69,3.47-.98l3,1.6c.5.23.95.55,1.35.95,3.03,2.3,4.38,5.5,4.05,9.6v.7c-.43,1.43-.8,2.92-1.1,4.45-.33,1.43-.65,2.85-.95,4.25v.45c-.47,3-.75,6.02-.85,9.05v.2l.15,8.9c.63,4.23.9,8.48.8,12.75,0,.53-.17,1.07-.5,1.6l-2.95,2.7-4.6,2.75c-3.82,1.5-7.42,2.16-10.8,2-1.28-.06-2.53-.25-3.75-.55.23-1.93.47-4.12.7-6.55.05-.71.1-1.44.15-2.17.15-2.62.25-5.41.3-8.38v-2.3c.1-1.83.15-4.18.15-7.05v-1.25c0-3.23-.05-5.37-.15-6.4v-.35c0-.3-.03-.6-.1-.9-.07-1.17-.27-2.28-.6-3.35v-.35c-.07-.1-.1-.22-.1-.35-.1-.45-.22-.88-.35-1.3-.25-.8-.55-1.55-.9-2.25-.29-.88-.83-1.81-1.62-2.8-.51-.61-1.12-1.24-1.83-1.9-.7-.53-1.42-1.03-2.15-1.5-.23-.17-.47-.32-.7-.45ZM426.33,211.42l-46.87,31.92c-.67-1.77-1.42-3.95-2.25-6.55-2.2-6.67-3.3-10.9-3.3-12.7,0-1.53.08-2.5.25-2.9.23-.53.72-.82,1.45-.85,1.1-.07,4.73.1,10.9.5,1.2,0,2.7-.17,4.5-.5v-3.75c-.37-.77-.82-2.62-1.35-5.55-.53-2.9-.8-4.95-.8-6.15,0-2.97,6.17-4.07,18.5-3.3,1.82.13,3.53.28,5.12.45h.03l16.15,7.75-.05.03-2.27,1.6Z"/><path class="av" d="M364.1,222.45c-.07,1-.57,1.85-1.5,2.55-1.07.77-2.32,1.15-3.75,1.15s-2.7-.38-3.7-1.15c-1-.7-1.53-1.53-1.6-2.5v-.4c.07-.97.6-1.82,1.6-2.55,1-.77,2.23-1.15,3.7-1.15s2.68.38,3.75,1.15c.93.73,1.43,1.6,1.5,2.6v.3ZM344.35,219.87l-.22,1.67-1.8,13.58-.23,1.78c-.67,0-1.32-.03-1.95-.08-.21-.02-.42-.05-.62-.08-1.82-.2-3.39-.63-4.73-1.3-.46-.25-.87-.5-1.22-.78-.55-.4-.99-.83-1.3-1.27-.38-.57-.58-1.17-.58-1.8l.25-9.5c.89-.61,1.66-2,2.3-4.17.54-1.82.99-4.18,1.35-7.07.02-.13.03-.26.05-.4.37-5.15.74-9.26,1.12-12.33.3-2.49.61-4.29.92-5.42.4-1.57,3.42-6.27,9.05-14.1-1.63,5.6-2.65,11.35-3.05,17.25-.13,1.13-.08,2.2.15,3.2,1.23,5.73,1.55,11.52.95,17.35l-.45,3.47ZM263.4,112.85c.8.47,1.2,1.35,1.2,2.65,0,1.37-.4,2.75-1.2,4.15-.11.19-.23.37-.35.55-.75,1.1-1.62,1.95-2.6,2.55-1.13.67-2.1.77-2.9.3-.83-.47-1.25-1.38-1.25-2.75s.42-2.63,1.25-4c.8-1.4,1.77-2.43,2.9-3.1.98-.6,1.84-.77,2.6-.5.12.04.24.09.35.15ZM320.95,172.7l1.05,1.15.45.2v.1l2.05,1.4.1.05,1.75.7c1.22.3,2.47.49,3.75.55,3.38.16,6.98-.5,10.8-2-.17.87-.45,1.68-.85,2.45-.3.93-.88,1.7-1.75,2.3-1.89,1.51-3.97,2.69-6.22,3.55-1.24.46-2.53.83-3.87,1.1l-2.75-.35-3.25-1.25-2.12-.82-5.17-1.98c-5.87-4.4-10.07-7.3-12.6-8.7-.43.13-.9.3-1.4.5-.33.13-.5.72-.5,1.75,0,.65,3.49,5.25,10.47,13.8.36.44.73.89,1.1,1.35.98,1.18,2.01,2.43,3.1,3.75,2.52,3.05,5.36,6.47,8.52,10.25l-6.95,4.85-3.9.8-5.88-11.12-2.28-4.28-.6-1.15-.15-.38-1.65-4.02-.9-1.5c-.6-1.23-1.17-2.38-1.7-3.45-.77-1.57-1.62-3.12-2.55-4.65-.67-1.03-1.24-2.09-1.72-3.17-.67-1.55-1.15-3.16-1.43-4.83-.1-.57-.18-1.16-.23-1.75-.06-.71-.09-1.43-.07-2.15,0-1.77,1.08-3.32,3.25-4.65,2.23-1.33,4.9-2,8-2l3.1.52,2.6.42,7.4,1.25,1.1.2c-.07.5-.18.95-.35,1.35-.47,1.53-.61,3.02-.4,4.48l1.08,3.3c.08.18.17.35.28.52.3.4.6.8.9,1.2.2.07.33.18.4.35Z"/><path class="bm" d="M153.83,82.15L25.95,157c-1.7,1.47-2.63,3.23-2.8,5.3v185.05l80.3-46.15c.19.12.39.24.6.35.53.33,1.32.72,2.35,1.15,1,.4,2.28,1.1,3.85,2.1.54.33,1.1.61,1.67.83-.11,1.48-.1,2.97.03,4.47l-29,16.65-.75.5c-1.17.67-3.43,2-6.8,4l-3.65,2c-2.93,1.7-5.88,3.42-8.85,5.15-4.4,2.6-8.78,5.17-13.15,7.7-4.53,2.6-9.08,5.2-13.65,7.8-2.47,1.47-4.98,2.83-7.55,4.1-1.87.9-3.67.87-5.4-.1-1.57-.97-3.17-1.93-4.8-2.9-1.33-.8-2.63-1.67-3.9-2.6-.25-.17-.5-.33-.75-.5-.15-.12-.3-.24-.45-.35-1.27-.97-1.97-2.23-2.1-3.8-.33-2.97-.5-5.98-.5-9.05v-29.75c-.03-3.43-.05-7.05-.05-10.85v-10.25c-.1-3.43-.15-6.87-.15-10.3v-26.85c-.07-2.83-.1-5.7-.1-8.6v-27.65c-.1-3.37-.15-6.68-.15-9.95v-32.15c0-3.77-.03-7.55-.1-11.35v-5.9c-.13-2.23,1-3.8,3.4-4.7l134.73-78.67.02.02c.13.73.32,1.45.55,2.15.27.83.57,1.63.9,2.4.53,1.17,1.18,2.28,1.95,3.35.03.07.07.12.1.15v.1c.07.03.12.07.15.1.03.07.07.12.1.15.03.03.05.07.05.1v.05c.23.27.45.52.65.75.38.38.75.75,1.12,1.1ZM187.52,62.4c-.23-.16-.43-.31-.57-.45-2.57-6.13-3.93-9.42-4.1-9.85-.07-.15-.13-.3-.2-.45L269.55.9c1.87-1.2,3.73-1.2,5.6,0l10.15,5.45c-1.1,0-2.75.57-4.95,1.7l-92.83,54.35ZM178.15,56c1,1.27,1.77,2.33,2.3,3.2.87,1.37,1.5,2.7,1.9,4-.5-.13-1.08-.33-1.75-.6-.8-.37-1.38-.63-1.75-.8-1.43-.6-2.65-.85-3.65-.75-.23-1.57-.47-2.72-.7-3.45-.03-.27-.1-.53-.2-.8-.03-.08-.06-.15-.1-.22l3.05-1.78c.19.25.39.52.6.8l.25.35.05.05ZM272.27,217.75c-5.41,2.94-10.82,5.97-16.23,9.1-4.77,2.8-9.57,5.62-14.4,8.45-5.13,2.9-10.27,5.87-15.4,8.9-4.83,2.83-9.67,5.67-14.5,8.5-.67.4-1.3.78-1.9,1.15-1.2.73-2.35,1.38-3.45,1.95-4.03,2.4-8,4.7-11.9,6.9l-42.98,24.67c-.03-.34-.07-.69-.12-1.03-.42-2.71-.98-4.85-1.67-6.42-.12-.4-.26-.74-.43-1.02-.57-1.03-1.08-1.75-1.55-2.15-.26-.19-.54-.38-.83-.55l141.53-81.35c0,3.1-.08,5.68-.25,7.75-.17,1.87-.72,3.62-1.65,5.25-.47.73-1.07,1.37-1.8,1.9-3.8,2.83-7.83,5.43-12.1,7.8-.12.07-.25.13-.37.2ZM163.55,72.33s-.07-.05-.1-.08c-.06-.06-.13-.13-.2-.2.1.09.2.18.3.28Z"/><path class="f" d="M288.1,22.5v-7.05l-11.4,6.55v7.05l-.05.03v-7.08l-72,41.33,3.45-6.43c.53-1.03-.07-1.05-1.8-.05l-14.05,8.15c-.6-.37-1.35-.77-2.25-1.2-1.08-.53-1.9-.99-2.48-1.4l92.83-54.35c2.2-1.13,3.85-1.7,4.95-1.7,1.73.67,2.7,2.83,2.9,6.5v9.6l-.1.05ZM276.25,68.55l9.25-5.35,2.7,8.65v11.52l-11.95,6.92v-21.75ZM288.2,112.6l-11.95,6.92v-21.67l11.95-6.93v21.68ZM288.2,137.05c-2.43.27-4.87.52-7.33.75l-2.52-8.15h-.1l-1-3.15,10.95-6.35v16.9ZM288.2,161.08l-3.15-9.88,3.15-1.83v11.7ZM146.92,276.2c-.26-.16-.54-.31-.82-.45-.17-.07-.27-.12-.3-.15-1.07-.57-2.03-1.22-2.9-1.95-.85-.7-1.73-1.39-2.65-2.08.07-.29.1-.57.1-.83.02-.29.02-.57.02-.85l135.88-77.75v-40.65l12.17,39.08c0,.39.02.78.03,1.17v3.1l-141.53,81.35ZM161.7,80.05c0-.2.02-.4.05-.6.02-.06.03-.13.05-.2-.05.26-.08.53-.1.8ZM161.9,87.85l-123.8,71.1v1.35l-4.65,2.7v168.05l61.55-35.22c.25.17.52.34.8.52,1.23.8,2.45,1.6,3.65,2.4,1.3.87,2.64,1.69,4,2.45l-80.3,46.15v-185.05c.17-2.07,1.1-3.83,2.8-5.3l127.87-74.85c1.32,1.26,2.53,2.31,3.62,3.15,1.48,1.11,2.97,1.96,4.45,2.55ZM125.25,284.65c-1.53,1.07-2.95,2.08-4.25,3.05-1.03.87-1.93,1.7-2.7,2.5-.43.46-.82.91-1.17,1.35-.42-.25-.83-.52-1.23-.8-1.27-.83-2.6-1.63-4-2.4-.66-.36-1.33-.71-2-1.05l14.48-8.27s.08.08.12.12l.75,5.5Z"/><path class="n" d="M226.25,259.75l-79.4,45.45c.28-.5.56-1.02.85-1.55,1.41-3.12,2.44-6.01,3.07-8.65l67.58-39.05,7.9,3.8ZM90,330.15l23.5-13.6c.23.3.43.63.6,1,.23.57.38,1.15.45,1.75.3,1.36.46,2.73.5,4.1l-17.8,10.2-7.25-3.45Z"/><path class="l" d="M150.77,295c.7-2.82.95-5.36.75-7.62l42.98-24.67c3.9-2.2,7.87-4.5,11.9-6.9,1.1-.57,2.25-1.22,3.45-1.95.6-.37,1.23-.75,1.9-1.15l6.6,3.25-67.58,39.05ZM82.95,326.75l29-16.65c.08.98.22,1.96.4,2.95.13.8.32,1.53.55,2.2.13.37.25.7.35,1,.09.1.17.2.25.3l-23.5,13.6-7.05-3.4Z"/><path class="d" d="M178.65,300.8l-32.57,18.65c-.26-1.56-.53-3.11-.83-4.65-.2-.8-.3-1.6-.3-2.4,0-1.3.12-2.32.35-3.05.63-1.77.98-2.83,1.05-3.2l.1-.2c.13-.25.27-.5.4-.75l79.4-45.45v9.92l-44.6,25.62-.1,3.65-2.7,1.55c-.03-.1-.08-.15-.15-.15-.03.1-.05.18-.05.25h-.05l.05.1v.1ZM112.6,336.45c-.11.78-.21,1.57-.3,2.35l-15.05,8.6-25.5-14.15,3.65-2c3.37-2,5.63-3.33,6.8-4l.75-.5,7.05,3.4,7.25,3.45,17.8-10.2c.03,1.57-.1,3.16-.4,4.75-.43,2.43-1.12,5.2-2.05,8.3Z"/><path class="an" d="M191.98,113.9c.08.88.11,1.67.07,2.4-.63.07-1.25.28-1.85.65-.17.13-.32.27-.45.4-.1-.33-.18-.63-.25-.9-.05-.28-.11-.63-.17-1.03l2.65-1.52ZM272.35,139c-.43-.18-.77-.38-1-.6-.51-.44-.98-.83-1.43-1.15.5-.9.81-1.91.93-3.02l1.5,4.77ZM274.42,145.67l1.08,3.43.75,2.4v40.65l-135.88,77.75c-.04-1.41-.37-2.77-.98-4.08l40.35-23.28v-106.6l-7.15,4.12v-7.62l-121.8,70.35v106.55l7.15-4.12v7.62l33.37-19.27c.62.34,1.18.68,1.67,1.02.51.31,1.18.71,2,1.23l-61.55,35.22v-168.05l4.65-2.7v31.2l6.75-3.88v10.73l138.67-79.6c.38,1.12.7,2.18.98,3.2-1.13.83-1.98,1.68-2.55,2.55-.73,1.13-.93,2.23-.6,3.3.7,1.6,1.22,3.27,1.55,5,.33,1.73.43,3.47.3,5.2.43.4.95.58,1.55.55.5-.03,1-.22,1.5-.55v-1.45c.33,1.6.57,2.6.7,3,.4,1.13.98,1.97,1.75,2.5,1.23.67,2.6,1.12,4.1,1.35,1.28.19,2.61.2,4,.05v80.6l69.15-39.9v-38.92c1.9.52,3.32.53,4.25.02.82-.41,1.75-.76,2.8-1.05.03.1.03.23,0,.4l.05.05c.1.3.22.6.35.9l1.02.12ZM276.25,97.85v21.67l-1,.58-4.35-14.02v-5.15l5.35-3.07ZM265.95,74.5l10.3-5.95v21.75l-6.17,3.58c-.09-.07-.18-.12-.28-.17l-3.52-2.05-.32-1.02v-16.12ZM194.25,133.85c-.53-.9-.92-2.03-1.15-3.4.27-.17.5-.38.7-.65.23-.33.35-.7.35-1.1.27.67.5,1.72.7,3.15.23,1.43.48,2.5.75,3.2.23.47.55.88.95,1.25-.13-.1-.23-.18-.3-.25-.7-.57-1.2-1.07-1.5-1.5-.17-.23-.33-.47-.5-.7ZM109.9,287.3c-1.45-.7-2.94-1.33-4.45-1.88l15.92-9.2c.3.24.63.5.98.78.45.38.9.77,1.35,1.15.11.16.23.31.35.45.1.15.21.29.33.43l-14.48,8.27Z"/><path class="ab" d="M253.3,78.7l1.45,4.65.1.15,1.8,5.73-31.2,18.07c-2.73,1.57-4.1,3.93-4.1,7.1v5.4c-4.77,3.97-7.15,9.3-7.15,16v28.05c0,8.17,3.6,10.2,10.8,6.1l27.3-15.7c4.76-2.79,7.93-6.47,9.53-11.05l.3-.18,1.33,1.33c.91.37,1.74.66,2.5.88v38.92l-69.15,39.9v-80.6c.1-.02.2-.04.3-.05.73-.13,1.32-.37,1.75-.7.63-.4.9-.93.8-1.6.1-1.27-.48-2.48-1.75-3.65-.26-.24-.5-.44-.73-.62.19.14.4.26.62.38.67.4,1.63.8,2.9,1.2.78.22,1.53.28,2.25.18l-.05,74.32,2.6-1.45v-105.33l15.35-8.8v.02l.82-.48,31.62-18.17ZM220.85,100.1v2.95l25.75-14.8v-2.95l-25.75,14.8ZM204.65,63.33l72-41.33v7.08l-82.77,47.5c-.1-.15-.21-.31-.33-.48l3.55-2.05c1.7-.97,2.83-1.95,3.4-2.95l4.15-7.77ZM198.12,110.37l4.83-2.77v22.5c-.07-.07-.14-.13-.2-.2-.57-.6-1.17-1.38-1.8-2.35-.73-1.1-1.28-1.93-1.65-2.5-.07-.57-.22-1.5-.45-2.8-.23-1.13-.37-2.05-.4-2.75-.43-2.13-.57-4.88-.4-8.25.02-.31.05-.6.08-.88ZM44.85,187.62l-6.75,3.88v-32.55l123.8-71.1c.38.15.77.28,1.15.4.6.37,1.28.48,2.05.35.6-.1,1.22-.4,1.85-.9,1,.37,2.3.98,3.9,1.85.1.03.18.07.25.1l-126.25,72.45v25.52ZM265.95,74.5v16.12l-3.25-10.38h-.05l-1-3.25,4.3-2.5ZM57.95,220.1v85.12l-7.15,4.12v-106.55l121.8-70.35v7.62l-114.65,66.22v13.8ZM246.75,171.25c0,.8.27,1.32.8,1.55.53.37,1.13.33,1.8-.1.7-.4,1.32-1.07,1.85-2,.5-.87.75-1.7.75-2.5s-.25-1.37-.75-1.7c-.53-.33-1.15-.3-1.85.1-.67.4-1.27,1.05-1.8,1.95-.53.93-.8,1.83-.8,2.7ZM247.55,183.1c-.53.93-.8,1.83-.8,2.7,0,.77.27,1.28.8,1.55.53.33,1.13.3,1.8-.1.7-.47,1.32-1.17,1.85-2.1.5-.8.75-1.6.75-2.4s-.25-1.38-.75-1.75c-.53-.33-1.15-.28-1.85.15-.67.4-1.27,1.05-1.8,1.95ZM217.65,201.05v2.95l24.15-13.9v-3.05l-24.15,14ZM241.8,175.55v-3.05l-24.15,14v2.95l24.15-13.9ZM64.05,55.45c1.37-2.37,3-4.1,4.9-5.2,1.93-1.1,3.58-1.27,4.95-.5,1.37.8,2.05,2.32,2.05,4.55s-.68,4.48-2.05,6.85c-1.37,2.4-3.02,4.15-4.95,5.25-1.9,1.1-3.53,1.25-4.9.45-1.37-.77-2.07-2.27-2.1-4.5,0-2.23.7-4.53,2.1-6.9ZM43.05,79.15c-1.37-.77-2.07-2.27-2.1-4.5,0-2.23.7-4.53,2.1-6.9,1.37-2.37,3-4.1,4.9-5.2,1.93-1.1,3.58-1.27,4.95-.5,1.37.8,2.05,2.32,2.05,4.55s-.68,4.48-2.05,6.85c-1.37,2.4-3.02,4.15-4.95,5.25-1.9,1.1-3.53,1.25-4.9.45ZM25.8,74.9c1.93-1.1,3.58-1.27,4.95-.5,1.37.8,2.05,2.32,2.05,4.55s-.68,4.48-2.05,6.85c-1.37,2.4-3.02,4.15-4.95,5.25-1.9,1.1-3.53,1.25-4.9.45-1.37-.77-2.07-2.27-2.1-4.5,0-2.23.7-4.53,2.1-6.9,1.37-2.37,3-4.1,4.9-5.2Z"/><path class="be" d="M205.5,106.12v105.33l-2.6,1.45.05-74.32s.1-.02.15-.03c.9-.17,1.55-.62,1.95-1.35.23-1.3.13-2.6-.3-3.9-.37-1.21-.97-2.28-1.8-3.2v-22.5l2.55-1.48ZM220.85,100.1l25.75-14.8v2.95l-25.75,14.8v-2.95ZM221.67,96.87l-.82.48v-.02l.82-.45ZM247.55,183.1c.53-.9,1.13-1.55,1.8-1.95.7-.43,1.32-.48,1.85-.15.5.37.75.95.75,1.75s-.25,1.6-.75,2.4c-.53.93-1.15,1.63-1.85,2.1-.67.4-1.27.43-1.8.1-.53-.27-.8-.78-.8-1.55,0-.87.27-1.77.8-2.7ZM246.75,171.25c0-.87.27-1.77.8-2.7.53-.9,1.13-1.55,1.8-1.95.7-.4,1.32-.43,1.85-.1.5.33.75.9.75,1.7s-.25,1.63-.75,2.5c-.53.93-1.15,1.6-1.85,2-.67.43-1.27.47-1.8.1-.53-.23-.8-.75-.8-1.55ZM241.8,175.55l-24.15,13.9v-2.95l24.15-14v3.05ZM217.65,201.05l24.15-14v3.05l-24.15,13.9v-2.95ZM61.85,378.7l-7.85,16.95-21.35-11.8,29.2-5.15Z"/><path class="j" d="M198.12,110.37c.09-1.38.15-2.45.17-3.23.13-1.63.18-3.02.15-4.15.07-.83.1-2.78.1-5.85,0-2.4.17-4.35.5-5.85.5-2.23.63-4.23.4-6-.23-2.2-1.02-4.02-2.35-5.45-.6-.47-1.13-.92-1.6-1.35-.6-.6-1.1-1.18-1.5-1.75-.04-.06-.08-.12-.12-.17l82.77-47.5.05-.03,11.4-6.55.1-.05,14.95-8.6v36.25l-10.85,6.23-6.8-21.68-4.25-2.5-4.55,2.65,4.2,13.5h-.15l2.75,8.55-23.85,13.85-5.55-17.8-4.15-2.4-4.55,2.75,2.8,8.9h-.05l5.15,16.55-31.62,18.17-.82.45-15.35,8.8-2.55,1.48-4.83,2.77ZM241,54.2l-18.2,10.45v4.4l18.2-10.45v-4.4ZM191.95,113.75c0,.05.01.1.02.15l-2.65,1.52c-.28-1.61-.69-4.15-1.23-7.62-.07-3.03-.1-4.72-.1-5.05,0-1.93.07-3.63.2-5.1.07-.1.1-.22.1-.35l.5,2.8c.13.53.3,1.07.5,1.6.13,1.03.37,2.25.7,3.65.2.8.53,2,1,3.6.47,1.8.78,3.4.95,4.8ZM188.8,90.55c-.17-.4-.38-.8-.65-1.2-.5-.87-1.13-1.72-1.9-2.55.27,0,.53.02.8.05.83.1,1.43.22,1.8.35.67.27,1.03.68,1.1,1.25-.5.63-.88,1.33-1.15,2.1ZM183.52,118.75L44.85,198.35v-36.25l126.25-72.45c.07.03.12.07.15.1.67.33,1.25.65,1.75.95.97.5,1.7.87,2.2,1.1,2.07.93,3.78,1.88,5.15,2.85-.1.4-.38.93-.85,1.6-.47.67-.73,1.22-.8,1.65-.37,1.67-.5,3.37-.4,5.1.07,1.77.37,3.45.9,5.05,1.3,2.83,2.27,5.12,2.9,6.85.54,1.34,1.02,2.62,1.42,3.85ZM241,72.05l-18.2,10.45v4.4l18.2-10.45v-4.4ZM222.8,78.1l18.2-10.45v-4.4l-18.2,10.45v4.4ZM179.75,149.75l-121.8,70.35v-13.8l114.65-66.22,7.15-4.12v13.8ZM103.35,144.6c0-2.07-.62-3.45-1.85-4.15-1.23-.7-2.75-.55-4.55.45-1.77,1.03-3.27,2.62-4.5,4.75-1.23,2.17-1.85,4.28-1.85,6.35s.62,3.4,1.85,4.1c1.23.73,2.73.58,4.5-.45,1.8-1,3.32-2.58,4.55-4.75,1.23-2.17,1.85-4.27,1.85-6.3ZM84.3,156c0-2.07-.62-3.45-1.85-4.15-1.23-.7-2.75-.55-4.55.45-1.77,1.03-3.27,2.62-4.5,4.75-1.23,2.17-1.85,4.28-1.85,6.35s.62,3.4,1.85,4.1c1.23.73,2.73.58,4.5-.45,1.8-1,3.32-2.58,4.55-4.75,1.23-2.17,1.85-4.27,1.85-6.3ZM65.3,163.25c-1.23-.7-2.75-.55-4.55.45-1.77,1.03-3.27,2.62-4.5,4.75-1.23,2.17-1.85,4.28-1.85,6.35s.62,3.4,1.85,4.1c1.23.73,2.73.58,4.5-.45,1.8-1,3.32-2.58,4.55-4.75,1.23-2.17,1.85-4.27,1.85-6.3s-.62-3.45-1.85-4.15ZM65.25,209.75c0,.77.28,1.23.85,1.4.37.3.92.3,1.65,0,.63-.37,1.18-1,1.65-1.9.43-.9.65-1.72.65-2.45s-.22-1.3-.65-1.7c-.47-.13-1.02-.02-1.65.35-.73.4-1.28.98-1.65,1.75-.57.87-.85,1.72-.85,2.55ZM79.85,198.35c-.63.37-1.18,1-1.65,1.9-.53.83-.8,1.68-.8,2.55,0,.73.27,1.22.8,1.45.47.23,1.02.17,1.65-.2s1.13-.98,1.5-1.85c.57-.8.85-1.58.85-2.35s-.28-1.27-.85-1.6c-.37-.3-.87-.27-1.5.1ZM74.1,201.8c-.63.4-1.2.98-1.7,1.75-.57.87-.85,1.73-.85,2.6,0,.73.28,1.2.85,1.4.5.23,1.07.17,1.7-.2s1.13-.9,1.5-1.6c.57-.97.85-1.83.85-2.6s-.28-1.25-.85-1.55c-.37-.23-.87-.17-1.5.2Z"/><path class="bw" d="M65.25,209.75c0-.83.28-1.68.85-2.55.37-.77.92-1.35,1.65-1.75.63-.37,1.18-.48,1.65-.35.43.4.65.97.65,1.7s-.22,1.55-.65,2.45c-.47.9-1.02,1.53-1.65,1.9-.73.3-1.28.3-1.65,0-.57-.17-.85-.63-.85-1.4ZM65.3,163.25c1.23.7,1.85,2.08,1.85,4.15s-.62,4.13-1.85,6.3c-1.23,2.17-2.75,3.75-4.55,4.75-1.77,1.03-3.27,1.18-4.5.45-1.23-.7-1.85-2.07-1.85-4.1s.62-4.18,1.85-6.35c1.23-2.13,2.73-3.72,4.5-4.75,1.8-1,3.32-1.15,4.55-.45Z"/><path class="w" d="M241,54.2v4.4l-18.2,10.45v-4.4l18.2-10.45ZM222.8,78.1v-4.4l18.2-10.45v4.4l-18.2,10.45ZM241,72.05v4.4l-18.2,10.45v-4.4l18.2-10.45ZM79.85,198.35c.63-.37,1.13-.4,1.5-.1.57.33.85.87.85,1.6s-.28,1.55-.85,2.35c-.37.87-.87,1.48-1.5,1.85s-1.18.43-1.65.2c-.53-.23-.8-.72-.8-1.45,0-.87.27-1.72.8-2.55.47-.9,1.02-1.53,1.65-1.9Z"/><path class="bc" d="M103.95,238.45c-.54-.52-1.04-.87-1.5-1.05-.46-.17-.9-.33-1.3-.5,1.07-.92,2.02-2.06,2.85-3.4,1.25-1.97,1.92-3.84,2-5.6,1.8,1.78,2.7,3.33,2.7,4.65.03,1.51.34,3.18.92,5-2.34-.4-4.23-.1-5.67.9ZM72.25,245.17c-.17.69-.25,1.37-.25,2.03,0,1.87.67,3.08,2,3.65.87.38,1.86.4,2.98.05.15.34.29.69.42,1.05.23.7.37,1.43.4,2.2.04,1.49.1,2.95.2,4.38-2.21.01-3.91.65-5.1,1.92-.03.06-.07.11-.1.17-.27-.5-.53-1-.8-1.47-.5-.77-1.03-1.52-1.6-2.25-.77-1.1-1.13-2.38-1.1-3.85.07-.8.2-1.57.4-2.3.47-1.87,1.12-3.63,1.95-5.3.19-.1.39-.19.6-.28ZM124.5,279.15s-.08-.08-.12-.12c-.12-.13-.22-.27-.33-.43-.12-.14-.24-.29-.35-.45-.51-.77-.79-1.67-.85-2.7l.65.55-.4-2.4c1.07,1.3,1.65,2.58,1.75,3.85.07.4.13.78.2,1.15l-.55.55Z"/><path class="at" d="M151.05,26.9c.07.27.13.52.2.75.27,1,.63,1.93,1.1,2.8-.77-.27-1.58-.47-2.45-.6-.4-.07-.8-.12-1.2-.15.5-.57,1.08-1.28,1.75-2.15.2-.23.4-.45.6-.65ZM176.3,44.9c-1.87.47-4.18,1.35-6.95,2.65-3.6,1.7-6.2,2.55-7.8,2.55-.67,0-1.47-.33-2.4-1-.9-.7-1.35-1.28-1.35-1.75,0-.63.32-1.85.95-3.65.6-1.83.9-3.07.9-3.7,0-2.57-.98-4.77-2.95-6.6l-.05-.05c.7.27,1.43.42,2.2.45,1.7.17,3.37.03,5-.4,1.77,1.03,4.58,1.55,8.45,1.55.7,0,1.43-.15,2.2-.45.1.13.2.28.3.45l.5.65c.12.15.25.3.37.45.08.08.15.16.23.25.04.02.08.04.12.08.02.02.05.05.08.08l.15.2s.08.08.15.15c.87,1.23,1.42,2.13,1.65,2.7.43,1.1.45,2.08.05,2.95l-.7,1.2c-.3.4-.67.82-1.1,1.25ZM316.6,130.55v-3.5l2.8-.55c-.09.07-.17.13-.25.2l-2.15,2.4c-.13.46-.23.94-.33,1.45-.02,0-.05,0-.08,0ZM274.23,139.5c.25-.42.54-.82.87-1.2.14-.01.28-.02.42-.02,1.79-.15,3.57-.31,5.35-.48,2.45-.23,4.9-.48,7.33-.75,2.58-.3,5.15-.61,7.7-.95.81-.11,1.62-.22,2.43-.35.27-.04.55-.08.82-.12,1.54-.25,3.06-.53,4.57-.85,1.12-.22,2.24-.46,3.35-.73.51-.12,1.01-.25,1.52-.38,1.38-.35,2.76-.73,4.12-1.12,1.29-.39,2.57-.8,3.85-1.22.02,0,.05-.02.08-.03,2.9.33,4.9,1.05,6,2.15-1.1.8-2.15,1.47-3.15,2-.9.51-1.87,1-2.9,1.47-1.14.53-2.37,1.03-3.67,1.5-.59.23-1.2.44-1.83.65-1.71.59-3.54,1.14-5.5,1.65-1.32.35-2.71.68-4.15,1-1.79.4-3.67.77-5.65,1.12-1.53.27-3.68.45-6.45.55-.21,0-.42.02-.62.02-1.37.04-2.55.08-3.52.12-1.05.06-1.87.12-2.48.18-.06.01-.12.02-.18.02-2.04.04-3.8.08-5.27.12-1.03.04-1.92.08-2.67.12-.24-.01-.48-.01-.7,0-.06,0-.13.02-.2.02-.24.06-.47.12-.7.18l.05-1.95c.06-.15.12-.3.18-.45.08-.23.13-.44.17-.65.1-.13.15-.25.15-.35.18-.45.41-.88.68-1.3ZM326.45,205.2c-.68,1.39-1.52,2.64-2.53,3.75-1.49,1.61-3.33,2.91-5.52,3.9-1.33.7-2.45,1.63-3.35,2.8-.35.41-.71.75-1.08,1.02l-1,.58c-1.01.43-2.09.41-3.25-.08-.46-.18-.94-.44-1.42-.77l-.8-1.25c0-2.3,1.25-3.95,3.75-4.95,1.07-.33,1.57-1,1.5-2l3.9-.8,6.95-4.85.35-.2,2.4,1.95.1.9ZM137.4,279.6l-.2-.3c.57-.83,1.05-1.63,1.45-2.4.33-.6.63-1.22.9-1.85l.7-3.2v-.27c.92.68,1.8,1.37,2.65,2.08.87.73,1.83,1.38,2.9,1.95-.15.37-.33.72-.52,1.05-1.33-.02-2.92.35-4.77,1.1-.7.4-1.45.8-2.25,1.2-.27.2-.55.42-.85.65ZM331.7,231.6c0,.63.19,1.23.58,1.8.31.45.75.87,1.3,1.27.35.27.76.53,1.22.78,1.33.67,2.91,1.1,4.73,1.3.21.03.42.05.62.08.62.05,1.27.08,1.95.08l.15,3.9c-.28.12-.55.23-.83.33-.97.35-1.91.53-2.83.55-1.7.02-3.29-.54-4.77-1.7-.48-.37-.96-.82-1.42-1.32-.7-.7-1.57-1.2-2.6-1.5-.14-.02-.28-.03-.42-.05-.87-.12-1.67-.33-2.4-.62-.42-.17-.81-.36-1.17-.57l.3-1.85,5.6-2.45ZM120.73,257.6c.31.65.59,1.32.82,2,.06.09.12.2.18.3-.3.43-.6.92-.87,1.45-.37.7-.55,1.47-.55,2.3v.85c.03.73.08,1.5.15,2.3.07.27.1.48.1.65v.1c.1.83.28,1.68.55,2.55.07.2.1.42.1.65l.07.2c-.67-.49-1.36-1.01-2.07-1.55-1.7-1.47-2.82-2.5-3.35-3.1-.38-.35-1.16-1.86-2.35-4.52-.42-.91-.89-1.96-1.4-3.15-.37-.87-.77-1.81-1.2-2.83-.07-.18-.15-.35-.23-.52-.46-1.11-.89-2.14-1.27-3.08-.47-1.11-.89-2.1-1.25-2.98-.56-1.33-1.01-2.38-1.35-3.17-.28-.68-.48-1.17-.6-1.45-.97-2.1-1.87-4.03-2.7-5.8.15-.13.3-.24.45-.35,1.44-1,3.33-1.3,5.67-.9.31.05.64.12.98.2.8,1.56,1.6,3.13,2.4,4.7.43.85.87,1.7,1.3,2.55.09.17.18.35.28.53.47.95.95,1.9,1.42,2.85.5.98,1,1.96,1.5,2.95.17.32.33.65.5.97.39.75.78,1.51,1.17,2.28.47.92.95,1.84,1.43,2.77.04.08.08.17.12.25ZM105.45,285.42c1.51.55,3,1.17,4.45,1.88.67.34,1.34.69,2,1.05,1.4.77,2.73,1.57,4,2.4.4.28.81.55,1.23.8.05.02.1.05.15.08.54.29,1.1.55,1.68.78-.67,2.3-2.3,3.93-4.9,4.9-.04.02-.08.03-.12.05-1.61.55-3.16.72-4.65.5-.9-.13-1.77-.39-2.62-.8-1.35-.42-3.84-1.63-7.45-3.62-1.16-.64-2.45-1.37-3.85-2.17-1.09-.63-2.26-1.32-3.5-2.05-1.83-1.3-3.07-2.22-3.7-2.75-.6-.5-2.6-3.8-6-9.9-.73-1.31-1.39-2.5-2-3.58-.61-1.09-1.15-2.05-1.62-2.9-.66-1.19-1.19-2.14-1.6-2.85-.33-.62-.58-1.06-.72-1.32-.31-.53-.62-1.04-.93-1.55-.13-.21-.25-.42-.37-.62-.69-1.15-1.36-2.24-2-3.27,1.19-1.27,2.89-1.91,5.1-1.92.56,0,1.16.04,1.8.12.5.73,1,1.46,1.5,2.2.61.93,1.22,1.86,1.83,2.8.4.59.79,1.19,1.17,1.8.21.31.42.61.62.92.62.92,1.22,1.85,1.83,2.78.64.97,1.27,1.95,1.9,2.92.03.06.06.12.1.17.62.92,1.23,1.84,1.85,2.75.45.67.9,1.34,1.35,2,.43.7.82,1.42,1.15,2.15.23.27.43.57.6.9l-.05.15c1.53.77,3.03,1.53,4.5,2.3,2.03,1.17,4.17,2.03,6.4,2.6.3.1.6.21.9.33Z"/><path class="bl" d="M133.6,281.05c-.23.07-.45.17-.65.3-1.1.57-2.06,1.17-2.87,1.8-1.51,1.14-2.57,2.39-3.18,3.75-.73,0-1.47-.07-2.2-.2l.55-2.05-.75-5.5.55-.55c2.67,2.33,5.52,3.15,8.55,2.45ZM137.4,279.6l.65.75c-.13,0-.32-.03-.55-.1-.73-.1-1.53-.02-2.4.25.3-.1.63-.23,1-.4h.02c.36-.21.72-.47,1.08-.8l.2.3Z"/><path class="au" d="M135.1,280.5c.87-.27,1.67-.35,2.4-.25.23.07.42.1.55.1l.55.65c-.07.03-.1.08-.1.15-.07.07-.1.13-.1.2-1.28,1.83-2.8,3.2-4.57,4.12-1.62.85-3.45,1.32-5.48,1.43-.48.02-.96.02-1.45,0,.6-1.36,1.66-2.61,3.18-3.75.82-.63,1.78-1.23,2.87-1.8.2-.13.42-.23.65-.3.07-.03.15-.05.25-.05l.05-.1c.37-.1.7-.2,1-.3.1-.07.17-.1.2-.1Z"/><path class="al" d="M134,362.6c-.07,2.77-.12,5.57-.15,8.4-.17,7.63.9,15.22,3.2,22.75.1.43.22.87.35,1.3l.95,7.9.15,1.65c.73,6.27,1.32,12.87,1.75,19.8-.07,1.73-.62,3.07-1.65,4l-4.95.3c-.26-6.17-1.06-13.31-2.4-21.42-.21-1.35-.45-2.72-.7-4.12-1.87-10.8-2.85-16.47-2.95-17-.93-6.03-1.4-10.97-1.4-14.8,0-5,.65-10.72,1.95-17.15.13-.64.25-1.26.37-1.88,1.04-5.34,1.82-9.96,2.33-13.88,2.67-.77,5.07-1.73,7.2-2.9,2.03-1.13,3.83-2.42,5.4-3.85,1.43-1.4,2.67-2.95,3.7-4.65.37,3.07.68,6.17.95,9.3.07.8.12,1.6.15,2.4.05.69.09,1.39.12,2.1.07,1.22.13,2.45.17,3.7.2,3.37.38,6.73.55,10.1.03,1.8.32,3.5.85,5.1,2.5,8.33,4.45,16.78,5.85,25.35,1.23,7.57,1.21,14.98-.07,22.23-.14.79-.3,1.58-.48,2.38-.37.23-.8.32-1.3.25-1.07.23-2.08.32-3.05.25.03-.3.05-.48.05-.55.05-.5.08-2.17.1-5v-3.3c0-7.1-1.28-17.03-3.85-29.8-1.7-8.23-2.83-14.95-3.4-20.15-.33-2.9-.5-5.33-.5-7.3.01-.12.03-.23.05-.35.08-.7.16-1.35.25-1.95-1.3,1.23-2.57,2.3-3.8,3.2-.98.72-1.81,1.47-2.5,2.25-.82.91-1.44,1.86-1.85,2.85-.13.33-.25.65-.35.95-.03.1-.05.2-.05.3-.1.33-.18.65-.25.95,0,.1-.22,1.2-.65,3.3-.2,1.47-.3,2.67-.3,3.6,0,.07.05,1.2.15,3.4Z"/><path class="bk" d="M140.1,383.65c-.33-1.77-.72-3.5-1.15-5.2-.23-.97-.5-1.95-.8-2.95-.07-.17-.13-.35-.2-.55-1.33-4.5-2.62-8.95-3.85-13.35,0,.3-.03.63-.1,1-.1-2.2-.15-3.33-.15-3.4,0-.93.1-2.13.3-3.6.43-2.1.65-3.2.65-3.3.07-.3.15-.62.25-.95,0-.1.02-.2.05-.3.1-.3.22-.62.35-.95.41-.99,1.03-1.94,1.85-2.85.69-.78,1.52-1.53,2.5-2.25,1.23-.9,2.5-1.97,3.8-3.2-.09.6-.17,1.25-.25,1.95-.02.12-.04.23-.05.35,0,1.97.17,4.4.5,7.3-.3.9-.57,1.77-.8,2.6-.33,1.67-.63,3.55-.9,5.65-.1,1.17-.25,3-.45,5.5-.2,2.4-.5,6.12-.9,11.15-.27,3.1-.43,5.82-.5,8.15-.07-.27-.12-.53-.15-.8Z"/><path class="af" d="M121.5,418.45l1.2-.8c.33-1.7.55-3.42.65-5.15,0-.22,0-.44,0-.65,0-.57-.05-1.12-.15-1.65-.87-8.83-2.33-17.55-4.4-26.15-1.9-7.64-3.73-15.29-5.47-22.95-.24-1.07-.49-2.13-.73-3.2-.95-6.14-1.05-12.51-.3-19.1.09-.78.19-1.57.3-2.35.52.45,1.07.86,1.65,1.22,2.48,1.56,5.46,2.28,8.95,2.17.97-.03,1.97-.13,3-.3,1.63-.3,3.18-.67,4.65-1.1-.51,3.91-1.28,8.54-2.33,13.88-.12.61-.25,1.24-.37,1.88-1.3,6.43-1.95,12.15-1.95,17.15,0,3.83.47,8.77,1.4,14.8.1.53,1.08,6.2,2.95,17,.25,1.4.49,2.78.7,4.12,1.34,8.11,2.14,15.25,2.4,21.42h-.7c-.6-.17-1.27-.33-2-.5-6.4-1.17-9.55-4.42-9.45-9.75ZM150.9,410.2c-2.77-.27-5.12-1.82-7.05-4.65-.63-.8-1.18-1.63-1.65-2.5-.2-.32-.38-.64-.55-.97-.66-1.22-1.16-2.53-1.5-3.92l.9-3.5v-2.6c-.1-1.33-.2-2.63-.3-3.9,0-.17-.03-.33-.1-.5,0-.1-.05-.23-.15-.4,0-.6-.05-1.13-.15-1.6,0-.13-.03-.23-.1-.3v-.65c-.07-.37-.12-.72-.15-1.05.03.27.08.53.15.8.07-2.33.23-5.05.5-8.15.4-5.03.7-8.75.9-11.15.2-2.5.35-4.33.45-5.5.27-2.1.57-3.98.9-5.65.23-.83.5-1.7.8-2.6.57,5.2,1.7,11.92,3.4,20.15,2.57,12.77,3.85,22.7,3.85,29.8v3.3c-.02,2.83-.05,4.5-.1,5,0,.07-.02.25-.05.55Z"/><path class="bu" d="M172.75,54.6c.61.46,1.1,1.12,1.45,1.98.04.07.07.15.1.22-.67.9-1.67,1.83-3,2.8-2.47,1.91-5.23,3.07-8.27,3.5-.9.13-1.83.2-2.77.2-1.93,0-3.62-.25-5.05-.75-.07-.1-.13-.18-.2-.25-.13-.13-.27-.27-.4-.4l-.6-.55c-.17-.17-.33-.32-.5-.45l-.05-.05c-.07-.07-.15-.13-.25-.2v-.1c-.07-.07-.13-.12-.2-.15-.77-.73-1.28-1.47-1.55-2.2.4-.23.78-.5,1.15-.8.27,1.43,1.22,2.47,2.85,3.1,1.2.47,2.68.68,4.45.65,2.8.1,5.32-.33,7.55-1.3,2.7-1.17,4.47-2.92,5.3-5.25ZM180.5,83.5c-1.03.43-1.8.5-2.3.2l-4.3-2.5c-.02-.06-.05-.12-.07-.18-.2-.45-.47-.9-.83-1.38-.73-.97-1.27-1.7-1.6-2.2.47.2,1.03.77,1.7,1.7.53.7,1.05,1.17,1.55,1.4.1.04.2.07.3.1.02-.09.04-.19.05-.3.02-.35-.07-.73-.25-1.15-.03-.03-.25-.47-.65-1.3l.95-.65c-.93-1-1.97-1.78-3.1-2.35-.37-.17-.72-.33-1.05-.5l1.95-1.15,5.55-3.15,5.1-2.95.8-.45c1.73-1,2.97-1.28,3.7-.85l1.5.85c-.53.4-.95.82-1.25,1.25-.17.2-.32.4-.45.6,0,.03-.02.07-.05.1l-7.6,14.2c-.33.6-.22.82.35.65ZM171.05,79.55l-1.15-.7c-.1-.17-.18-.3-.25-.4.43.13.85.43,1.25.9.03.03.08.1.15.2ZM155.25,409.7c-.17,1.2-.8,2.05-1.9,2.55-1.03.37-1.98.42-2.85.15-.5-.17-.97-.47-1.4-.9-3.27-2.97-6.8-5.27-10.6-6.9l-.15-1.65,5.5,2.6c1.93,2.83,4.28,4.38,7.05,4.65.97.07,1.98-.02,3.05-.25.5.07.93-.02,1.3-.25ZM138.6,428.4c-1.2,2.03-2.8,3.28-4.8,3.75-1.67.33-3.57.15-5.7-.55l-.65-1.75c-1.3,0-2.57.22-3.8.65-7.47,1.83-12.25-.28-14.35-6.35,1.97,3,5.23,4.38,9.8,4.15,4.6-.2,9.22-.07,13.85.4h.7l4.95-.3Z"/><polygon class="e" points="276.7 29.05 276.7 22 288.1 15.45 288.1 22.5 276.7 29.05"/><path class="bp" d="M103.35,144.6c0,2.03-.62,4.13-1.85,6.3-1.23,2.17-2.75,3.75-4.55,4.75-1.77,1.03-3.27,1.18-4.5.45-1.23-.7-1.85-2.07-1.85-4.1s.62-4.18,1.85-6.35c1.23-2.13,2.73-3.72,4.5-4.75,1.8-1,3.32-1.15,4.55-.45,1.23.7,1.85,2.08,1.85,4.15Z"/><path class="k" d="M245.4,53.25l4.1,2.45.2.05,1.95,6.4h-.05l4.67,14.85.77,2.5,1.2,3.85,1.5,4.75c-.63-.05-1.45.2-2.45.75l-.65.38-1.8-5.73-.1-.15-1.45-4.65-5.15-16.55h.05l-2.8-8.9ZM281,37.25l3.45,11.05h-.1l2.7,8.5-26.9,15.5h-.05l-.5-1.6h.05l23.85-13.85-2.75-8.55h.15l-4.2-13.5,4.3,2.45ZM274.42,145.67l3.53.38,10.35,32.93,15.35,48.87,3.07,9.8,3.15,10,1.15,3.67,12.42,39.62-3.65-.3-11.77-37.6-1.15-3.67-4.45-14.22-2.83-9c-.07,0-.1-.02-.1-.05l-11.08-35.52-12.17-39.08-.75-2.4-1.08-3.43ZM272.35,139l-1.5-4.77c.03-.33.05-.67.05-1.02v-9.65l1.85,5.9,2.77,8.82c-.14,0-.29.01-.42.02-.33.38-.63.78-.87,1.2-.76-.14-1.38-.31-1.87-.5ZM270.08,93.87l6.17-3.58,11.95-6.92,3.05-1.77-3.05-9.75-2.7-8.65,3.05-1.75,6.3,20.05-24.08,13.85c-.12-.67-.35-1.16-.7-1.48ZM275.25,120.1l1-.58,11.95-6.92,10.9-6.3-5.05-15.95h-.05l-.75-2.35.05-.05,3-1.7,1.3,4.1h.05l5.05,15.85-27,15.55-.5-1.6h.05v-.05ZM309.5,127.67l-3.6.18-.8-2.55h-.05l-4-12.6,3.05-1.75,2.95,8.9h.05l2.4,7.82ZM319.05,161.5l-1.1-.2,1.17-.67-.08.88ZM322.45,174.05l-.45-.2-1.05-1.15,1.15,1.15.35.2ZM310.55,160.05l-2.6-.42,6.75-3.92-3.65-11.5c.89-.19,1.77-.39,2.65-.6.28-.03.55-.06.83-.1l.32,1.05h.05l3.4,11.05-7.75,4.45ZM299.15,135.62l5.7-3.12,1.43.83-2.55,1.45c-1.51.32-3.04.6-4.57.85ZM293.9,169.65l-2.5,1.45-.5-1.55v-.05l2.77-1.6c.05.59.12,1.18.23,1.75ZM298.65,194.3l5.2-3.02.15.38.6,1.15-5.45,3.15-.5-1.65ZM316.53,183.9l3.55-2.07,2.12.82-5,2.9-.67-1.65ZM275.6,149.2l-.05-.1h-.05s.07.07.1.1ZM283.45,173.9l-.05-.1h-.1c.07.03.12.07.15.1ZM291.15,198.6h-.05s.07.08.1.15l-.05-.15ZM328.05,206.55l2.25-1.3-5.75-18.45,3-1.75,1.33,4.23,1.67,12.58.9,3,.3,1.6-3.42,1.97c.15-.33.3-.67.42-1.02l-.65-.8-.05-.05ZM308.92,217.65l.03.05c.49.49,1.05.79,1.7.9l-3.75,2.15-.5-1.6h.05l-.05-.05,2.52-1.45ZM332.3,211.65l.03-.02v.12l-.03-.1ZM355.05,273.4l-3.65-.2-3.75-11.85,3.2-1.8,1.12,3.67,3.08,10.18ZM342.1,236.9l.23-1.78.77-.42,6.3,20.05-27,15.6-.6-2,18.7-10.82,5.05-2.93-3.2-10.22-.17-.58s.05-.04.08-.05v-2.95l-.15-3.9ZM298.85,223.45s.07.07.1.1l-.05-.1h-.05ZM306.6,248.25s.07.07.1.1l-.05-.1h-.05ZM314.15,243.9l1.7-.98,10.33-6,.28.67,1.27.45-13.07,7.55-.5-1.65h.05l-.05-.05Z"/><polygon class="by" points="249.6 55.6 249.7 55.75 249.5 55.7 249.6 55.6"/><path class="bj" d="M245.4,53.25l4.55-2.75,4.15,2.4-4.5,2.7-.1.1-4.1-2.45ZM285.5,34.65l-4.5,2.6-4.3-2.45,4.55-2.65,4.25,2.5Z"/><path class="bo" d="M275.6,149.2s-.07-.07-.1-.1h.05l.05.1ZM283.45,173.9s-.08-.07-.15-.1h.1l.05.1ZM291.15,198.6l.05.15c-.03-.07-.07-.12-.1-.15h.05ZM298.85,223.45h.05l.05.1s-.07-.07-.1-.1ZM306.6,248.25h.05l.05.1s-.07-.07-.1-.1Z"/><path class="i" d="M316.58,131.33c0-.09.01-.18.02-.28.02-.17.05-.33.08-.5.09-.51.2-.99.33-1.45l2.15-2.4c.23.13.47.28.7.45.73.47,1.45.97,2.15,1.5.71.66,1.32,1.29,1.83,1.9.8.99,1.34,1.92,1.62,2.8.35.7.65,1.45.9,2.25.13.42.25.85.35,1.3,0,.13.03.25.1.35v.35c.33,1.07.53,2.18.6,3.35.07.3.1.6.1.9v.35c.1,1.03.15,3.17.15,6.4v1.25c0,2.87-.05,5.22-.15,7.05v2.3c-.05,2.96-.15,5.75-.3,8.38-.05.74-.1,1.46-.15,2.17-.23,2.43-.47,4.62-.7,6.55l-1.75-.7-.1-.05-2.05-1.4v-.1l-.35-.2-1.15-1.15c-.07-.17-.2-.28-.4-.35-.3-.4-.6-.8-.9-1.2-.1-.17-.19-.35-.28-.52l-1.08-3.3c-.21-1.45-.07-2.95.4-4.48.17-.4.28-.85.35-1.35l.08-.88.62-6.77-1.7-9.3c-.17-.47-.28-.93-.35-1.4-.04-.16-.07-.32-.1-.48,2.76-1.02,4.64-2.75,5.65-5.17.6-1.6.4-2.95-.6-4.05-1.1-1.1-3.1-1.82-6-2.15-.03,0-.05.02-.08.03Z"/><path class="aw" d="M331.95,222.1l.37-10.35v-.12l.08-1.83-.65-3.35-.3-1.6-.9-3-1.67-12.58-.67-5.02c1.35-.27,2.64-.64,3.87-1.1,2.26-.86,4.33-2.04,6.22-3.55.87-.6,1.45-1.37,1.75-2.3.4-.77.68-1.58.85-2.45l4.6-2.75,2.95-2.7c.43,1.4.37,2.92-.2,4.55l-.95,2.85c-.13.57-.32,1.12-.55,1.65v.15c-5.63,7.83-8.65,12.53-9.05,14.1-.31,1.13-.62,2.94-.92,5.42-.38,3.07-.76,7.18-1.12,12.33-.02.14-.03.27-.05.4-.36,2.9-.81,5.26-1.35,7.07-.64,2.18-1.41,3.57-2.3,4.17ZM317.2,185.55l1.8,4.48,4.95,12.33-.35.2c-3.17-3.78-6.01-7.2-8.52-10.25-1.09-1.32-2.12-2.57-3.1-3.75-.37-.46-.74-.91-1.1-1.35-6.98-8.55-10.47-13.15-10.47-13.8,0-1.03.17-1.62.5-1.75.5-.2.97-.37,1.4-.5,2.53,1.4,6.73,4.3,12.6,8.7l1.62,4.05.67,1.65Z"/><path class="t" d="M310.65,218.6c-.65-.11-1.21-.41-1.7-.9l-.03-.05-.62-1.25c.49.33.96.59,1.42.77,1.16.48,2.24.51,3.25.08l1-.58c.37-.28.73-.62,1.08-1.02.9-1.17,2.02-2.1,3.35-2.8,2.2-.99,4.04-2.29,5.52-3.9,1.01-1.11,1.85-2.36,2.53-3.75l1.6,1.35.05.05.65.8c-.13.35-.27.69-.42,1.02-1.23,2.56-3.34,4.42-6.33,5.58h-.25l-1.3-.8c-2.17,1.63-4.37,3.22-6.6,4.75-.67.67-1.53.9-2.6.7-.21,0-.41-.02-.6-.05ZM342.25,240.8v2.95s-.05.03-.08.05c-.14.08-.29.16-.42.23-2.91,1.44-5.57.93-8-1.53-.43-.47-.73-1-.9-1.6-.03-.1-.07-.2-.1-.3-.09-.29-.18-.58-.25-.85l-4.78-1.7-1.27-.45-.28-.67-.37-.92v-.1c.37.22.76.41,1.17.57.73.29,1.53.5,2.4.62.14.02.28.04.42.05,1.03.3,1.9.8,2.6,1.5.46.51.94.95,1.42,1.32,1.48,1.16,3.08,1.72,4.77,1.7.91-.02,1.85-.2,2.83-.55.27-.09.55-.2.83-.33Z"/><path class="s" d="M221.35,119.8v31.1c0,1.87.47,2.9,1.4,3.1l4.1,2.4c.13.17.32.27.55.3l4.2,2.5c.1.13.27.22.5.25.67.23,1.62,0,2.85-.7l9.25-5.4v.1l13.45-7.8v-.05l4.18-2.4c-1.59,4.58-4.77,8.26-9.53,11.05l-27.3,15.7c-7.2,4.1-10.8,2.07-10.8-6.1v-28.05c0-6.7,2.38-12.03,7.15-16Z"/><path class="ay" d="M269.8,93.7c.09.05.19.11.28.17.35.31.58.8.7,1.48.08.41.12.87.12,1.4v36.45c0,.35-.02.69-.05,1.02-.12,1.12-.42,2.13-.93,3.02-.69,1.24-1.75,2.28-3.17,3.1l-4.62,2.67-.3.18-4.18,2.4v.05l-13.45,7.8v-.1l-9.25,5.4c-1.23.7-2.18.93-2.85.7-.23-.03-.4-.12-.5-.25-.53-.5-.8-1.43-.8-2.8v-36.5c0-3.17,1.38-5.55,4.15-7.15l16.4-9.4v-.1l2.9-1.7v.05l12.5-7.25c.11-.06.22-.12.33-.18,1.2-.62,2.11-.78,2.72-.47ZM268.6,100.25c-.17-2.47-1.12-3.35-2.85-2.65l-30.05,16.95c-1.7,1-2.58,2.82-2.65,5.45v24.1c.37-1.07.8-2.18,1.3-3.35,3.13-7.93,5.62-11.43,7.45-10.5.77.37,1.93,1.17,3.5,2.4,1.63,1.3,2.67,2.17,3.1,2.6l2.2,1.25c.77-1.07,1.35-1.97,1.75-2.7,1.57-4,2.52-6.3,2.85-6.9.27-.5.6-.73,1-.7.3.1.9.35,1.8.75.9.52,2.58,1.98,5.05,4.38.55.53,1.13,1.1,1.75,1.72.4.41.79.8,1.15,1.18.66.69,1.26,1.33,1.8,1.9.12.13.24.25.35.38l.5-.3v-35.95Z"/><path class="bh" d="M231.6,159.2l-4.2-2.5c-.23-.03-.42-.13-.55-.3l-4.1-2.4c-.93-.2-1.4-1.23-1.4-3.1v-36.5c0-3.17,1.37-5.53,4.1-7.1l31.2-18.07.65-.38c1-.55,1.82-.8,2.45-.75.24.02.46.09.65.2h.05l4.7,2.7c-.12-.03-.23-.06-.32-.1.09.04.17.07.22.1h.1l1.12.65,3.52,2.05c-.61-.31-1.52-.15-2.72.47-.11.06-.22.11-.33.18l-12.5,7.25v-.05l-2.9,1.7v.1l-16.4,9.4c-2.77,1.6-4.15,3.98-4.15,7.15v36.5c0,1.37.27,2.3.8,2.8Z"/><path class="bq" d="M148.23,71.72l-.02-.02c0-.1-.02-.18-.05-.25-.3-1.83-.35-3.67-.15-5.5v-.1c.83,1.13,1.92,2.22,3.25,3.25.19.16.4.32.62.5.45.34.98.7,1.58,1.1,1.27,2.67,3.58,5.21,6.92,7.6.15.12.31.24.48.35.33.23.63.47.9.7v.1c-.03.2-.05.4-.05.6-.03.33-.03.65,0,.95-.03.03-.03.08,0,.15v.5c.1,1.53.57,2.87,1.4,4,.36.26.78.52,1.27.77.2.11.41.22.62.33.43.23,1.08.55,1.95.95-.63.5-1.25.8-1.85.9-.77.13-1.45.02-2.05-.35-.38-.12-.77-.25-1.15-.4-1.48-.59-2.97-1.44-4.45-2.55-1.1-.84-2.31-1.89-3.62-3.15-.37-.35-.75-.72-1.12-1.1-.2-.23-.42-.48-.65-.75v-.05s-.02-.07-.05-.1c-.03-.03-.07-.08-.1-.15-.03-.03-.08-.07-.15-.1v-.1s-.07-.08-.1-.15c-.77-1.07-1.42-2.18-1.95-3.35-.57-1.47-1.05-2.98-1.45-4.55l-.02-.02ZM172.85,73.25c-.27-.4-.57-.85-.9-1.35-.06-.1-.12-.19-.18-.27-1.25-1.93-1.87-3-1.87-3.23,0-4.17,1.77-6.62,5.3-7.35,1-.1,2.22.15,3.65.75.37.17.95.43,1.75.8.67.27,1.25.47,1.75.6.03.13.13.47.3,1v.1c0,.07.02.12.05.15.08.26.14.48.2.65.02.06.04.11.05.15-1.7.83-3.17,2.35-4.4,4.55-.03.1-.08.2-.15.3l-5.55,3.15Z"/><path class="bf" d="M10.4,114.75c-.67-.47-1-1.48-1-3.05v-38.05c0-3.27,1.43-5.73,4.3-7.4L81.2,27.3c1.38-.79,2.43-1,3.12-.62l.02.03h.05c.7.4,1.05,1.42,1.05,3.05v38.05c0,3.27-1.42,5.73-4.25,7.4l-8,4.6v22.55l-19.55-11.25-39.95,23.05c-1.4.77-2.45.98-3.15.65-.03-.03-.08-.05-.15-.05ZM25.8,74.9c-1.9,1.1-3.53,2.83-4.9,5.2-1.4,2.37-2.1,4.67-2.1,6.9.03,2.23.73,3.73,2.1,4.5,1.37.8,3,.65,4.9-.45,1.93-1.1,3.58-2.85,4.95-5.25,1.37-2.37,2.05-4.65,2.05-6.85s-.68-3.75-2.05-4.55c-1.37-.77-3.02-.6-4.95.5ZM43.05,79.15c1.37.8,3,.65,4.9-.45,1.93-1.1,3.58-2.85,4.95-5.25,1.37-2.37,2.05-4.65,2.05-6.85s-.68-3.75-2.05-4.55c-1.37-.77-3.02-.6-4.95.5-1.9,1.1-3.53,2.83-4.9,5.2-1.4,2.37-2.1,4.67-2.1,6.9.03,2.23.73,3.73,2.1,4.5ZM64.05,55.45c-1.4,2.37-2.1,4.67-2.1,6.9.03,2.23.73,3.73,2.1,4.5,1.37.8,3,.65,4.9-.45,1.93-1.1,3.58-2.85,4.95-5.25,1.37-2.37,2.05-4.65,2.05-6.85s-.68-3.75-2.05-4.55c-1.37-.77-3.02-.6-4.95.5-1.9,1.1-3.53,2.83-4.9,5.2Z"/><path class="ap" d="M84.33,26.67c-.7-.37-1.74-.17-3.12.62L13.7,66.25c-2.87,1.67-4.3,4.13-4.3,7.4v38.05c0,1.57.33,2.58,1,3.05l-4.7-2.7h-.05c-.7-.43-1.05-1.47-1.05-3.1v-38c0-3.3,1.43-5.77,4.3-7.4L76.35,24.6c1.43-.83,2.52-1.05,3.25-.65l4.73,2.72Z"/><path class="ac" d="M221.42,371.03c.87,4.62,4.33,8.54,10.37,11.77,6.87,3.63,15.05,5.28,24.55,4.95,9.5-.3,17.55-2.52,24.15-6.65,5.43-3.37,8.55-7.23,9.38-11.57.13.63.2,1.27.23,1.92.2,5.53-3,10.35-9.6,14.45-6.6,4.13-14.65,6.35-24.15,6.65-9.5.33-17.68-1.32-24.55-4.95-6.87-3.67-10.4-8.23-10.6-13.7-.03-.69,0-1.36.07-2.03.04-.29.09-.57.15-.85ZM20.75,387.3c0,.06.02.13.02.2.66,3.84,3.4,7.16,8.23,9.95.93.53,1.88,1.03,2.85,1.5,4.77,2.1,10.38,3.15,16.85,3.15,6.93,0,12.93-1.32,18-3.95.57-.23,1.12-.52,1.65-.85,3.46-2.03,5.84-4.29,7.15-6.77.58-1.12.95-2.27,1.1-3.48v6c.07.4.1.78.1,1.15,0,.8-.1,1.57-.3,2.3-.8,3.47-3.47,6.53-8,9.2-5.37,3.17-11.97,4.75-19.8,4.75s-14.27-1.57-19.7-4.7c-3.3-1.9-5.62-4.02-6.95-6.35-.83-1.6-1.25-3.3-1.25-5.1.03-.27.05-.53.05-.8v-6.2Z"/><path class="p" d="M178.65,300.6c0-.07.02-.15.05-.25.07,0,.12.05.15.15l-.2.1Z"/><path class="bg" d="M227.67,329l68.45-39.22.92.52c.03.07.05.13.05.2v.15l-.05-.25.05.3-68.1,39.05-1.33-.75ZM218.98,323.97l-40.25-23.22-.08-.05-.05-.1h.05l.2-.1,2.7-1.55-.05,2,37.48,23.02Z"/><path class="as" d="M297.1,300.6l-67.95,39,.05,5,67.9-39,.05,4.95-.05.05-67.85,38.9-.05-4.9-.2.05-50.5-29.05.1-5,.05.05,50.35,29,.15-.05-.1-4.9h-.05l-50.35-29.05h-.05l.05-4.85v-.1l.08.05,40.25,23.22,8.42,5.18.27-.15,1.33.75.05,4.95,68.05-39.05v4.95ZM229.25,349.5v1.3l-50.75-28.9v-1.3l50.5,29.05.25-.15Z"/><polygon class="ag" points="178.6 310.6 178.6 310.4 178.65 310.6 178.6 310.6"/><path class="y" d="M296.88,352.62l1.83-1.03c.73-.4,1.17-1.1,1.3-2.1.13-.97-.08-1.95-.65-2.95-.57-1-1.28-1.7-2.15-2.1-.93-.4-1.77-.4-2.5,0l-1.7.95c-.02-.08-.04-.17-.05-.25-.27-1.3-.13-2.1.4-2.4l26.45-14.8c.53-.3,1.3,0,2.3.9.97.87,1.9,2.1,2.8,3.7.87,1.57,1.43,3.02,1.7,4.35.01.06.02.12.03.17.19,1.2.03,1.94-.47,2.22l-26.45,14.8c-.53.3-1.28,0-2.25-.9-.2-.18-.39-.37-.58-.58Z"/><path class="ai" d="M296.88,352.62l-10.23,5.72c-1.73-1.96-4.12-3.74-7.15-5.35l-.02-.03,13.52-7.57,1.7-.95c.73-.4,1.57-.4,2.5,0,.87.4,1.58,1.1,2.15,2.1.57,1,.78,1.98.65,2.95-.13,1-.57,1.7-1.3,2.1l-1.83,1.03Z"/><path class="ba" d="M230.98,369.75c.9-2.72,3.09-5.17,6.57-7.35,4.8-3,10.68-4.62,17.65-4.85,6.9-.23,12.87.98,17.9,3.65,3.86,2.06,6.27,4.5,7.23,7.33-.42,3.3-2.7,6.24-6.83,8.82-4.73,2.97-10.52,4.58-17.35,4.85-6.83.2-12.72-1-17.65-3.6-4.51-2.41-7.02-5.36-7.52-8.85ZM261.8,365.1l1.15-2.95c-1.23-3.57-4.02-4.9-8.35-4-5.4,1-9.88,3.48-13.45,7.45-1.33,1.47-1.8,3.15-1.4,5.05,2.27-1.53,4.75-3.13,7.45-4.8,4.23-2.57,8.77-2.85,13.6-.85.3.13.63.17,1,.1Z"/></g></svg>