<?xml version="1.0" encoding="UTF-8"?><svg id="b" xmlns="http://www.w3.org/2000/svg" viewBox="0 0 595.02 285"><defs><style>.d{fill:#fff;stroke-width:0px;}</style></defs><g id="c"><path class="d" d="M40.88,17.37v37.53h-10.4v-4.33c-2.72,3.28-6.7,4.88-11.72,4.88-10.6,0-18.77-7.54-18.77-19.33s8.16-19.32,18.77-19.32c4.6,0,8.51,1.46,11.23,4.54v-3.98h10.88ZM30.21,36.14c0-6.49-4.19-10.39-9.56-10.39s-9.63,3.91-9.63,10.39,4.19,10.4,9.63,10.4,9.56-3.91,9.56-10.4Z"/><path class="d" d="M86.97,17.37v37.53h-10.32v-4.46c-2.86,3.28-7.05,5.02-11.65,5.02-9.42,0-16.05-5.3-16.05-16.88v-21.21h10.88v19.6c0,6.28,2.79,9.07,7.6,9.07s8.65-3.21,8.65-10.12v-18.56h10.88Z"/><path class="d" d="M92.42,51.42l3.63-7.81c3.35,2.16,8.44,3.63,13.05,3.63,5.02,0,6.91-1.33,6.91-3.42,0-6.14-22.67.14-22.67-14.86,0-7.12,6.42-12.14,17.37-12.14,5.16,0,10.88,1.19,14.44,3.28l-3.63,7.74c-3.7-2.09-7.39-2.79-10.81-2.79-4.88,0-6.98,1.53-6.98,3.49,0,6.42,22.67.21,22.67,15,0,6.98-6.49,11.93-17.72,11.93-6.35,0-12.77-1.74-16.25-4.05Z"/><path class="d" d="M154.32,53.09c-2.23,1.6-5.51,2.37-8.79,2.37-8.93,0-14.02-4.54-14.02-13.46V9.07h10.88v9.14h9.28v8.37h-9.28v15.28c0,3.21,1.67,4.95,4.6,4.95,1.6,0,3.21-.49,4.46-1.4l2.86,7.67Z"/><path class="d" d="M182.05,16.81v10.05c-.91-.07-1.6-.14-2.44-.14-6,0-9.98,3.28-9.98,10.46v17.72h-10.88V17.37h10.39v4.95c2.65-3.63,7.12-5.51,12.91-5.51Z"/><path class="d" d="M225.17,17.37v37.53h-10.4v-4.33c-2.72,3.28-6.7,4.88-11.72,4.88-10.6,0-18.77-7.54-18.77-19.33s8.16-19.32,18.77-19.32c4.6,0,8.51,1.46,11.23,4.54v-3.98h10.88ZM214.49,36.14c0-6.49-4.19-10.39-9.56-10.39s-9.63,3.91-9.63,10.39,4.19,10.4,9.63,10.4,9.56-3.91,9.56-10.4Z"/><path class="d" d="M233.4,42.49V3.14h10.88v38.72c0,3.21,1.67,4.95,4.67,4.95,1.19,0,2.44-.35,3.07-.7l.49,8.44c-1.88.63-3.77.91-5.65.91-8.44,0-13.46-4.6-13.46-12.98Z"/><path class="d" d="M254.91,6.07c0-3.42,2.72-6.07,6.77-6.07s6.77,2.51,6.77,5.86c0,3.63-2.72,6.28-6.77,6.28s-6.77-2.65-6.77-6.07ZM256.23,17.37h10.88v37.53h-10.88V17.37Z"/><path class="d" d="M313.65,17.37v37.53h-10.4v-4.33c-2.72,3.28-6.7,4.88-11.72,4.88-10.6,0-18.77-7.54-18.77-19.33s8.16-19.32,18.77-19.32c4.6,0,8.51,1.46,11.23,4.54v-3.98h10.88ZM302.98,36.14c0-6.49-4.19-10.39-9.56-10.39s-9.63,3.91-9.63,10.39,4.19,10.4,9.63,10.4,9.56-3.91,9.56-10.4Z"/><path class="d" d="M360.32,33.42v21.49h-10.88v-19.81c0-6.07-2.79-8.86-7.6-8.86-5.23,0-9,3.21-9,10.12v18.56h-10.88V17.37h10.39v4.39c2.93-3.21,7.33-4.95,12.42-4.95,8.86,0,15.56,5.16,15.56,16.6Z"/><path class="d" d="M0,108.14c0-11.3,8.72-19.32,20.93-19.32,7.88,0,14.09,3.42,16.81,9.56l-8.44,4.54c-2.02-3.56-5.02-5.16-8.44-5.16-5.51,0-9.84,3.84-9.84,10.39s4.33,10.4,9.84,10.4c3.42,0,6.42-1.54,8.44-5.16l8.44,4.6c-2.72,6-8.93,9.49-16.81,9.49-12.21,0-20.93-8.02-20.93-19.33Z"/><path class="d" d="M80.73,89.37v37.53h-10.4v-4.33c-2.72,3.28-6.7,4.88-11.72,4.88-10.6,0-18.77-7.54-18.77-19.33s8.16-19.32,18.77-19.32c4.6,0,8.51,1.46,11.23,4.54v-3.98h10.88ZM70.06,108.14c0-6.49-4.19-10.39-9.56-10.39s-9.63,3.91-9.63,10.39,4.19,10.4,9.63,10.4,9.56-3.91,9.56-10.4Z"/><path class="d" d="M111.68,125.09c-2.23,1.6-5.51,2.37-8.79,2.37-8.93,0-14.02-4.54-14.02-13.46v-32.93h10.88v9.14h9.28v8.37h-9.28v15.28c0,3.21,1.67,4.95,4.6,4.95,1.6,0,3.21-.49,4.46-1.4l2.86,7.67Z"/><path class="d" d="M154.48,105.42v21.49h-10.88v-19.81c0-6.07-2.79-8.86-7.6-8.86-5.23,0-9,3.21-9,10.12v18.56h-10.88v-51.76h10.88v18.14c2.93-2.93,7.12-4.46,11.93-4.46,8.86,0,15.56,5.16,15.56,16.6Z"/><path class="d" d="M159.89,108.14c0-11.3,8.72-19.32,20.65-19.32s20.58,8.02,20.58,19.32-8.65,19.33-20.58,19.33-20.65-8.02-20.65-19.33ZM190.1,108.14c0-6.49-4.12-10.39-9.56-10.39s-9.63,3.91-9.63,10.39,4.19,10.4,9.63,10.4,9.56-3.91,9.56-10.4Z"/><path class="d" d="M206.77,114.49v-39.35h10.88v38.72c0,3.21,1.67,4.95,4.67,4.95,1.19,0,2.44-.35,3.07-.7l.49,8.44c-1.88.63-3.77.91-5.65.91-8.44,0-13.46-4.6-13.46-12.98Z"/><path class="d" d="M228.28,78.07c0-3.42,2.72-6.07,6.77-6.07s6.77,2.51,6.77,5.86c0,3.63-2.72,6.28-6.77,6.28s-6.77-2.65-6.77-6.07ZM229.6,89.37h10.88v37.53h-10.88v-37.53Z"/><path class="d" d="M245.96,108.14c0-11.3,8.72-19.32,20.93-19.32,7.88,0,14.09,3.42,16.81,9.56l-8.44,4.54c-2.02-3.56-5.02-5.16-8.44-5.16-5.51,0-9.84,3.84-9.84,10.39s4.33,10.4,9.84,10.4c3.42,0,6.42-1.54,8.44-5.16l8.44,4.6c-2.72,6-8.93,9.49-16.81,9.49-12.21,0-20.93-8.02-20.93-19.33Z"/><path class="d" d="M0,180.14c0-11.3,8.72-19.32,20.93-19.32,7.88,0,14.09,3.42,16.81,9.56l-8.44,4.54c-2.02-3.56-5.02-5.16-8.44-5.16-5.51,0-9.84,3.84-9.84,10.39s4.33,10.4,9.84,10.4c3.42,0,6.42-1.54,8.44-5.16l8.44,4.6c-2.72,6-8.93,9.49-16.81,9.49-12.21,0-20.93-8.02-20.93-19.33Z"/><path class="d" d="M39.62,180.14c0-11.3,8.72-19.32,20.65-19.32s20.58,8.02,20.58,19.32-8.65,19.33-20.58,19.33-20.65-8.02-20.65-19.33ZM69.83,180.14c0-6.49-4.12-10.39-9.56-10.39s-9.63,3.91-9.63,10.39,4.19,10.4,9.63,10.4,9.56-3.91,9.56-10.4Z"/><path class="d" d="M150.06,177.42v21.49h-10.88v-19.81c0-6.07-2.72-8.86-7.12-8.86-4.88,0-8.3,3.14-8.3,9.84v18.84h-10.88v-19.81c0-6.07-2.58-8.86-7.12-8.86-4.81,0-8.23,3.14-8.23,9.84v18.84h-10.88v-37.53h10.39v4.33c2.79-3.21,6.98-4.88,11.79-4.88,5.23,0,9.7,2.02,12.35,6.14,3-3.84,7.88-6.14,13.53-6.14,8.93,0,15.35,5.16,15.35,16.6Z"/><path class="d" d="M221.58,177.42v21.49h-10.88v-19.81c0-6.07-2.72-8.86-7.12-8.86-4.88,0-8.3,3.14-8.3,9.84v18.84h-10.88v-19.81c0-6.07-2.58-8.86-7.12-8.86-4.81,0-8.23,3.14-8.23,9.84v18.84h-10.88v-37.53h10.39v4.33c2.79-3.21,6.98-4.88,11.79-4.88,5.23,0,9.7,2.02,12.35,6.14,3-3.84,7.88-6.14,13.53-6.14,8.93,0,15.35,5.16,15.35,16.6Z"/><path class="d" d="M267.2,161.37v37.53h-10.32v-4.46c-2.86,3.28-7.05,5.02-11.65,5.02-9.42,0-16.05-5.3-16.05-16.88v-21.21h10.88v19.6c0,6.28,2.79,9.07,7.6,9.07s8.65-3.21,8.65-10.12v-18.56h10.88Z"/><path class="d" d="M313.9,177.42v21.49h-10.88v-19.81c0-6.07-2.79-8.86-7.6-8.86-5.23,0-9,3.21-9,10.12v18.56h-10.88v-37.53h10.39v4.39c2.93-3.21,7.33-4.95,12.42-4.95,8.86,0,15.56,5.16,15.56,16.6Z"/><path class="d" d="M320.52,150.07c0-3.42,2.72-6.07,6.77-6.07s6.77,2.51,6.77,5.86c0,3.63-2.72,6.28-6.77,6.28s-6.77-2.65-6.77-6.07ZM321.85,161.37h10.88v37.53h-10.88v-37.53Z"/><path class="d" d="M338.21,180.14c0-11.3,8.72-19.32,20.93-19.32,7.88,0,14.09,3.42,16.81,9.56l-8.44,4.54c-2.02-3.56-5.02-5.16-8.44-5.16-5.51,0-9.84,3.84-9.84,10.39s4.33,10.4,9.84,10.4c3.42,0,6.42-1.54,8.44-5.16l8.44,4.6c-2.72,6-8.93,9.49-16.81,9.49-12.21,0-20.93-8.02-20.93-19.33Z"/><path class="d" d="M418.94,161.37v37.53h-10.4v-4.33c-2.72,3.28-6.7,4.88-11.72,4.88-10.6,0-18.77-7.54-18.77-19.33s8.16-19.32,18.77-19.32c4.6,0,8.51,1.46,11.23,4.54v-3.98h10.88ZM408.26,180.14c0-6.49-4.19-10.39-9.56-10.39s-9.63,3.91-9.63,10.39,4.19,10.4,9.63,10.4,9.56-3.91,9.56-10.4Z"/><path class="d" d="M449.89,197.09c-2.23,1.6-5.51,2.37-8.79,2.37-8.93,0-14.02-4.54-14.02-13.46v-32.93h10.88v9.14h9.28v8.37h-9.28v15.28c0,3.21,1.67,4.95,4.6,4.95,1.6,0,3.21-.49,4.46-1.4l2.86,7.67Z"/><path class="d" d="M452.94,150.07c0-3.42,2.72-6.07,6.77-6.07s6.77,2.51,6.77,5.86c0,3.63-2.72,6.28-6.77,6.28s-6.77-2.65-6.77-6.07ZM454.27,161.37h10.88v37.53h-10.88v-37.53Z"/><path class="d" d="M470.63,180.14c0-11.3,8.72-19.32,20.65-19.32s20.58,8.02,20.58,19.32-8.65,19.33-20.58,19.33-20.65-8.02-20.65-19.33ZM500.84,180.14c0-6.49-4.12-10.39-9.56-10.39s-9.63,3.91-9.63,10.39,4.19,10.4,9.63,10.4,9.56-3.91,9.56-10.4Z"/><path class="d" d="M556.02,177.42v21.49h-10.88v-19.81c0-6.07-2.79-8.86-7.6-8.86-5.23,0-9,3.21-9,10.12v18.56h-10.88v-37.53h10.39v4.39c2.93-3.21,7.33-4.95,12.42-4.95,8.86,0,15.56,5.16,15.56,16.6Z"/><path class="d" d="M561.05,195.42l3.63-7.81c3.35,2.16,8.44,3.63,13.05,3.63,5.02,0,6.91-1.33,6.91-3.42,0-6.14-22.67.14-22.67-14.86,0-7.12,6.42-12.14,17.37-12.14,5.16,0,10.88,1.19,14.44,3.28l-3.63,7.74c-3.7-2.09-7.39-2.79-10.81-2.79-4.88,0-6.98,1.53-6.98,3.49,0,6.42,22.67.21,22.67,15,0,6.98-6.49,11.93-17.72,11.93-6.35,0-12.77-1.74-16.25-4.05Z"/><path class="d" d="M0,252.14c0-11.3,8.72-19.32,20.93-19.32,7.88,0,14.09,3.42,16.81,9.56l-8.44,4.54c-2.02-3.56-5.02-5.16-8.44-5.16-5.51,0-9.84,3.84-9.84,10.39s4.33,10.4,9.84,10.4c3.42,0,6.42-1.54,8.44-5.16l8.44,4.6c-2.72,6-8.93,9.49-16.81,9.49-12.21,0-20.93-8.02-20.93-19.33Z"/><path class="d" d="M39.62,252.14c0-11.3,8.72-19.32,20.65-19.32s20.58,8.02,20.58,19.32-8.65,19.33-20.58,19.33-20.65-8.02-20.65-19.33ZM69.83,252.14c0-6.49-4.12-10.39-9.56-10.39s-9.63,3.91-9.63,10.39,4.19,10.4,9.63,10.4,9.56-3.91,9.56-10.4Z"/><path class="d" d="M125.02,249.42v21.49h-10.88v-19.81c0-6.07-2.79-8.86-7.6-8.86-5.23,0-9,3.21-9,10.12v18.56h-10.88v-37.53h10.39v4.39c2.93-3.21,7.33-4.95,12.42-4.95,8.86,0,15.56,5.16,15.56,16.6Z"/><path class="d" d="M171.93,233.37v31.25c0,13.95-7.53,20.37-21.07,20.37-7.12,0-14.02-1.74-18.42-5.16l4.33-7.81c3.21,2.58,8.44,4.26,13.25,4.26,7.67,0,11.02-3.49,11.02-10.26v-1.6c-2.86,3.14-6.98,4.67-11.86,4.67-10.39,0-18.77-7.19-18.77-18.14s8.37-18.14,18.77-18.14c5.23,0,9.56,1.74,12.42,5.37v-4.81h10.33ZM161.19,250.95c0-5.51-4.12-9.21-9.84-9.21s-9.91,3.7-9.91,9.21,4.19,9.21,9.91,9.21,9.84-3.7,9.84-9.21Z"/><path class="d" d="M203.56,232.81v10.05c-.91-.07-1.6-.14-2.44-.14-6,0-9.98,3.28-9.98,10.46v17.72h-10.88v-37.53h10.39v4.95c2.65-3.63,7.12-5.51,12.91-5.51Z"/><path class="d" d="M236.8,259.11l5.79,6.28c-3.49,3.98-8.72,6.07-15.49,6.07-12.98,0-21.42-8.16-21.42-19.33s8.51-19.32,20.09-19.32c10.6,0,19.32,6.98,19.39,18.98l-27.77,5.37c1.6,3.7,5.09,5.58,9.98,5.58,3.98,0,6.84-1.19,9.42-3.63ZM216.36,251.02l18.28-3.56c-1.05-3.84-4.33-6.42-8.86-6.42-5.44,0-9.21,3.63-9.42,9.98Z"/><path class="d" d="M247.6,267.42l3.63-7.81c3.35,2.16,8.44,3.63,13.05,3.63,5.02,0,6.91-1.33,6.91-3.42,0-6.14-22.67.14-22.67-14.86,0-7.12,6.42-12.14,17.37-12.14,5.16,0,10.88,1.19,14.44,3.28l-3.63,7.74c-3.7-2.09-7.39-2.79-10.81-2.79-4.88,0-6.98,1.53-6.98,3.49,0,6.42,22.67.21,22.67,15,0,6.98-6.49,11.93-17.72,11.93-6.35,0-12.77-1.74-16.25-4.05Z"/><path class="d" d="M283.88,267.42l3.63-7.81c3.35,2.16,8.44,3.63,13.05,3.63,5.02,0,6.91-1.33,6.91-3.42,0-6.14-22.67.14-22.67-14.86,0-7.12,6.42-12.14,17.37-12.14,5.16,0,10.88,1.19,14.44,3.28l-3.63,7.74c-3.7-2.09-7.39-2.79-10.81-2.79-4.88,0-6.98,1.53-6.98,3.49,0,6.42,22.67.21,22.67,15,0,6.98-6.49,11.93-17.72,11.93-6.35,0-12.77-1.74-16.25-4.05Z"/></g></svg>